/* XPM */
static const char *exit[] = {
/* columns rows colors chars-per-pixel */
"64 64 10 1 ",
"  c #000101",
". c #090101",
"X c #260A0A",
"o c gray14",
"O c #422319",
"+ c #483018",
"@ c #77662B",
"# c gray39",
"$ c #979832",
"% c #A7A7A7",
/* pixels */
"                                                                ",
" %%%%%%%%% %%%%%%%%%%%%%%%%%%%% %%%%%%%%%%%%%%%%%%%%% ooooooooo ",
" %########o %#################o %################### %###oooooo ",
" %#########o %################o %################## %#######ooo ",
" %##########o %###############o %################# %#########oo ",
" %###########o %##############o %################ %%##########o ",
" %###########o %##############o %################ %###########o ",
" %############o %#############o %############### %############o ",
" %#############o %############o %############## %#############o ",
" %##############o %#######ooooo %ooooo######## %##############o ",
" %###############o %##ooooo .        ooooo### %%##############o ",
" %################o %oo    X.XXXXXX.X    ooo %%###############o ",
" %#################o   XXXXX.XXXXXX.XXXXX   %%################o ",
" %################oo X.XXXXX.OOOOOO.OOOOO.X %o################o ",
" %###############oo XX.OOOOO.OOOOOO.OOOOO.XX oo###############o ",
" %##############oo XXX.OOOOO.OOOOOO.OOOOO.OOX oo##############o ",
" %ooooooooooooooo XXXO.OOOOO.OOOOOO.OOOOO.OOOX oo#############o ",
" ooooooooooooooo XXXOO.OOOOO.OOOOOO.OOOOO.OOOOX ooooooooooooooo ",
"                 XXOOO.OOOOO.OOOOOO.OOOOO.OOOOX                 ",
" %############o XXXOOO.OOOOO.OOOOOO.OOOOO.OOOOXX %############o ",
" %%###########o XXXOOO.OOOOO.OOOOOO.OOOOO.OOOOXX %%###########o ",
" %%###########o XXXOOO.OOOOO.OOOOOO.OOOOO.OOOOXX %%###########o ",
" %%###########o XXXOOO.OOOOO.OOOOOO.OOOOO.OOOOXX %%###########o ",
" %%###########o XXXOOO.OOOOO.OOOOOO.OOOOO.OOOOXX %%###########o ",
" %%###########o XXXOOO.OOOOO.OOOOOO.OOOOO.OOOOXX %%###########o ",
" %%oooooooooooo XXXOOO.OOOOO.OOOOOO.OOOOO.OOOOXX %%oooooooooooo ",
" %ooooooooooooo XXXOOO.OOOOO.OOOOOO.OOOOO.OOOOXX %ooooooooooooo ",
"                XXXOOO.OOOOO.OOOOOO.OOOOO.OOOOXX                ",
" %############o XXXOOO.OOOOO.OOOOOO.OOOOO.OOOOXX %############o ",
" %%###########o XXXOOO.OOOOO.OOOOOO.OOOOO.OOOOXX %%###########o ",
" %%###########o XXXOOO.OOOOO.OOOOOO.OOOOO.OOOOXX %%%##########o ",
" %%###########o XXXOOO.OOOOO.OOOOOO.OOOOO.OOOOXX %%%##########o ",
" %%###########o XXXOOO.OOOOO.OOOOOO.OOOOO.OOOOXX %%%##########o ",
" %%###########o XXXOOO.OOOOO.OOOOOO.OOOOO.OOOOXX %%%##########o ",
" %%oooooooooooo XXXOOO.OOOOO.OOOOOO.OOOOO.OOOOXX %%oooooooooooo ",
" %ooooooooooooo XXXOOO.OOOOO.OOOOOO.OOOOO.OOOOXX %ooooooooooooo ",
"                XXXOOO.OOOOO.OOOOOO.OOOOO.OOOOXX                ",
" %############o X....O.OOOOO.OOOOOO.OOOOO.OOOOXX %############o ",
" %%###########o X.@$.O.OOOOO.OOOOOO.OOOOO.OOOOXX %%###########o ",
" %%%##########o X.@$.O.OOOOO.OOOOOO.OOOOO.OOOOXX %%###########o ",
" %%%##########o X....O.OOOOO.OOOOOO.OOOOO.OOOOXX %%###########o ",
" %%%##########o X.+@.O.OOOOO.OOOOOO.OOOOO.OOOOXX %%###########o ",
" %%%##########o X.+$.O.OOOOO.OOOOOO.OOOOO.OOOOXX %%###########o ",
" %%oooooooooooo X.+@.O.OOOOO.OOOOOO.OOOOO.OOOOXX %%oooooooooooo ",
" %ooooooooooooo X....O.OOOOO.OOOOOO.OOOOO.OOOOXX %ooooooooooooo ",
"                X.+$.O.OOOOO.OOOOOO.OOOOO.OOOOXX                ",
" %############o X.+$.O.OOOOO.OOOOOO.OOOOO.OOOOXX %############o ",
" %%###########o X.+$.O.OOOOO.OOOOOO.OOOOO.OOOOXX %############o ",
" %%###########o X....O.OOOOO.OOOOOO.OOOOO.OOOOXX %############o ",
" %%###########o XXXOOO.OOOOO.OOOOOO.OOOOO.OOOOXX %############o ",
" %%###########o XXXOOO.OOOOO.OOOOOO.OOOOO.OOOOXX %############o ",
" %%###########o XXXOOO.OOOOO.OOOOOO.OOOOO.OOOOXX %############o ",
" %%oooooooooooo XXXOOO.OOOOO.OOOOOO.OOOOO.OOOOXX %ooooooooooooo ",
" %ooooooooooooo XXXOOO.OOOOO.OOOOOO.OOOOO.OOOOXX %ooooooooooooo ",
"                XXXOOO.OOOOO.OOOOOO.OOOOO.OOOOXX                ",
" %############o XXXOOO.OOOOO.OOOOOO.OOOOO.OOOOXX %############o ",
" %%###########o XXXOOO.OOOOO.OOOOOO.OOOOO.OOOOXX %%###########o ",
" %%%##########o XXXOOO.OOOOO.OOOOOO.OOOOO.OOOOXX %%###########o ",
" %%%##########o XXXOOO.OOOOO.OOOOOO.OOOOO.OOOOXX %%###########o ",
" %%%##########o XXXOOO.OOOOO.OOOOOO.OOOOO.OOOOXX %%###########o ",
" %%%##########o XXXOOO.OOOOO.OOOOOO.OOOOO.OOOOXX %%###########o ",
" %%oooooooooooo XXXOOO.OOOOO.OOOOOO.OOOOO.OOOOXX %%oooooooooooo ",
" %ooooooooooooo XXXOOO.OOOOO.OOOOOO.OOOOO.OOOOXX %ooooooooooooo ",
"                ................................                "
};
