/* XPM */
static const char *floor[] = {
/* columns rows colors chars-per-pixel */
"64 64 3 1 ",
"  c #270B0B",
". c #3F0707",
"X c #7C422E",
/* pixels */
"......     ...........     ...........     ...........     .....",
".......   .............   .............   .............   ......",
"....... . X............  .............. . X............  .......",
"....XX  .  X.........X   X..........XX  .  X.........X   X......",
"....X ....  XXXX....X ..  X.........X ....  XXXX....X ..  X.....",
"..XXX ..... X   X.XXX ...  XXXX...XXX ..... X   X.XXX ...  XXXX.",
".XX  ......   . XXX  ..... X   X.XX  ......   . XXX  ..... X   X",
"XX  ........... XX  ......   . XXX  ........... XX  ......   . X",
"   ............    ........... X   ............    ........... X",
"   XX............ ............     XX............ ............  ",
" .  X...........   X.........    .  X...........   X.........   ",
"... XXX.....X    .  X.......  ..... XXX.....X    .  X.......  ..",
"....  X....X  .....  X.....X .......  X....X  .....  X.....X ...",
"..... XX...X .......  X..XXX ........ XX...X .......  X..XXX ...",
"...... XXXXX ........ XX.X  .......... XXXXX ........ XX.X  ....",
"......   X  .......... XXX ...........   X  .......... XXX .....",
".......    ...........    X............    ...........    X.....",
"....... . X............   XX........... . X............   XX....",
"......  . X............ .  XX.........  . X............ .  XX...",
"..... ...  XX.......XX  ..  XXXX..... ...  XX.......XX  ..  XXXX",
"..... ....  XXXXX...X ..... X   ..... ....  XXXXX...X ..... X   ",
"..X  ...... X   X.XXX .....   . ..X  ...... X   X.XXX .....   . ",
"XX  X......   . XXX  .......... XX  X......   . XXX  .......... ",
"     X......... XX  ...........      X......... XX  ........... ",
"   .  X........    ............    .  X........    ............ ",
".....  X......... ............. .....  X......... ............. ",
"......  X...XXXX   ...........  ......  X...XXXX   ........... .",
"....... XX.XX    .  X......... ........ XX.XX    .  X......... .",
"........ XXX  .....  X......XX X........ XXX  .....  X......XX .",
"........   X .......  X....X    XXXX....   X .......  X....X   .",
"X........  X ........ XX.XXX  ..    X....  X ........ XX.XXX  ..",
" XXXXXXXX   .......... XX    .....   XXXX   .......... XX    ...",
"           ...........     ..........      ...........     .....",
".......   .............   .............   .............   ......",
"....... . X............  .............. . X............  .......",
"....XX  .  X.........X   X..........XX  .  X.........X   X......",
"....X ....  XXXX....X ..  X.........X ....  XXXX....X ..  X.....",
"..XXX ..... X   X.XXX ...  XXXX...XXX ..... X   X.XXX ...  XXXX.",
".XX  ......   . XXX  ..... X   X.XX  ......   . XXX  ..... X   X",
"XX  ........... XX  ......   . XXX  ........... XX  ......   . X",
"   ............    ........... X   ............    ........... X",
"   XX............ ............     XX............ ............  ",
" .  X...........   X.........    .  X...........   X.........   ",
"... XXX.....X    .  X.......  ..... XXX.....X    .  X.......  ..",
"....  X....X  .....  X.....X .......  X....X  .....  X.....X ...",
"..... XX...X .......  X..XXX ........ XX...X .......  X..XXX ...",
"...... XXXXX ........ XX.X  .......... XXXXX ........ XX.X  ....",
"......   X  .......... XXX ...........   X  .......... XXX .....",
".......    ...........    X............    ...........    X.....",
"....... . X............   XX........... . X............   XX....",
"......  . X............ .  XX.........  . X............ .  XX...",
"..... ...  XX.......XX  ..  XXXX..... ...  XX.......XX  ..  XXXX",
"..... ....  XXXXX...X ..... X   ..... ....  XXXXX...X ..... X   ",
"..X  ...... X   X.XXX .....   . ..X  ...... X   X.XXX .....   . ",
"XX  X......   . XXX  .......... XX  X......   . XXX  .......... ",
"     X......... XX  ...........      X......... XX  ........... ",
"   .  X........    ............    .  X........    ............ ",
".....  X......... ............. .....  X......... ............. ",
"......  X...XXXX   ........... .......  X...XXXX   ........... .",
"....... XX.XX    .  X......... ........ XX.XX    .  X......... .",
"........ XXX  .....  X......XX ......... XXX  .....  X......XX .",
"........   X .......  X....X   .........   X .......  X....X   .",
".........  X ........ XX.XXX  ...........  X ........ XX.XXX  ..",
".........   .......... XX    ............   .......... XX    ..."
};
