/* XPM */
static const char *floor[] = {
/* columns rows colors chars-per-pixel */
"32 32 3 1 ",
"  c #270A0A",
". c #3F0707",
"X c #7C422E",
/* pixels */
"......     ...........     .....",
".......   .............   ......",
"....... . X............  .......",
"....XX  .  X.........X   X......",
"....X ....  XXXX....X ..  X.....",
"..XXX ..... X   X.XXX ...  XXXX.",
".XX  ......   . XXX  ..... X   X",
"XX  ........... XX  ......   . X",
"   ............    ........... X",
"   XX............ ............  ",
" .  X...........   X.........   ",
"... XXX.....X    .  X.......  ..",
"....  X....X  .....  X.....X ...",
"..... XX...X .......  X..XXX ...",
"...... XXXXX ........ XX.X  ....",
"......   X  .......... XXX .....",
".......    ...........    X.....",
"....... . X............   XX....",
"......  . X............ .  XX...",
"..... ...  XX.......XX  ..  XXXX",
"..... ....  XXXXX...X ..... X   ",
"..X  ...... X   X.XXX .....   . ",
"XX  X......   . XXX  .......... ",
"     X......... XX  ........... ",
"   .  X........    ............ ",
".....  X......... ............. ",
"......  X...XXXX   ........... .",
"....... XX.XX    .  X......... .",
"........ XXX  .....  X......XX .",
"........   X .......  X....X   .",
".........  X ........ XX.XXX  ..",
".........   .......... XX    ..."
};
