/* XPM */
static const char *floor[] = {
/* columns rows colors chars-per-pixel */
"64 64 5 1 ",
"  c #260A0A",
". c #270A0B",
"X c #2E4313",
"o c #44631E",
"O c #7C422E",
/* pixels */
"oooooooo  XXXXXXXXXXXXXX ooooooooooooooo  oooooooooooo     ooooo",
"ooooooo o XXXXXXXXXXXXXX oooooooooooooo X ooooooooooooo oooooooo",
"ooooooo o OXXXXXXXXXXXXX oooooooooooooo X Ooooooooooooo oooooooo",
"ooooOO  o  OXXXXXXXXXO   OooooooooooOO XXX OoooooooooO   Ooooooo",
"ooooO oooo  OOOOXXXXO ooo OoooooooooO XXXXX OOOOooooO ooo Oooooo",
"ooOOO ooooo O  OOXOOO oooo OOOOoooOOO XXXXX O  OOoOOO oooo OOOOo",
"oOO  ooooooo oo OOO  ooooo O  OOoOOO XXXXXXX XX OOOO ooooo O   O",
"OO oooooooooooo OO oooooooo oo OOOO XXXXXXXXXXX OOO ooooooo oo O",
"   ooooooooooooo  oooooooooooo O   XXXXXXXXXXXXX   ooooooooooo O",
"XX OOoooooooooooo oooooooooooo  OO OOXXXXXXXXXXXX oooooooooooo  ",
"XXX Oooooooooooo   Ooooooooooo OOOO OXXXXXXXXXXXX OOoooooooooo  ",
"XXX OOOoooooO   ooo Ooooooooo OOOOO OOOXXXXXO    o OOoooooooo XX",
"XXXX OOooooO ooooooo OoooooO OOOOOOO  OXXXXO oooooo OOoooooO XXX",
"XXXXX OOoooO oooooooo OooOOO OOOOOOOO OOXXXO ooooooo OOooOOO XXX",
"XXXXXX OOOOO oooooooo OOoOO OOOOOOOOOO OOOOO oooooooo OOoOO XXXX",
"XXXXXXX OO  oooooooooo OOO OOOOOOOOOOOO  OO oooooooooo OOO XXXXX",
"XXXXXXXX  Ooooooooooooo   OOOOOOOOOOOOO o  ooooooooooo    OXXXXX",
"XXXXXXX o Ooooooooooooo X OOOOOOOOOOOOO o Ooooooooooooo o OOXXXX",
"XXXXXX oo Ooooooooooooo XX OOOOOOOOOOO oo Ooooooooooooo oo OOXXX",
"XXXXX ooo OOOoooooooOO XXX OOOOOOOOOO oooo OOoooooooOO oooo OOOO",
"XXXXX oooo OOOOOOoooO XXXXX O  OOOOOO ooooo OOOOOoooO ooooo O   ",
"XXOO oooooo OO OOoOOO XXXXXX XX OOO  oooooo O  OOoOOO oooooo oo ",
"OOO Oooooooo  o OOO  XXXXXXXXXX OO  Oooooooo oo OOO  oooooooooo ",
"    OOooooooooo OO XXXXXXXXXXXX   XX Oooooooooo OO oooooooooooo ",
"OOOO OOoooooooo   XXXXXXXXXXXXX XXXXX Oooooooooo  ooooooooooooo ",
"OOOOO OOooooooooo XXXXXXXXXXXXX XXXXXX Oooooooooo ooooooooooooo ",
"OOOOOO OOoooOOOO  XXXXXXXXXXXXX XXXXXXX OoooOOOO   ooooooooooo O",
"OOOOOOO OOoOO   oo  OXXXXXXXXX XXXXXXXX OOoOO   XXX Oooooooooo O",
"OOOOOOOO OOO ooooooo OXXXXXXOO OXXXXXXXX OOO XXXXXXX OooooooOO O",
"OOOOOOOOO  O oooooooo OXXXXO    OOOOXXXXX OO XXXXXXXX OooooOO OO",
"OOOOOOOOOO O oooooooo OOXOOO OOO    OXXXXX O XXXXXXXX OOoOOO OOO",
"OOOOOOOOOO  oooooooooo OO   OOOOOOOO OOOOO  XXXXXXXXXX OO   OOOO",
"OOOOOOOOO ooooooooooooo  OOOOOOOOOOOO  O  XXXXXXXXXXXXX   OOOOOO",
"OOOOOOOO  ooooooooooooo OOOOOOOOOOOOOOO O XXXXXXXXXXXXX OOOOOOOO",
"OOOOOOO o Ooooooooooooo OOOOOOOOOOOOOOO O OXXXXXXXXXXXX OOOOOOOO",
"OOOOOO oo OOoooooooooO  OOOOOOOOOOOOOO OO OOXXXXXXXXXO  OOOOOOOO",
"OOOOO oooo OOOOOooooO XX OOOOOOOOOOOO OOOO OOOOOXXXXO oo OOOOOOO",
"OOOOO ooooo OO OOoOOO XXX OOOOOOOOOOO OOOOO O  OOXOOO ooo OOOOOO",
"OOOO ooooooo  o OOOO XXXXX OO OOOOO  OOOOOOO OO OOO  ooooo OO OO",
"OOO ooooooooooo OO  XXXXXXX  X OOO OOOOOOOOOOOO OO  oooooo   o O",
"OO oooooooooooo    XXXXXXXXXXX O  OOOOOOOOOOOOOO   ooooooooooo O",
"   OOoooooooooooo XXXXXXXXXXXX  XX OOOOOOOOOOOOOO oooooooooooo  ",
"oo  Oooooooooooo   OXXXXXXXXX XXXXX OOOOOOOOOOOOO  Ooooooooooo  ",
"ooo OOOoooooO   ooo OXXXXXXX XXXXXX OOOOOOOOOO   oo Ooooooooo oo",
"oooo  OooooO ooooooo OXXXXXO XXXXXXX OOOOOOOO oooooo OoooooO ooo",
"ooooo OOoooO oooooooo OXXOOO XXXXXXXX OOOOOO oooooooo OooOOO ooo",
"oooooo OOOOO oooooooo OOXO  XXXXXXXXXX OOOOO oooooooo OOoO  oooo",
"ooooooo OOO oooooooooo OOO XXXXXXXXXXX OOOO oooooooooo OOO ooooo",
"ooooooo    oooooooooooo O OXXXXXXXXXXXX  O ooooooooooo    Oooooo",
"ooooooo X Oooooooooooooo OOOXXXXXXXXXXX o Ooooooooooooo X OOoooo",
"oooooo XX Ooooooooooooo o OOOXXXXXXXXX oo Ooooooooooooo XX OOooo",
"ooooo XXXX OOoooooooOO ooo OOOOOXXXXX oooo OOoooooooOO XXXX OOOO",
"ooooo XXXXX OOOOOoooO ooooo O  OXXXXX ooooo OOOOOoooO XXXXX O   ",
"ooO  XXXXXX O   OoOOO oooooo oo OXO  oooooo O   OoOOO XXXXXX XX ",
"OO  OXXXXXXX XX OOO  oooooooooo OO  Oooooooo oo OOO  XXXXXXXXXX ",
"  oo OXXXXXXXXX OO oooooooooooo   oo Oooooooooo OO XXXXXXXXXXXX ",
"ooooo OXXXXXXXXX  ooooooooooooo ooooo Oooooooooo  XXXXXXXXXXXXX ",
"oooooo OXXXXXXXXX ooooooooooooo oooooo Oooooooooo XXXXXXXXXXXXX ",
"ooooooo OXXXOOOOO oooooooooooo oooooooo OoooOOOOO  XXXXXXXXXXX o",
"ooooooo OOXOO    X OOooooooooo oooooooo OOoOOO   oo OXXXXXXXXX o",
"oooooooo OOO XXXXXX OOooooooOO ooooooooo OOOO oooooo OXXXXXXOO o",
"ooooooooo  O XXXXXXX OOooooOO ooooooooooo OO oooooooo OXXXXOOO o",
"oooooooooo O XXXXXXXX OOoOOO oooooooooooo  O oooooooo OOXOOOO oo",
"oooooooooo  XXXXXXXXXX OO   oooooooooooo ooooooooooooo OOO   ooo"
};
