/* XPM */
static const char *wall[] = {
/* columns rows colors chars-per-pixel */
"64 64 4 1 ",
"  c #260A0A",
". c #443435",
"X c #776765",
"o c #B09B93",
/* pixels */
"                                        .                       ",
" oXXXXXXXXXXXXXXXXX oXXXXXXXXXXXXXXXXXX oXXXXXXXXXXXXXXXXXX oXX ",
" ooXXXXXXXXXXXXXXXX ooXXXXXXXXXXXXXXXXX oXXXXXXXXXXXXXXXXXX oXX ",
" oooXXXXXXXXXXXXXXX ooXXXXXXXXXXXXXXXXX ooXXXXXXXXXXXXXXXXX oXX ",
" oooXXXXXXXXXXXXXXX ooXXXXXXXXXXXXXXXXX ooXXXXXXXXXXXXXXXXX oXX ",
" oooXXXXXXXXXXXXXXX ooXXXXXXXXXXXXXXXXX ooXXXXXXXXXXXXXXXXX oXX ",
" oo................ oo................. o.................. o.. ",
" o................. o.................. o.................. o.. ",
"                                                                ",
" oXXXXXXXXXX ooXXXXXXXXXXXXXXXXX oXXXXXXXXXXXXXXXXXX oXXXXXXXXX ",
" oXXXXXXXXXX oooXXXXXXXXXXXXXXXX ooXXXXXXXXXXXXXXXXX ooXXXXXXXX ",
" oXXXXXXXXXX ooooXXXXXXXXXXXXXXX ooXXXXXXXXXXXXXXXXX ooXXXXXXXX ",
" oXXXXXXXXXX ooooXXXXXXXXXXXXXXX ooXXXXXXXXXXXXXXXXX ooXXXXXXXX ",
" oXXXXXXXXXX ooooXXXXXXXXXXXXXXX ooXXXXXXXXXXXXXXXXX ooXXXXXXXX ",
" oXXXXXXXXXX ooo................ oo................. oo........ ",
" o.......... oo................. o.................. o......... ",
"                                                                ",
" ooXXXXXXXXXXXXXXXXX ooXXXXXXXXXXXXXXXXX oXXXXXXXXXXXXXXXXXX oX ",
" oooXXXXXXXXXXXXXXXX oooXXXXXXXXXXXXXXXX ooXXXXXXXXXXXXXXXXX oX ",
" ooooXXXXXXXXXXXXXXX oooXXXXXXXXXXXXXXXX ooXXXXXXXXXXXXXXXXX oX ",
" ooooXXXXXXXXXXXXXXX oooXXXXXXXXXXXXXXXX ooXXXXXXXXXXXXXXXXX oX ",
" ooooXXXXXXXXXXXXXXX oooXXXXXXXXXXXXXXXX ooXXXXXXXXXXXXXXXXX oX ",
" ooo................ ooo................ oo................. o. ",
" oo................. oo................. o.................. o. ",
"                                                                ",
" oXXXXXXXXXX ooXXXXXXXXXXXXXXXXX oXXXXXXXXXXXXXXXXXX oXXXXXXXXX ",
" oXXXXXXXXXX oooXXXXXXXXXXXXXXXX ooXXXXXXXXXXXXXXXXX oXXXXXXXXX ",
" oXXXXXXXXXX ooooXXXXXXXXXXXXXXX oooXXXXXXXXXXXXXXXX oXXXXXXXXX ",
" oXXXXXXXXXX ooooXXXXXXXXXXXXXXX oooXXXXXXXXXXXXXXXX oXXXXXXXXX ",
" oXXXXXXXXXX ooooXXXXXXXXXXXXXXX oooXXXXXXXXXXXXXXXX oXXXXXXXXX ",
" o.......... ooo................ oo................. o......... ",
" o.......... oo................. o.................. o......... ",
"                                                                ",
" ooXXXXXXXXXXXXXXXXX ooXXXXXXXXXXXXXXXXX oXXXXXXXXXXXXXXXXXX oX ",
" oooXXXXXXXXXXXXXXXX oooXXXXXXXXXXXXXXXX ooXXXXXXXXXXXXXXXXX oX ",
" ooooXXXXXXXXXXXXXXX ooooXXXXXXXXXXXXXXX ooXXXXXXXXXXXXXXXXX oX ",
" ooooXXXXXXXXXXXXXXX ooooXXXXXXXXXXXXXXX ooXXXXXXXXXXXXXXXXX oX ",
" ooooXXXXXXXXXXXXXXX ooooXXXXXXXXXXXXXXX ooXXXXXXXXXXXXXXXXX oX ",
" ooo................ ooo................ oo................. o. ",
" oo................. oo................. o.................. o. ",
"                                                                ",
" oXXXXXXXXXX ooXXXXXXXXXXXXXXXXX ooXXXXXXXXXXXXXXXXX oXXXXXXXXX ",
" oXXXXXXXXXX oooXXXXXXXXXXXXXXXX oooXXXXXXXXXXXXXXXX ooXXXXXXXX ",
" oXXXXXXXXXX ooooXXXXXXXXXXXXXXX ooooXXXXXXXXXXXXXXX ooXXXXXXXX ",
" oXXXXXXXXXX ooooXXXXXXXXXXXXXXX ooooXXXXXXXXXXXXXXX ooXXXXXXXX ",
" oXXXXXXXXXX ooooXXXXXXXXXXXXXXX ooooXXXXXXXXXXXXXXX ooXXXXXXXX ",
" o.......... ooo................ ooo................ oo........ ",
" o.......... oo................. oo................. o......... ",
"                                                                ",
" ooXXXXXXXXXXXXXXXXX ooXXXXXXXXXXXXXXXXX oXXXXXXXXXXXXXXXXXX oX ",
" oooXXXXXXXXXXXXXXXX oooXXXXXXXXXXXXXXXX ooXXXXXXXXXXXXXXXXX oX ",
" ooooXXXXXXXXXXXXXXX ooooXXXXXXXXXXXXXXX oooXXXXXXXXXXXXXXXX oX ",
" ooooXXXXXXXXXXXXXXX ooooXXXXXXXXXXXXXXX oooXXXXXXXXXXXXXXXX oX ",
" ooooXXXXXXXXXXXXXXX ooooXXXXXXXXXXXXXXX oooXXXXXXXXXXXXXXXX oX ",
" ooo................ ooo................ oo................. o. ",
" oo................. oo................. o.................. o. ",
"                                                                ",
" oXXXXXXXXXX ooXXXXXXXXXXXXXXXXX ooXXXXXXXXXXXXXXXXX oXXXXXXXXX ",
" oXXXXXXXXXX oooXXXXXXXXXXXXXXXX oooXXXXXXXXXXXXXXXX ooXXXXXXXX ",
" oXXXXXXXXXX ooooXXXXXXXXXXXXXXX oooXXXXXXXXXXXXXXXX ooXXXXXXXX ",
" oXXXXXXXXXX ooooXXXXXXXXXXXXXXX oooXXXXXXXXXXXXXXXX ooXXXXXXXX ",
" oXXXXXXXXXX ooo................ ooo................ oo........ ",
" o.......... oo................. oo................. o......... ",
"                                                                "
};
