/* XPM */
static const char *wall[] = {
/* columns rows colors chars-per-pixel */
"32 32 3 1 ",
"  c #443435",
". c #776765",
"X c #B09A92",
/* pixels */
"                                ",
" XXX............... X.......... ",
" XXX............... X.......... ",
" XXX............... X.......... ",
" XXX............... X.......... ",
" XXX............... X.......... ",
" XXX............... X.......... ",
" XXX............... X.......... ",
"                                ",
" X.......... X................. ",
" X.......... XX................ ",
" X.......... XX................ ",
" X.......... XX................ ",
" X.......... XX................ ",
" X.......... XX................ ",
" X.......... X................. ",
"                                ",
" XXXX............... X......... ",
" XXXX............... XX........ ",
" XXXX............... XX........ ",
" XXXX............... XX........ ",
" XXXX............... XX........ ",
" XXXX............... XX........ ",
" XXXX............... X......... ",
"                                ",
" XX........... X............... ",
" XX........... X............... ",
" XX........... X............... ",
" XX........... X............... ",
" XX........... X............... ",
" XX........... X............... ",
"                                "
};
