/* XPM */
static const char *enemy_1[] = {
/* columns rows colors chars-per-pixel */
"64 64 13 1 ",
"  c black",
". c #260A0A",
"X c #2E4313",
"o c #44631E",
"O c #7C422E",
"+ c #47185E",
"@ c #851818",
"# c #E74B4B",
"$ c #DFAF1E",
"% c #6B1A92",
"& c #783D94",
"* c #E6FEFD",
"= c white",
/* pixels */
"oooooooo..XXXXXXXXXXXXXX.ooooooooooooooo..oooooooooooo.....ooooo",
"ooooooo.o.XXXXXXXXXXXXXX.oooooooooooooo.X.ooooooooooooo.oooooooo",
"ooooooo.o.OXXXXXXXXXXXXX.oooooooooooooo.X.Ooooooooooooo.oooooooo",
"ooooOO..o..OXXXXXXXXXO...OooooooooooOO.XXX.OoooooooooO...Ooooooo",
"ooooO.oooo..OOOOXXXXO.ooo.OoooooooooO.XXXXX.OOOOooooO.ooo.Oooooo",
"ooOOO.ooooo.O..OOXOOO.oooo.OOOOoooOOO.XXXXX.O..OOoOOO.oooo.OOOOo",
"oOO..ooooooo.oo.OOO..ooooo.O..OOoOOO.XXXXXXX.XX.OOOO.ooooo.O...O",
"OO.oooooooooooo.OO.oooooooo.oo.OOOO.XXXXXXXXXXX.OOO.ooooooo.oo.O",
"...ooooooooooooo..oooooooooooo.O...XXXXXXXXXXXXX...ooooooooooo.O",
"XX.OOoooooooooooo.oooooooooooo .OO.OOXXXXXXXXXXXX.oooooooooooo..",
"XXX.Oooooooooooo...Oooooooooo % OOO.OXXXXXXXXXXXX.OOoooooooooo..",
"XXX.OOOoooooO...ooo.Oooooooo %% OOO.OOOXXXXXO....o.OOoooooooo.XX",
"XXXX.OOooooO.ooooooo.OoooooO %%% OOO..OXXXXO.oooooo.OOoooooO.XXX",
"XXXXX.OOoooO.oooooooo.OooOO %%%%% OOO.OOXXXO.ooooooo.OOooOOO.XXX",
"XXXXXX.OOOOO.oooooooo.OOoO %%%%%% OOOO.OOOOO.oooooooo.OOoOO.XXXX",
"XXXXXXX.OO..oooooooooo.OO %%%%%%%% OOOO..OO.oooooooooo.OOO.XXXXX",
"XXXXXXXX..Ooooooooooooo.. %%%%%%%%% OOO.o..ooooooooooo....OXXXXX",
"XXXXXXX.o.Ooooooooooooo. %%%%%%%%%%% OO.o.Ooooooooooooo.o.OOXXXX",
"XXXXXX.oo.Oooooooooooo  %%%%%%%%%%%%% .oo.Ooooooooooooo.oo.OOXXX",
"XXXXX.ooo.OOOoooooooO %%%&%%%%%%%%%%%% ooo.OOoooooooOO.oooo.OOOO",
"XXXXX.oooo.OOOOOOoooO %&&&%%%%%%%%%%%%%  oo.OOOOOoooO.ooooo.O...",
"XXOO.oooooo.OO.OOoO  %%&&&%%%%%%%%%%%%%%% o.O..OOoOOO.oooooo.oo.",
"OOO.Oooooooo..o.OO %%&&&&&%%%%%%%%%%%%%%%% o.oo.OOO..oooooooooo.",
"....OOooooooooo.O %%&&&&&%%%%%%%%%%%%%%%%%% ooo.OO.oooooooooooo.",
"OOOO.OOoooooooo. %%&&&&&&%%%%%%%%%%%%%%%%%%%  oo..ooooooooooooo.",
"OOOOO.OOooooooo %%&&&&&&%%%%%%%%%%%%%%%%%%%%%+  o.ooooooooooooo.",
"OOOOOO.OOoooOO %%&&&&&&%%%%%%%%%%%%%%%%%%%%%%%++ ..ooooooooooo.O",
"OOOOOOO.OOoOO %%&&&&&&%%%%%%%%%%%%%%%%%%%%%%%%%++ X.Oooooooooo.O",
"OOOOOOOO.OOO %%&&&&&%%%%%%%%%%%%%%%%%%%%%%%%%%%%++ X.OooooooOO.O",
"OOOOOOOOO.. %%%&%&&%%%%%%%%%%%%%%%%%%%%%%%%%%%%%%++ X.OooooOO.OO",
"OOOOOOOOOO %%&&%%%%%%%%%%%%%%%%%%%+%%%%%%%%%%%%%%%++ .OOoOOO.OOO",
"OOOOOOOOO %%%%%%%%%%%%%%%%++%%%%%++%%%%        %%%%++ .OO...OOOO",
"OOOOOOOO %%%%%%       %%%%%+%%%%++%%%%     *** %%%%++ X...OOOOOO",
"OOOOOOOO %%%%%% ***    %%%%%%%%%+%%%%   $$ ==* %%%%%++ .OOOOOOOO",
"OOOOOOO %%%%%%% **= $$  %%%%%%%%%%%%% * $$ ==* %%%%%+++ OOOOOOOO",
"OOOOOO. %%%%%%% *== $$   %%%%%%%%%%% *= $$ ==  %%%%%+++ OOOOOOOO",
"OOOOO.o %%%%%%%  == $$ = %%%%%%%%%%% == $$ =* %%%%%%+++ .OOOOOOO",
"OOOOO. %%%%%%%%  == $$ =  %%%%%%%%%% == $$ =  %%%%%%%++ o.OOOOOO",
"OOOO.o %%%%%%%%%  = $$ =* %%%%%%%%% **= $$   %%%%%%%%+++ o.OO.OO",
"OOO.oo %%%%%%%%%%   $$ =*  %%%%%%%% **=    %%%%%%%%%%+++ o...o.O",
"OO.ooo %%%%%%%%%%%  $$ =** %%%%%%%%      %%%%%%%%%%%%+++ ooooo.O",
"...OOoo %%%%%%%%%%%        %%%%%%%%%%%%%%%%%%%%% %%%%+++ ooooo..",
"oo..Ooo %%%%%%%%%%%%%%%%%%%%%%%%%%%%%%%%%%%%%%%% %%%%+++ ooooo..",
"ooo.OOO %%%%%%%%% %%%%%%%%%%%%%%%%%%%%%%%%%%%%% +%%%%+++ oooo.oo",
"oooo..O %%%%%%%%%+  %%%%%%%%%%%%%%%%%%%%%%%%%% +%%%%%++ oooO.ooo",
"ooooo.OO %%%%%%%%%%+ %%%%%%%%%%%%%%%%%%%%%%%%% +%%%%%++ oOOO.ooo",
"oooooo.O %%%%%%%%%% =  %%%%%%%%%%%%%%%%%%%%%% +%%%%%%++ oO..oooo",
"ooooooo. %%%%%%%%%% ===    %%%%%%%%%%%%%%%%  +%%%%%%+++ OO.ooooo",
"ooooooo.. %%%%%%%%% ==   @@      %%%%%%%%  = +%%%%%%++ ...Oooooo",
"ooooooo.X %%%%%%%%%% = +  @@@@@@@        === +%%%%%%+ o.X.OOoooo",
"oooooo.XX. %%%%%%%%% = +%  @#####@@@@@@  == +%%%%%%++ o.XX.OOooo",
"ooooo.XXXX.  %%%%%%%% +%%%%   #####@@@  % = +%%%%%++ O.XXXX.OOOO",
"ooooo.XXXXX.O %%%%%%%%%%%%%%%     #    %% = +%%%%++ O.XXXXX.O...",
"ooO..XXXXXX.O.  %%%%%%%%%%%%%%%%%   %%%%%% +%%%%+  OO.XXXXXX.XX.",
"OO..OXXXXXXX.XX.  %%%%%%%%%%%%%%%%%%%%%%%%%%%%++  O..XXXXXXXXXX.",
"..oo.OXXXXXXXXX.OO   %%%%%%%%%%%%%%%%%%%%%%%++  OO.XXXXXXXXXXXX.",
"ooooo.OXXXXXXXXX..ooo   %%%%%%%%%%%%%%%%%%++  oo..XXXXXXXXXXXXX.",
"oooooo.OXXXXXXXXX.oooooo   ++++++++++++++++ ooooo.XXXXXXXXXXXXX.",
"ooooooo.OXXXOOOOO.ooooooooo                oOOOOO..XXXXXXXXXXX.o",
"ooooooo.OOXOO....X.OOooooooooo.oooooooo.OOoOOO...oo.OXXXXXXXXX.o",
"oooooooo.OOO.XXXXXX.OOooooooOO.ooooooooo.OOOO.oooooo.OXXXXXXOO.o",
"ooooooooo..O.XXXXXXX.OOooooOO.ooooooooooo.OO.oooooooo.OXXXXOOO.o",
"oooooooooo.O.XXXXXXXX.OOoOOO.oooooooooooo..O.oooooooo.OOXOOOO.oo",
"oooooooooo..XXXXXXXXXX.OO...oooooooooooo.ooooooooooooo.OOO...ooo"
};
