/* XPM */
static const char *enemy_2[] = {
/* columns rows colors chars-per-pixel */
"64 64 8 1 ",
"  c black",
". c #260A0A",
"X c #2E4313",
"o c #44631E",
"O c #7C422E",
"+ c #47185E",
"@ c #6B1A92",
"# c white",
/* pixels */
"oooooooo..XXXXXXXXXXXXXX.ooooooooooooooo..oooooooooooo.....ooooo",
"ooooooo.o.XXXXXXXXXXXXXX.oooooooooooooo.X.ooooooooooooo.oooooooo",
"ooooooo.o.OXXXXXXXXXXXXX.oooooooooooooo.X.Ooooooooooooo.oooooooo",
"ooooOO..o..OXXXXXXXXXO...OooooooooooOO.XXX.OoooooooooO...Ooooooo",
"ooooO.oooo..OOOOXXXXO.ooo.OoooooooooO.XXXXX.OOOOooooO.ooo.Oooooo",
"ooOOO.ooooo.O..OOXOOO.oooo.OOOOoooOOO.XXXXX.O..OOoOOO.oooo.OOOOo",
"oOO..ooooooo.oo.OOO..ooooo.O..OOoOOO.XXXXXXX.XX.OOOO.ooooo.O...O",
"OO.oooooooooooo.OO.oooooooo.oo.OOOO.XXXXXXXXXXX.OOO.ooooooo.oo.O",
"...ooooooooooooo..oooooooooooo.O...XXXXXXXXXXXXX...ooooooooooo.O",
"XX.OOoooooooooooo.oooooooooooo..OO.OOXXXXXXXXXXXX.oooooooooooo..",
"XXX.Oooooooooooo...Ooooooooooo.OOOO.OXXXXXXXXXXXX.OOoooooooooo..",
"XXX.OOOoooooO...ooo.Ooooooooo.OOOOO.OOOXXXXXO....o.OOoooooooo.XX",
"XXXX.OOooooO.ooooooo.OoooooO.OOOOOOO..OXXXXO.oooooo.OOoooooO.XXX",
"XXXXX.OOoooO.oooooooo.OooOOO.OOOOOOOO.OOXXXO.ooooooo.OOooOOO.XXX",
"XXXXXX.OOOOO.oooooooo.OOoOO.OOOOOOOOOO.OOOOO.oooooooo.OOoOO.XXXX",
"XXXXXXX.OO..oooooooooo.OOO.OOOOOOOOOOOO..OO.oooooooooo.OOO.XXXXX",
"XXXXXXXX..Ooooooooooooo...OOOOOOOOOOOOO.o..ooooooooooo....OXXXXX",
"XXXXXXX.o.Ooooooooooooo.X.OOO OOOOOOOOO.o.Ooooooooooooo.o.OOXXXX",
"XXXXXX.oo.Ooooooooooooo.XX.O @ OOOOOOO.oo.Ooooooooooooo.oo.OOXXX",
"XXXXX.ooo.OOOoooooooOO.XXX.O @ OOOOOO.oooo.OOoooooooOO.oooo.OOOO",
"XXXXX.oooo.OOOOOOoooO.XXXXX. @@ OOOOO.ooooo.OOOOOoooO.ooooo.O...",
"XXOO.oooooo.OO.OOoOOO.XXXXXX @@ OOO..oooooo.O..OOoOOO.oooooo.oo.",
"OOO.Oooooooo..o.OOO..XXXXXXX @@ OO..Oooooooo.oo.OOO..oooooooooo.",
"....OOooooooooo.OO.XXXXXXXX @@@@ .XX.Oooooooooo.OO.oooooooooooo.",
"OOOO.OOoooooooo...XXXXXXXXX @@@@ XXXX.Oooooooooo..ooooooooooooo.",
"OOOOO.OOooooooooo.XXXXXXXXX @@@@@ XXXX.Oooooooooo.ooooooooooooo.",
"OOOOOO.OOoooOOOO..XXXXXXXXX @@@@@ XXXXX.OoooOOOO...ooooooooooo.O",
"OOOOOOO.OOoOO...oo..OXXXXX @@@@@@@ XXXX.OOoOO...XXX.Oooooooooo.O",
"OOOOOOOO.OOO.ooooooo.OXXXX @@@@@@@@ XXXX.OOO.XXXXXXX.OooooooOO.O",
"OOOOOOOOO..O.oooooooo.OXX @@@@@@@@@@ XXXX.OO.XXXXXXXX.OooooOO.OO",
"OOOOOOOOOO.O.oooooooo.OO @@@@@@@@@@@@  XXX.O.XXXXXXXX.OOoOOO.OOO",
"OOOOOOOOOO..oooooooooo  @@@@@@@@@@@@@@@  O..XXXXXXXXXX.OO...OOOO",
"OOOOOOOOO.oooooooooo  @@@@@@@@@@@@@++@@@@ XXXXXXXXXXXXX...OOOOOO",
"OOOOOOOO..oooooooo  @@@@@@@@@@@@@@++@@@@@@  XXXXXXXXXXX.OOOOOOOO",
"OOOOOOO.o.Oooooo  @@@@@@+++@@@@@@++@@@@@@@@@   XXXXXXXX.OOOOOOOO",
"OOOOOO.oo.OOo   @@@@@@@@@+++@@@@++@@@@@@@@@@@@@   XXXO..OOOOOOOO",
"OOOOO.oooo.  @@@@@@@@@@@@@++@@@@+@@@@@@@@@@@@@@@@@  O.oo.OOOOOOO",
"OOOOO.ooo  @@@@@@@@@@@@@@@@@@@@@@@@@@@@@@@@@@@@@@@@+ .ooo.OOOOOO",
"OOOO.ooo @@@@@@@@@@@@@@@@@@@@@@@@@@@@@@@@@     @@@@++  ooo.OO.OO",
"OOO.oo  @@@@@@@@@@@@@@@@@@@@@@@@@@@@@@@@  @@@@@@@@@@+++  o...o.O",
"OO.oo @@@@@@@@@@@     @@@@@@@@@@@@@@@@  @@@@@@@@@@@@+++++ oooo.O",
"...OO @@@@@@@@@@@@@@@  @@@@@@@@@@@@@@ @@@@@@@@@@@@@@@+++++ ooo..",
"oo.. @@@@@@@@@@@@@@@@@   @@@@@@@@@@@ @@@@@@@@@@@@@@@@+++++ ooo..",
"ooo. @@@@@@@@@@@@@@@@@@@  @@@@@@@@@@ @@@@@@@@@@@@@@@@@+++++ o.oo",
"ooo @@@@@@@@@@@@@@@@@@@@@ @@@@@@@@@@@@@@@@@@@@@@@@@@@@@++++ .ooo",
"ooo @@@@@@@@@@@@@@@@@@@@@@@@@@@@@@@@@@@@@@@@@@@@@@@@@@@+++++ ooo",
"ooo @@@@@@@@@@@@@@@@@@@@@@@@@@@@@@@@@@@@@@@@@@@@@@@@@@@@++++ ooo",
"oo @@@@@@@@@@@@@@@@@@@@@@@@@@@@@@@@@@@@@@@@@@@@@ @@@@@@@+++++ oo",
"oo @@@@@@@@@@@@@@@@@@@@@@@@@@@@@@@@@@@@@@@@@@@@@ @@@@@@@+++++ oo",
"ooo @@@@@@@@@@@@@ @@@@@@@@@@@@@@@@@@@@@@@@@@@@@ +@@@@@@@@++++ oo",
"ooo @@@@@@@@@@@@@+  @@@@@@@@@@@@@@@@@@@@@@@@@@ +@@@@@@@@@++++ oo",
"ooo o@@@@@@@@@@@@@@+ @@@@@@@@@@@@@@@@@@@@@@@@@ +@@@@@@@@+++++ OO",
"oooo @@@@@@@@@@@@@@ #  @@@@@@@@@@@@@@@@@@@@@@ +@@@@@@@@@+++++ ..",
"ooO.. @@@@@@@@@@@@@ ###    @@@@@@@@@@@@@@@@  +@@@@@@@@@@+++++ X.",
"OO..O @@@@@@@@@@@@@ ## ++++      @@@@@@@@  # +@@@@@@@@@++++++ X.",
"..oo.O @@@@@@@@@@@@@ # +@@@++++++        ### +@@@@@@@@++++++ XX.",
"ooooo.O @@@@@@@@@@@@ # +@@@@@@@@@+++++++ ## +@@@@@@@@++++++  XX.",
"oooooo.O @@@@@@@@@@@@ +@@@@@@@@@@@@@@@@@@ # +@@@@@@+++++++  XXX.",
"ooooooo.O @@@@@@@@@@@@@@@@@@@@@@@@@@@@@@@ # +@@@@++++++    XXX.o",
"ooooooo.OO   ++++@@@@@@@@@@@@@@@@@@@@@@@@@ +@+++++++++  XXXXXX.o",
"oooooooo.OOO.                                         XXXXXXOO.o",
"ooooooooo..O.XXXXXXX.OOooooOO.ooooooooooo.OO.oooooooo.OXXXXOOO.o",
"oooooooooo.O.XXXXXXXX.OOoOOO.oooooooooooo..O.oooooooo.OOXOOOO.oo",
"oooooooooo..XXXXXXXXXX.OO...oooooooooooo.ooooooooooooo.OOO...ooo"
};
