/* XPM */
static const char *items_2[] = {
/* columns rows colors chars-per-pixel */
"64 64 13 1 ",
"  c black",
". c #260A0A",
"X c #2E4313",
"o c #44631E",
"O c #7C422E",
"+ c #A95E22",
"@ c #B66424",
"# c #E8771B",
"$ c #FFB931",
"% c #FD9441",
"& c #E3C275",
"* c #FFE096",
"= c white",
/* pixels */
"oooooooo..XXXXXXXXXXXXXX.ooooooooooooooo..oooooooooooo.....ooooo",
"ooooooo.o.XXXXXXXXXXXXXX.oooooooooooooo.X.ooooooooooooo.oooooooo",
"ooooooo.o.OXXXXXXXXXXXXX.oooooooooooooo.X.Ooooooooooooo.oooooooo",
"ooooOO..o..OXXXXXXXXXO...OooooooooooOO.XXX.OoooooooooO...Ooooooo",
"ooooO.oooo..OOOOXXXXO.ooo.OoooooooooO.XXXXX.OOOOooooO.ooo.Oooooo",
"ooOOO.ooooo.O..OOXOOO.oooo.OOOOoooOOO.XXXXX.O..OOoOOO.oooo.OOOOo",
"oOO..ooooooo.oo.OOO..ooooo           XXXXXXX.XX.OOOO.ooooo.O...O",
"OO.oooooooooooo.OO.ooo    =========.=   XXXXXXX.OOO.ooooooo.oo.O",
"...ooooooooooooo..oo  ======o============  XXXXX...ooooooooooo.O",
"XX.OOoooooooooooo.  ================O=X==X=X XXXX.oooooooooooo..",
"XXX.Oooooooooooo  =====o================X==X=  XX.OOoooooooooo..",
"XXX.OOOoooooO.. =====o================O========..o.OOoooooooo.XX",
"XXXX.OOooooO.o =o======o==o==O=O==O============= oo.OOoooooO.XXX",
"XXXXX.OOoooO  ======o==o===O         .===========  o.OOooOOO.XXX",
"XXXXXX.OOOO =====o======   @@@#O@@@@@   ====.====o= o.OOoOO.XXXX",
"XXXXXXX.OO =======o===  ###@@@@@@@#@@#@#  ========== o.OOO.XXXXX",
"XXXXXXXX.. =======o=  #.#.@@@@#@@@@#O#@@@#  ======== o....OXXXXX",
"XXXXXXX.o.========= ######O@@@@O@#@@##@@@@@@ ======== o.o.OOXXXX",
"XXXXXX.o ========  ###o.++##@    @@###++++@@@  ======= .oo.OOXXX",
"XXXXX.o ======o= ###+++####  %%%%  ##+++++++@@@ ======. ooo.OOOO",
"XXXXX.o ======= ###+@#@### %%%  %%%  ##+++++##@@ ====.= ooo.O...",
"XXOO.o ====.=== @#+@@@@@X %%% ==   %% ##+++++@@@ ===O=== ooo.oo.",
"OOO.Oo ======= @@++@#X@  %%  ======  % ##+++.#@@# ==.=== oooooo.",
"....O ======= @@#+#### %%% ==     === % ##++@@@#@@ ====o= ooooo.",
"OOOO. ====o== @@@@##  %%%  = $$$$$ == %% #@@@@@@#@ ====== ooooo.",
"OOOO ====o== @#@@@@ %%%  == $$$$$$$ =  %%  @@@@@@@@ ====o= oooo.",
"OOOO ====o== @@@@  %%% === $$$$$$$$ === %%%  @@@@@# =o==== ooo.O",
"OOOO ====== #@@@ %%%% ==== $$$$$$$$ ==== %%%% @@#@## o==== ooo.O",
"OOOOOO===== @@# %%%%%% ==== $$$$$$ ===== %%%%% @@@@# ===== oOO.O",
"OOOO======= @@@ %% %%%%=====      ===== %%%%%%%  @@# ====== O.OO",
"OOO =O==== #@@@ %%%  %%  ============  %%%%%%%%% @@@# ====O .OOO",
"OOO ==O=OO @@@@ %%%%% %%%  =====  =  %%% %%%%+&+ #@@@X==O.= OOOO",
"OOO O===== #@@@ %*%%%% %%%%  == %% %%%  %%%%+&&+ @@@# ===== OOOO",
"OOO =====. ooo@ %***%%%   %%%  %%%%%  %%%%&++&&+ @@## ===== OOOO",
"OOO ===.o= @@@@ %***%%%%%%%%%%%%%%  %%%%&&+++&&& @### ===== OOOO",
"OOO ====== O@  *%****%%%%%%%%%%%  %%%%%&&&+++&&& X### ===O= OOOO",
"OOO =.==== #@***%****% %**%%%%%%%%%%%%+&&&+++&&&  #X# ==.=O OOOO",
"OOO ==oo== #@**%%****% *%***%%%%%%%%%++&&&+++&&&&     =o==OOOOOO",
"OOO ====o= #@   %***% ** *****%% %+++++&&&&++&&&&&&& o===== O.OO",
"OOO ==o=== @@@@  ***% ** ******% +++&++&&&&++&&&&&&   ===== .o.O",
"OO.o ====== @@@@ **%%*  ******%%* ++&&&&&&&&+&&&&& # ===== ooo.O",
"...O =====o @@@@   %**********%%* ++&&&&&&&&++&&  ## ===o= ooo..",
"oo.. ====== @@#@@@#    *******%%* +++&&&&&&&     @## ===== ooo..",
"ooo. ==o==== @#@@@#@@@@ ******%%* +++&&&&&  ####@@@ ====== oo.oo",
"oooo. ====== @#@@+#@#@@ ******%%* +++&&&&& ####o@@@ ==o=o oO.ooo",
"ooooo ======= @#@++@@#@ *****%%%%* +++&&&& O#++#@@ =o====OOO.ooo",
"oooooo =O===. @@@@+++@@ *****%%%%%*+++&   ##+++#@o ==.=O O..oooo",
"oooooo ==OO=== o@@+o++@@  ***%%%%%*++   ##O+++###oo===.=OO.ooooo",
"ooooooo ======= @@+o+++@@.       %%*  ####+#++## ====== ..Oooooo",
"ooooooo.======= @@@@+++@@@@##@@@ %%% ###++#+#### =o==== X.OOoooo",
"oooooo.X ======= @@@@o@@@@@@@@#@     #+++#+o### ====o= .XX.OOooo",
"ooooo.XXX ======= o@#@@@o#@@@@@@@+X++++##+###  =====O .XXXX.OOOO",
"ooooo.XXXXX======== #@@@#+@.@@@@@@@@@@@+++## ======= .XXXXX.O...",
"ooO..XXXXX =O=======  @o#+++@#@@++++++++#o  ======== .XXXXXX.XX.",
"OO..OXXXXXX ====O=====o ###++++++######o  ========= .XXXXXXXXXX.",
"..oo.OXXXXXX  =======o==   ##########   ========O  XXXXXXXXXXXX.",
"ooooo.OXXXXXXX ===========o o        .O========= .XXXXXXXXXXXXX.",
"oooooo.OXXXXXXXX=.==o======oo================== o.XXXXXXXXXXXXX.",
"ooooooo.OXXXOOOO  ==========o================  OO..XXXXXXXXXXX.o",
"ooooooo.OOXOO....X  ======o===.==o===o=====  O...oo.OXXXXXXXXX.o",
"oooooooo.OOO.XXXXXX.  ===================  OO.oooooo.OXXXXXXOO.o",
"ooooooooo..O.XXXXXXX.O    ======o====    .OO.oooooooo.OXXXXOOO.o",
"oooooooooo.O.XXXXXXXX.OOoO       o   oooo..O.oooooooo.OOXOOOO.oo",
"oooooooooo..XXXXXXXXXX.OO...oooooooooooo.ooooooooooooo.OOO...ooo"
};
