/* XPM */
static const char *items_1[] = {
/* columns rows colors chars-per-pixel */
"64 64 13 1 ",
"  c black",
". c #260A0A",
"X c #2E4313",
"o c #44631E",
"O c #7C422E",
"+ c #A95E22",
"@ c #B66424",
"# c #E8771B",
"$ c #FFB931",
"% c #FD9441",
"& c #E3C275",
"* c #FFE096",
"= c #FFFFFE",
/* pixels */
"oooooooo..XXXXXXXXXXXXXX.ooooooooooooooo..oooooooooooo.....ooooo",
"ooooooo.o.XXXXXXXXXXXXXX.oooooooooooooo.X.ooooooooooooo.oooooooo",
"ooooooo.o.OXXXXXXXXXXXXX.oooooooooooooo.X.Ooooooooooooo.oooooooo",
"ooooOO..o..OXXXXXXXXXO...O           O.XXX.OoooooooooO...Ooooooo",
"ooooO.oooo..OOOOXXXXO.    =========o=   XXX.OOOOooooO.ooo.Oooooo",
"ooOOO.ooooo.O..OOXOO  ======O============  .O..OOoOOO.oooo.OOOOo",
"oOO..ooooooo.oo.OO  ================.=X==X=X XX.OOOO.ooooo.O...O",
"OO.oooooooooooo.  =====o================X==X=  .OOO.ooooooo.oo.O",
"...oooooooooooo =====o================X========X...ooooooooooo.O",
"XX.OOooooooooo =o======o==o==o=.==.============= .oooooooooooo..",
"XXX.Oooooooo  ======o==o===o         X===========  Ooooooooooo..",
"XXX.OOOoooo =====o======   @@@#O@@@@@   ====O====o= Ooooooooo.XX",
"XXXX.OOooo =======o===  ###@@@@@@@#@@#@#  ========== OoooooO.XXX",
"XXXXX.OOoo =======o=  #o#O@@@@#@@@@#O#@@@#  ======== OOooOOO.XXX",
"XXXXXX.OOO========= ######O@@@@O@#@@##@@@@@@ ======== OOoOO.XXXX",
"XXXXXXX. ========  ###.O++##@    @@###++++@@@  ======= OOO.XXXXX",
"XXXXXXX ======o= ###+++####  %%%%  ##+++++++@@@ ======. ..OXXXXX",
"XXXXXXX ======= ###+@#@### %%%  %%%  ##+++++##@@ ====o= o.OOXXXX",
"XXXXXX ====o=== @#+@@@@@X %%% ==   %% ##+++++@@@ ===o=== o.OOXXX",
"XXXXX. ======= @@++@#O@  %%  ======  % ##+++O#@@# ==O=== oo.OOOO",
"XXXXX ======= @@#+#### %%% ==     === % ##++@@@#@@ ====o= o.O...",
"XXOO. ====o== @@@@##  %%%  = $$$$$ == %% #@@@@@@#@ ====== oo.oo.",
"OOO. ====o== @#@@@@ %%%  == $$$$$$$ =  %%  @@@@@@@@ ====o= oooo.",
".... ====o== @@@@  %%% === $$$$$$$$ === %%%  @@@@@# =o==== oooo.",
"OOOO ====== #@@@ %%%% ==== $$$$$$$$ ==== %%%% @@#@## o==== oooo.",
"OOOOO.===== @@# %%%%%% ==== $$$$$$ ===== %%%%% @@@@# ===== oooo.",
"OOOO======= @@@ %% %%%%=====      ===== %%%%%%%  @@# ====== oo.O",
"OOO =O==== #@@@ %%%  %%  ============  %%%%%%%%% @@@# ====o oo.O",
"OOO ==O=.O @@@@ %%%%% %%%  =====  =  %%% %%%%+&+ #@@@O==oo= OO.O",
"OOO O===== #@@@ %*%%%% %%%%  == %% %%%  %%%%+&&+ @@@# ===== O.OO",
"OOO =====O O.o@ %***%%%   %%%  %%%%%  %%%%&++&&+ @@## ===== .OOO",
"OOO ===OO= @@@@ %***%%%%%%%%%%%%%%  %%%%&&+++&&& @### ===== OOOO",
"OOO ====== o@  *%****%%%%%%%%%%%  %%%%%&&&+++&&& X### ===.= OOOO",
"OOO =O==== #@***%****% %**%%%%%%%%%%%%+&&&+++&&&  #X# ==O=O OOOO",
"OOO ==O.== #@**%%****% *%***%%%%%%%%%++&&&+++&&&&     =.==OOOOOO",
"OOO ====o= #@   %***% ** *****%% %+++++&&&&++&&&&&&& O===== OOOO",
"OOO ==o=== @@@@  ***% ** ******% +++&++&&&&++&&&&&&   ===== OOOO",
"OOOO ====== @@@@ **%%*  ******%%* ++&&&&&&&&+&&&&& # ===== OOOOO",
"OOOO =====o @@@@   %**********%%* ++&&&&&&&&++&&  ## ===o= OO.OO",
"OOO. ====== @@#@@@#    *******%%* +++&&&&&&&     @## ===== ..o.O",
"OO.o ==o==== @#@@@#@@@@ ******%%* +++&&&&&  ####@@@ ====== ooo.O",
"...OO ====== @#@@+#@#@@ ******%%* +++&&&&& ####O@@@ ==o=o oooo..",
"oo..O ======= @#@++@@#@ *****%%%%* +++&&&& O#++#@@ =o====ooooo..",
"ooo.OO =o===O @@@@+++@@ *****%%%%%*+++&   ##+++#@o ==o=o oooo.oo",
"oooo.. ==oo=== o@@+o++@@  ***%%%%%*++   ##O+++###oo===o=oooO.ooo",
"ooooo.O ======= @@+o+++@@O       %%*  ####+#++## ====== oOOO.ooo",
"oooooo.O======= @@@@+++@@@@##@@@ %%% ###++#+#### =o==== oO..oooo",
"ooooooo. ======= @@@@o@@@@@@@@#@     #+++#+.### ====o= OOO.ooooo",
"ooooooo.. ======= o@#@@@O#@@@@@@@+X++++##+###  =====o ....Oooooo",
"ooooooo.X.O======== #@@@#+@O@@@@@@@@@@@+++## ======= oo.X.OOoooo",
"oooooo.XX. =o=======  @.#+++@#@@++++++++#.  ======== oo.XX.OOooo",
"ooooo.XXXX. ====o=====. ###++++++######o  ========= OO.XXXX.OOOO",
"ooooo.XXXXX.  =======.==   ##########   ========O  oO.XXXXX.O...",
"ooO..XXXXXX.O. ===========o .        oo========= oOOO.XXXXXX.XX.",
"OO..OXXXXXXX.XX.=O==.======oo================== OOO..XXXXXXXXXX.",
"..oo.OXXXXXXXXX.  ==========o================  .OO.XXXXXXXXXXXX.",
"ooooo.OXXXXXXXXX..  ======o===o==o===.=====  ooo..XXXXXXXXXXXXX.",
"oooooo.OXXXXXXXXX.oo  ===================  oooooo.XXXXXXXXXXXXX.",
"ooooooo.OXXXOOOOO.oooo    ======o====    oooOOOOO..XXXXXXXXXXX.o",
"ooooooo.OOXOO....X.OOooooo       o   oo.OOoOOO...oo.OXXXXXXXXX.o",
"oooooooo.OOO.XXXXXX.OOooooooOO.ooooooooo.OOOO.oooooo.OXXXXXXOO.o",
"ooooooooo..O.XXXXXXX.OOooooOO.ooooooooooo.OO.oooooooo.OXXXXOOO.o",
"oooooooooo.O.XXXXXXXX.OOoOOO.oooooooooooo..O.oooooooo.OOXOOOO.oo",
"oooooooooo..XXXXXXXXXX.OO...oooooooooooo.ooooooooooooo.OOO...ooo"
};
