/* XPM */
static const char *items[] = {
/* columns rows colors chars-per-pixel */
"64 64 52 1 ",
"  c black",
". c #010000",
"X c #000100",
"o c #000001",
"O c #010001",
"+ c #000101",
"@ c #080100",
"# c #090100",
"$ c #090001",
"% c #080101",
"& c #090101",
"* c #260A0A",
"= c #270A0A",
"- c #260B0A",
"; c #270B0A",
": c #260A0B",
"> c #270A0B",
", c #260B0B",
"< c #270B0B",
"1 c #3E0606",
"2 c #3F0606",
"3 c #3E0706",
"4 c #3F0706",
"5 c #3E0607",
"6 c #3F0607",
"7 c #3E0707",
"8 c #3F0707",
"9 c #44221A",
"0 c #45221A",
"q c #44231A",
"w c #45231A",
"e c #44221B",
"r c #45221B",
"t c #44231B",
"y c #45231B",
"u c #483118",
"i c #483119",
"p c #7C422E",
"a c #7D422E",
"s c #7C432E",
"d c #7D432E",
"f c #7C422F",
"g c #7D422F",
"h c #7C432F",
"j c #7D432F",
"k c #77662A",
"l c #77662B",
"z c #77672B",
"x c #969832",
"c c #979832",
"v c #979833",
"b c None",
/* pixels */
"666666;;;;;66666666666;b;;;66666666666;;;;;6666b666666;;b;;6b666",
"6666666;;;666666666666b;;;6666b66666666;;;6666666b66666;;;666666",
"6666666;6;p666666666666;;6666b666666666;6;p6666666b6666;;6666666",
"6666pp;b6;;p6b6666666p;;;pb666666666pp;;6;;p666666666p;;;pbb6b66",
"666bp;b666;;pbpb666bp;66;;p666666666p;b666;;pppp6666pb66;;pb6666",
"66ppp;66666;b;;;p6ppp;666;;bppp666ppb;66666;p;;;p6ppp;b6b;;pppp6",
"6pp;;666b66;;;6;ppp;;66666;p;;;p6pp;;666666;;;6;ppp;;66666;p;;;p",
"pp;;66666666666;pp;;666666;;;6;pppb;66666666666;pp;;b66666;;;6;p",
";;;6b66b6666b66;;;;66666666666;b;;;666b66666666;;;;6666666b666;p",
";;;pp66666666b666;666666666666;;;b;pp66666b666666;666666666666;;",
";6;;p66666666666;;;p666666666;;;;6;;p66666666666;;;p666666666;;;",
"666;ppp6b666p;;;;6;;p6666666;;b6666;ppp66666p;;;;b;;p6666666;;6b",
"6666b;p6666p;;66b66b;p6b666pb6666666;;p6666p;;666b6;;p66666p;666",
"66666;pp666p;666b666;bp66ppp;6666666b;pp666b;6666666;;p66ppp;666",
"666666;ppbpp;66b66666;pp6p;b6666666666;ppppp;66666666;pp6p;;6666",
"6666b6;;;p;;66666666b6;ppp;66666666666;;;p;;6666666666;pbp;66666",
"6666$$$$$$$$$$$$$$$$$$$$$$$$$$$$$$$$$$$$$$$$$$$$$$$$$$$$$$$ 66bb",
"6666$;6yyyyyyyyyyyyyyyyyyyyyyyyyyyyyyyyyyyyyyyyyyyyyyyyyy6; 6666",
"6666$;6yyyyyyyyyyyyyyyyyyyyyyyyyyyyyyyyyyyyyyyyyyyyyyyyyy6; p666",
"6b6b$;6yyyyyyyyyyyyyyyyyyyyyyyyyyyyyyyyyyyyyyyyyyyyyyyyyy6; pppp",
"6666 ;;;;;;;;;;;;;;;;;;;;;;;;;;;;;;;;;;;;;;;;;;;;;;;;;;;;;; p;;;",
"66p; ;6yyyyyyyyyyyyyyyyyyyyyyyyyyyyyyyyyyyyyyyyyyyyyyyyyy6; ;;6;",
"pp;; ;6yyyyyyyyyyyyyyyyyyyyyyyyyyyyyyyyyyyyyyyyyyyyyyyyyy6; bb6;",
";;;; ;6yyyyyyyyyyyyyyyyyyyyyyyyyyyyyyyyyyyyyyyyyyyyyyyyyy6; 66b;",
";;;6 ;6yyyyyyyyyyyyyyyyyyyyyyyyyyyyyyyyyyyyyyyyyyyyyyyyy66; 666;",
"6666 ;6yyyyyyyyyyyyyyyyyyyyyyyyyyyyyyyyyyyyyyyyyyyyyyyy666; 666;",
"6666 ;6yyyyyyyyyyyyyyyyyyyyyyyyyyyyyyyyyyyyyyyyyyyyyyy6666; 66;b",
"6666 ;;;;;;;;;;;;;;;;;;;;;;;;;;;;;;;;;;;;;;;;;;;;;;;;;;;;;; 66;6",
"6b66 ;6yyyyyyyyyyyyyyyyyyyyyyyyyyyyyyyyyyyyyyyyyyyyyy66666; pp;6",
"6666 ;6yyyyyyyyyyyyyyyyyyyyyyyyyyyyyyyyyyyyyyyyyyyy6666666; ;;;6",
"p666 ;66yyyyyyyyyyyyyyyyyyyyyyyyyyyyyyyyyyyyyyyyyy66666666; ;;66",
";ppp ;666yyyyyyyyyyyyyyyyyyyyyyyyyyyyyyyyyyyyyyy6666666666; ;666",
";;;; ;6666yyyyyyyyyyyyyyyyyyyyyyyyyyyyyyyyyyyyy66666666666; 6666",
"6666 ;666666yyyyyyyyyyyyyyyyyyyyyyyyyyyyyyyyy6666666666666; 6bb6",
"666b ;;;;;;;;;;;;;;;;;;;;;;;;;;;;;;;;;;;;;;;;;;;;;;;;;;;;;; 6666",
"6666                                                        6666",
"6666 ;;;;;;;;;;;;;;;;;;;;;;;;;;;;;;;;;;;;;;;;;;;;;;;;;;;;;; 6666",
"66pb ;6666666666666666666666666666666666666666666666666666; ppp6",
"6pb; ;6666666666666666666666$ $$$$$66666666666666666666666; ;;;p",
"pp;; ;6666yyyyyyyyyyyyyyyyyy$clllu$yyyyyyyyyyyyy6666666666; ;6;p",
";;;6 ;;;;;;;;;;;;;;;;;;;;;;;$clllu$;;;;;;;;;;;;;;;;;;;;;;;; 66;p",
";;;p ;6666yyyyyyyyyyyyyyyyyy$cl$lu$yyyyyyyyyyyyy6866666666; 66;;",
";6;; ;6666yyyyyyyyyyyyyyyyyy$cl$lu$yyyyyyyyyyyyy6666666666; 6;b;",
"6b6; ;6666yyyyyyyyyyyyyyyyyy$cl$lu$yyyyyyyyyyyyy6666666666;$;;66",
"6666 ;6666yyyyyyyyyyyyyyyyyyy$ulu$yyyyyyyyyyyyyy6666666666;$;666",
"6666 ;6666yyyyyyyyyyyyyyyyyyyy$$$yyyyyyyyyyyyyyy6666666666;$;666",
"6666 ;6666yyyyyyyyyyyyyyyyyyyyyyyyyyyyyyyyyyyyyy6666666666;$6666",
"b6b6 ;6666yyyyyyyyyyyyyyyyyyyyyyyyyyyyyyyyyyyyyy6666666666;$6b66",
"6666 ;6666yyyyyyyyyyyyyyyyyyyyyyyyyyyyyyyyyyyyyy6666666666;$6666",
"6b6b$;;;;;;;;;;;;;;;;;;;;;;;;;;;;;;;;;;;;;;;;;;;;;;;;;;;;;;$666b",
"6b66 ;6666yyyyyyyyyyyyyyyyyyyyyyyyyyyyyyyyyyyyyy6666666666;$p666",
"6666 ;6666yyyyyyyyyyyyyyyyyyyyyyyyyyyyyyyyyyyyyy6666666666;$pppp",
"6666 ;6666yyyyyyyyyyyyyyyyyyyyyyyyyyyyyyyyyyyyyy6666666666;$p;;;",
"66pb$;6666yyyyyyyyyyyyyyyyyyyyyyyyyyyyyyyyyyyyyy6666666666;$b;bb",
"pp;;$;6666yyyyyyyyyyyyyyyyyyyyyyyyyyyyyyyyyyyyyy8866666666;$666;",
";;;;$;6666yyyyyyyyyyyyyyyyyyyyyyyyyyyyyyyyyyyyyy6666666666;$666;",
";;bb$;6666yyyyyyyyyyyyyyyyyyyyyyyyyyyyyyyyyyyyyy6666666666;$666;",
"6666$;6666yyyyyyyyyyyyyyyyyyyyyyyyyyyyyyyyyyyyyy6666666666;$666;",
"6666$;;;;;;;;;;;;;;;;;;;;;;;;;;;;;;;;;;;;;;;;;;;;;;;;;;;;;;$66;6",
"6666           $$$$$$$$$$$$$$$$$$$$$$$$$$$$                 66;6",
"6b666b66;bpb;;66b66;;pb66666pp;666666666;ppp;;66666;;p666666pp;6",
"66b666b6;;bp;666666b;;p6666p;;b666666666;;;p;6666666;;p6b66p;;;6",
"6666b6666;;p;6666b66b;pp6ppp;;6666666b666b;b;66666666;pp6pppb;66",
"666666666;;;6666666666;pp;;;;6b66b666b666;;;6666666666;pp;;;;666"
};
