/* XPM */
static const char *player_down_1[] = {
/* columns rows colors chars-per-pixel */
"64 64 9 1 ",
"  c black",
". c #270B0B",
"X c #3F0707",
"o c #372009",
"O c #77450F",
"+ c #7C422E",
"@ c #473B78",
"# c #E3C0A1",
"$ c #FFFEFE",
/* pixels */
"XXXXXX.....XXXXXXXXXXX.....XXXXXXXXXXX.....XXXXXXXXXXX.....XXXXX",
"XXXXXXX...XXXXXXXXXXXXX...XXXXXXXXXXXXX...XXXXXXXXXXXXX...XXXXXX",
"XXXXXXX.X.+XXXXXXXXXXXX..XXXXXXXXX   XX.X.+XXXXXXXXXXXX..XXXXXXX",
"XXXX++..X..+XXXXXXXXX+...+X       OOO  .X..+XXXXXXXXX+...+XXXXXX",
"XXXX+.XXXX..++++XXXX+.XX.. OOOOOOOOOOOO XX..++++XXXX+.XX..+XXXXX",
"XX+++.XXXXX.+...+X+++.XXX OOOOOOOOOOOOOO XX.+...+X+++.XXX..++++X",
"X++..XXXXXX...X.+++..XXX OOOOOOOOOOOOOOOO X...X.+++..XXXXX.+...+",
"++..XXXXXXXXXXX.++..XXX OOOOOOOOOOOOOOOOOO XXXX.++..XXXXXX...X.+",
"...XXXXXXXXXXXX....XXXX OOOOOOOOOOOOOOOOOOO XXX....XXXXXXXXXXX.+",
"...++XXXXXXXXXXXX.XXXXX OOOOOOOOOOOOOOOOOOO XXXXX.XXXXXXXXXXXX..",
".X..+XXXXXXXXXXX...+XX OOOOOOOOOOOOOOOOOOOO XXXX...+XXXXXXXXX...",
"XXX.+++XXXXX+....X..+ OO OOOOO OOOOO OOOO O +....X..+XXXXXXX..XX",
"XXXX..+XXXX+..XXXXX.. OOO OOOO OOOO OOOO OO ..XXXXX..+XXXXX+.XXX",
"XXXXX.++XXX+.XXXXXXX. OOO OOO OOOOO OOO  OO .XXXXXXX..+XX+++.XXX",
"XXXXXX.+++++.XXXXXXXX. O OOO  OO   OO  # OO .XXXXXXXX.++X+..XXXX",
"XXXXXX...+..XXXXXXXXXX. OOO # O ###  ####  .XXXXXXXXXX.+++.XXXXX",
"XXXXXXX....XXXXXXXXXXX OO  ##  ####  #### # XXXXXXXXXX....+XXXXX",
"XXXXXXX.X.+XXXXXXXXXX    ####  ####  ###### XXXXXXXXXXX...++XXXX",
"XXXXXX..X.+XXXXXXXXX OO # ###  ####  #### # XXXXXXXXXXX.X..++XXX",
"XXXXX.XXX..++XXXXXX OOOO  ###  ####  ####  ++XXXXXXX++..XX..++++",
"XXXXX.XXXX..+++++XX OOOO  ############### ..+++++XXX+.XXXXX.+...",
"XX+..XXXXXX.+...+X OOO    ############### X.+...+X+++.XXXXX...X.",
"++..+XXXXXX...X.++    XXXX #############  X...X.+++..XXXXXXXXXX.",
".....+XXXXXXXXX.+ ..XXXX    ########### @ XXXXX.++..XXXXXXXXXXX.",
"...X..+XXXXXXXX....XXXX @@@@           @@@ XXXX....XXXXXXXXXXXX.",
"XXXXX..+XXXXXXXXX.XXXXX @@@@@@@@@@@@@@@@@@ XXXXXX.XXXXXXXXXXXXX.",
"XXXXXX..+XXX++++...XXX  @@@@@@@@@@@@@@@@@@ X++++...XXXXXXXXXXX.X",
"XXXXXXX.++X++....X..+ @ @@@@@@@@@@@@@@@@@ X++....X..+XXXXXXXXX.X",
"XXXXXXXX.+++..XXXXX. @@@  @@@@@@@@@@@@@@ @ +..XXXXX..+XXXXXX++.X",
"XXXXXXXX...+.XXXXXXX @@@@@              @@@ .XXXXXXX..+XXXX+...X",
"+XXXXXXXX..+.XXXXXX @@@@@@@@@@@@@ @@@@@@@@@ .XXXXXXXX.++X+++..XX",
".++++++++...XXXXXXX @@@@@@@@@@@@@ @@@@@@@@@@ XXXXXXXXX.++....XXX",
"...........XXXXXXX @@@@@@@@@@@@@@ @@@@@@@@@@ XXXXXXXXX.....XXXXX",
"XXXXXXX...XXXXXXXX @@@@@@@@@@@@@@ @@@@@@@@@@ XXXXXXXXXX...XXXXXX",
"XXXXXXX.X.+XXXXXX @@@@@@@@@@@@@@@ @@@@@@@@@@@ XXXXXXXXX..XXXXXXX",
"XXXX++..X..+XXXXX @@@@ @@@@@@@@@ $ @@@@@@@@@@ XXXXXXX+...+XXXXXX",
"XXXX+.XXXX..++++ @@@@@ @@@@@@@@@ $ @@@@@@@@@@ ++XXXX+.XX..+XXXXX",
"XX+++.XXXXX.+... @@@@@ @@@@@@@@ $$ @@@@@@@@@@ ..+X+++.XXX..++++X",
"X++..XXXXXX...X. @@@@@ @@@@@@@@ $  @@@@@@@@@@ X.+++..XXXXX.+...+",
"++..XXXXXXXXXXX. @@@@@ @@@@@@@ $ o @@@@@@@@@@@ .++..XXXXXX...X.+",
"...XXXXXXXXXXXX. @@@@@ @@@@@@@  oo @@@@@@@@@@@ ....XXXXXXXXXXX.+",
"...++XXXXXXXXXXX @@@@ @@@@@@@@ oo  @@@@@@@@@@@ XX.XXXXXXXXXXXX..",
".X..+XXXXXXXXXX @@@@@ @@@@@@@ oo $$ @@@@@@@@@@@ ...+XXXXXXXXX...",
"XXX.+++XXXXX+.. @@@@@ @@@@@@@ o $$$ @@@@@@@@@@@ .X..+XXXXXXX..XX",
"XXXX..+XXXX+..X @@@@@ @@@@@@@       @@@@@@@@@@@ XXX..+XXXXX+.XXX",
"XXXXX.++XXX+.X @@@@@@ @@@@@@@ $$$ $$ @@@@@@@@@@@ XXX..+XX+++.XXX",
"XXXXXX.+++++.X @@@@@ @@@@@@@@ $$$ $$ @@@@@@@@@@@ XXXX.++X+..XXXX",
"XXXXXX...+..X @@@@@@ @@@@@@@@ $$$ $$ @@@@@@@@@@@@ XXXX.+++.XXXXX",
"XXXXXXX....XX @@@@@ @@@@@@@@          @@@@@@@@@@@ XXXX....+XXXXX",
"XXXXXXX.X.+X @@@@@@ @@@@@@@@ $$$$ $$$ @@@@@@@@@@@ XXXXX...++XXXX",
"XXXXXX..X.+X @@@@@ @@@@@@@@@ $$$$ $$$$ @@@@@@@@@@ XXXXX.X..++XXX",
"XXXXX.XXX..+ @@@@@ @@@@@@@@@ $$$$ $$$$ @@@@@@@@@@ XX++..XX..++++",
"XXXXX.XXXX.  @@@@@ @@@@@@@@             @@@@@@@@@@ X+.XXXXX.+...",
"XX+..XXXXXX @@@@@ @@@@@@@@@ ooooo ooooo @@@@@@@@@@ ++.XXXXX...X.",
"++..+XXXXXX @@@@@ @@@@@@@@ oooooo oooooo @@@@@@@@@ ..XXXXXXXXXX.",
".....+XXXX @@@@@ @@@@@@@@ ooooooo oooooo @@@@@@@@@@ XXXXXXXXXXX.",
"...X..+XX @@@@@ @@@@@@@@@ ooooooo ooooooo @@@@@@@@@@ XXXXXXXXXX.",
"XXXXX..+XX  @@ @@@@@@@@@ ooooooo    oooooo @@@@@@@@@@ XXXXXXXXX.",
"XXXXXX..+XXX  @@@@@@@@@ oooooo  XXXX   oooo @@@@@@@@@@ XXXXXXX.X",
"XXXXXXX.++X++.  @@@@@@ X      .XXXXXXXX        @@@@@@@ XXXXXXX.X",
"XXXXXXXX.+++..XX      XXXXXX++.XXXXXXXXX.+++..X       XXXXXX++.X",
"XXXXXXXX...+.XXXXXXX..+XXXX+...XXXXXXXXX...+.XXXXXXX..+XXXX+...X",
"XXXXXXXXX..+.XXXXXXXX.++X+++..XXXXXXXXXXX..+.XXXXXXXX.++X+++..XX",
"XXXXXXXXX...XXXXXXXXXX.++....XXXXXXXXXXXX...XXXXXXXXXX.++....XXX"
};
