/* XPM */
static const char *player_down_2[] = {
/* columns rows colors chars-per-pixel */
"64 64 9 1 ",
"  c black",
". c #270B0B",
"X c #3F0707",
"o c #372008",
"O c #77450F",
"+ c #7C422E",
"@ c #473B78",
"# c #E3C0A1",
"$ c #FFFFFE",
/* pixels */
"XXXXXX.....XXXXXXXXXXX.....XXXXXXXXXXX.....XXXXXXXXXXX.....XXXXX",
"XXXXXXX...XXXXXXXXXXXXX...XXXXXXXXXXXXX...XXXXXXXXXXXXX...XXXXXX",
"XXXXXXX.X.+XXXXXXXXXXXX..XXXXX X XXXXXX.X.+XXXXXXXXXXXX..XXXXXXX",
"XXXX++..X..+XXXXXXXXX+...+XXXXX O     ..X..+XXXXXXXXX+...+XXXXXX",
"XXXX+.XXXX..++++XXXX+.XX..     OOOOOOO XXX..++++XXXX+.XX..+XXXXX",
"XX+++.XXXXX.+...+X+++.XXX OOOOOOOOOOOOO  XX.+...+X+++.XXX..++++X",
"X++..XXXXXX...X.+++..XXX OOOOOOOOOOOOOOOO X...X.+++..XXXXX.+...+",
"++..XXXXXXXXXXX.++..XXX OOOOOOOOOOOOOOOOOO XXXX.++..XXXXXX...X.+",
"...XXXXXXXXXXXX....XXXX OOOOOOOOOOOOOOOOOOO XXX....XXXXXXXXXXX.+",
"...++XXXXXXXXXXXX.XXXXX OOOOOOOOOOOOOOOOOOO XXXXX.XXXXXXXXXXXX..",
".X..+XXXXXXXXXXX...+XX OOOOOOOOOOOOOOOOOOOO XXXX...+XXXXXXXXX...",
"XXX.+++XXXXX+....X..+ OOOOOOOOOOOOOOOOOOOOO +....X..+XXXXXXX..XX",
"XXXX..+XXXX+..XXXXX.. OOOOO OOO OOOO OOOO O ..XXXXX..+XXXXX+.XXX",
"XXXXX.++XXX+.XXXXXXX. OOOO OOOO OO  OOOO OO .XXXXXXX..+XX+++.XXX",
"XXXXXX.+++++.XXXXXXXX OOO  OOO OO # OOO  OO .XXXXXXXX.++X+..XXXX",
"XXXXXX...+..XXXXXXXXX OO OOO   O ## O  # OO XXXXXXXXXX.+++.XXXXX",
"XXXXXXX....XXXXXXXXXXX O OO #    ##   ###  XXXXXXXXXXX....+XXXXX",
"XXXXXXX.X.+XXXXXXXXXXX O O ##  # ##  #### # XXXXXXXXXXX...++XXXX",
"XXXXXX..X.+XXXXX  XXXX   O ##  ####  ###### XXXXXXXXXXX.X..++XXX",
"XXXXX.XXX..++XX OO    O # O #  ####  #### # +XXXXXXX++..XX..++++",
"XXXXX.XXXX..++++ OOOOOOO   ##  ####  ####  .+++++XXX+.XXXXX.+...",
"XX+..XXXXXX.+...+ OOOOOO  ############### X.+...+X+++.XXXXX...X.",
"++..+XXXXXX...X.++  OO  X ############### X...X.+++..XXXXXXXXXX.",
".....+XXXXXXXXX.++..  XXX                 XXXXX.++..XXXXXXXXXXX.",
"...X..+XXXXXXXX....XXXX   @@@@@@@@@@@@@@  XXXXX....XXXXXXXXXXXX.",
"XXXXX..+XXXXXXXXX.XXXXX @@@@@@@@@@@@@@@@@  XXXXXX.XXXXXXXXXXXXX.",
"XXXXXX..+XXX++++...XXXX @@@@@@@@@@@@@@@@@@ X++++...XXXXXXXXXXX.X",
"XXXXXXX.++X++....X..     @@@@@@@@@@@@@@@@  ++....X..+XXXXXXXXX.X",
"XXXXXXXX.+++..XXXXX @@@@@  @@@@@@@@@@@@@    ..XXXXX..+XXXXXX++.X",
"XXXXXXXX...+.XXXXX @@@@@@@@             @@@@ XXXXXXX..+XXXX+...X",
"+XXXXXXXX..+.XXXXX @@@@@@@@@@@@@@ @@@@@@@@@@ XXXXXXXX.++X+++..XX",
".++++++++...XXXXX @@@@@@@@@@@@@@@ @@@@@@@@@@@  XXXXXXX.++....XXX",
"...........XXXXXX @@@@@@@@@@@@@@@ @@@@@@@@@@@@ XXXXXXX.....XXXXX",
"XXXXXXX...XXXXXXX @@@@@@@@@@@@@@@ @@@@@@@@@@@@@ XXXXXXX...XXXXXX",
"XXXXXXX.X.+XXXXX @@@@@@@@@@@@@@@@ @@@@@@@@@@@@@ XXXXXXX..XXXXXXX",
"XXXX++..X..+XXXX @@@@@@@@@@@@@@@@ @@@@@@@@@@@@@ XXXXX+...+XXXXXX",
"XXXX+.XXXX..++++ @@@@@ @@@@@@@@@ $ @@@@@@@@@@@@@ XXX+.XX..+XXXXX",
"XX+++.XXXXX.+... @@@@@ @@@@@@@@@   @@@@@@@@@@@@@ X+++.XXX..++++X",
"X++..XXXXXX...X @@@@@@ @@@@@@@@  o @@@@@@@@@@@@@ ++..XXXXX.+...+",
"++..XXXXXXXXXXX @@@@@@ @@@@@@@@ oo @@@@@@@@@@@@@ +..XXXXXX...X.+",
"...XXXXXXXXXXXX @@@@@@ @@@@@@@ oo  @@@@@@@@@@@@@@ .XXXXXXXXXXX.+",
"...++XXXXXXXXXX @@@@@@ @@@@@@@   $ @@@@@@@@@@@@@@ XXXXXXXXXXXX..",
".X..+XXXXXXXXXX @@@@@ @@@@@@@@ $$$ @@@@@@@@@@@@@@ .+XXXXXXXXX...",
"XXX.+++XXXXX+. @@@@@@ @@@@@@@ $$$$$ @@@@@@@@@@@@@ ..+XXXXXXX..XX",
"XXXX..+XXXX+.. @@@@@@ @@@@@@@ $$$$$ @@@@@@@@@@@@@ X..+XXXXX+.XXX",
"XXXXX.++XXX+.X @@@@@@ @@@@@@@ $$$$$ @@@@@@@@@@@@@ XX..+XX+++.XXX",
"XXXXXX.+++++. @@@@@@@ @@@@@@@        @@@@@@@@@@@@ XXX.++X+..XXXX",
"XXXXXX...+..X @@@@@@ @@@@@@@@ $$$ $$ @@@@@@@@@@@@@ XXX.+++.XXXXX",
"XXXXXXX....XX @@@@@@ @@@@@@@@ $$$ $$ @@@@@@@@@@@@@ XXX....+XXXXX",
"XXXXXXX.X.+X @@@@@@ @@@@@@@@ $$$$ $$  @@@@@@@@@@@@ XXXX...++XXXX",
"XXXXXX..X.+X @@@@@@ @@@@@@@@          @@@@@@@@@@@@ XXXX.X..++XXX",
"XXXXX.XXX.. @@@@@@ @@@@@@@@@ $$$$ $$$$ @@@@@@@@@@@@ ++..XX..++++",
"XXXXX.XXXX @@@@@@@ @@@@@@@@@ $$$$ $$$$ @@@@@@@@@@@@ +.XXXXX.+...",
"XX+..XXXXX @@@@@@@ @@@@@@@@             @@@@@@@@@@@@ .XXXXX...X.",
"++..+XXXX @@@@@@@ @@@@@@@@@ ooooo ooooo @@@@@@@@@@@@ XXXXXXXXXX.",
".....+XXX @@@@@@@ @@@@@@@@ oooooo oooooo @@@@@@@@@@@@ XXXXXXXXX.",
"...X..+XXX   @@@ @@@@@@@@ ooooooo oooooo @@@@@@@@@@@@ XXXXXXXXX.",
"XXXXX..+XXXXX @ @@@@@@@@@ oooo        ooo @@@@@@@@@@@ XXXXXXXXX.",
"XXXXXX..+XXX++       @        .XXXXXXX                XXXXXXXX.X",
"XXXXXXX.++X++....X..    XXXXXX.XXXXXXXX.++X++....X..+XXXXXXXXX.X",
"XXXXXXXX.+++..XXXXX..+XXXXXX++.XXXXXXXXX.+++..XXXXX..+XXXXXX++.X",
"XXXXXXXX...+.XXXXXXX..+XXXX+...XXXXXXXXX...+.XXXXXXX..+XXXX+...X",
"XXXXXXXXX..+.XXXXXXXX.++X+++..XXXXXXXXXXX..+.XXXXXXXX.++X+++..XX",
"XXXXXXXXX...XXXXXXXXXX.++....XXXXXXXXXXXX...XXXXXXXXXX.++....XXX"
};
