/* XPM */
static const char *player_left_2[] = {
/* columns rows colors chars-per-pixel */
"64 64 10 1 ",
"  c #000101",
". c #270B0A",
"X c #3F0707",
"o c #372109",
"O c #76440E",
"+ c #7C422E",
"@ c #463B78",
"# c #F9DC00",
"$ c #E3C1A0",
"% c #FFFEFF",
/* pixels */
"XXXXXX.....XXXXXXXXXXX.....XXXXXXXXXXX.....XXXXXXXXXXX.....XXXXX",
"XXXXXXX...XXXXXXXXXXXXX...XXXXXXXXXXXXX...XXXXXXXXXXXXX...XXXXXX",
"XXXXXXX.X.+XXXXXXXXXXXX..XXXXXXXXXXXXXX.X.+XXXXXXXXXXXX..XXXXXXX",
"XXXX++..X..+XXXXXXXXX+...+XXXXXXXXXX++..X. +XXXXXXXXX+...+XXXXXX",
"XXXX+.XXXX..++++XXXX+.XX..+XXXXXXXXX+.XXX ..++++XXXX+.XX..+XXXXX",
"XX+++.XXXXX.+...+X+ +.XX              XXX X.+...+X+++.XXX..++++X",
"X++..XXXXXX...X.+++.    OOOOOOOOOOOOOO    X ..X.+++..XXXXX.+...+",
"++..XXXXXXXXXXX.++. OOOOOOOOOOOOOOOOOOOO   XXXX.++..XXXXXX...X.+",
"...XXXXXXXXXXXX... OOOOOOOOOOOOOOOOOOOOOO  XXXX....XXXXXXXXXXX.+",
"...++XXXXXXXXXXXX. OOOOOOOOOOOOOOOOOOOOOOO XXXXXX.XXXXXXXXXXXX..",
".X..+XXXXXXXXXXX. . OOOOOOOOOOOOOOOOOOOOOO  XXXX...+XXXXXXXXX...",
"XXX.+++XXXXX+... O  OOOOOOOOOOOOOOOOOOOOOOO +....X..+XXXXXXX..XX",
"XXXX..+XXXX+..XXX OOO  OOOOOOOOOOOOOOOOOOOO ..XXXXX..+XXXXX+.XXX",
"XXXXX.++XXX+.XXXXX   $  OOO OOOOOOOOOOOOOOO .XXXXXXX..+XX+++.XXX",
"XXXXXX.+++++.XXXXXXX $$  OO OOOOOOOOOOOOOOO .XXXXXXXX.++X+..XXXX",
"XXXXXX...+..XXXXXXXX $$$ O   OO   OOOOOOOOO XXXXXXXXXX.+++.XXXXX",
"XXXXXXX....XXXXXXXXX $$    $$ O $$    OOOO  XXXXXXX XX....+XXXXX",
"XXXXXXX.X.+XXXXXXXXX $$$$  $$ O $$ $$  OOO XXXXXXX XXXX...++XXXX",
"XXXXXX..X.+XXXXXXXXX $$$$  $$$  $$ $$$ OOO XXXXXXX XXXX.X..++XXX",
"XXXXX.XXX..++XXXXXXX $$$$  $$$ $$$ $$# OOO  +XXXX  X++..XX..++++",
"XXXXX.XXXX..+++++XXX $$$$  $$$ $$$$$$$ OOO O     O X+.XXXXX.+...",
"XX+..XXXXXX.+...+X++ $$$$  $$$$$$$$$$$ OO  OOOOOOO ++.XXXXX...X.",
"++..+XXXXXX...X.+++. $$$$$$$$$$$$$$$$  OO OOOOOOO +..XXXXXXXXXX.",
".....+XXXXXXXXX.++.. $$$$$$$$$$$$$$   OOO OOOOOO +..XXXXXXXXXXX.",
"...X..+XXXXXXXX....X $$$$$$$$$$$$$$$  OOO  OOOO ...XXXXXXXXXXXX.",
"XXXXX..+XXXXXXXXX.XXX $$$$$$        @    XX    XX.XXXXXXXXXXXXX.",
"XXXXXX..+XXX++++...XXX $$$  @@@@@@@@@@@  XXX++++...XXXXXXXXXXX.X",
"XXXXXXX.++X++....X..+XX   @@@@@@@@@@@@@@ +X++....X..+XXXXXXXXX.X",
"XXXXXXXX.+++..XXXXX..+XX @@@@@@@@@@@@@@@ +++..XXXXX..+XXXXXX++.X",
"XXXXXXXX...+.XXXXXXX..+X @@@@@@@@        ..+.XXXXXXX..+XXXX+...X",
"+XXXXXXXX..+.XXXXXXXX.++  @@@@   @@@@@@@  .+.XXXXXXXX.++X+++..XX",
".++++++++...XXXXXXXXXX.++     @@@@@@@@@@@ ..XXXXXXXXXX.++....XXX",
"...........XXXXXXXXXXX...  @@@@@@@@@@@@@@  XXXXXXXXXXX.....XXXXX",
"XXXXXXX...XXXXXXXXXXXXX..  @@@@@@@@@@@@@@@ XXXXXXXXXXXX...XXXXXX",
"XXXXXXX.X.+XXXXXXXXXXXX..  @@@@@@@@@@@@ @@ XXXXXXXXXXXX..XXXXXXX",
"XXXX++..X..+XXXXXXXXX+...  @@@@@@@@@@@@ @@@ XXXXXXXXX+...+XXXXXX",
"XXXX+.XXXX..++++XXXX+.XX.  @@@@@@ @@@@@@ @@ ++++XXXX+.XX..+XXXXX",
"XX+++.XXXXX.+...+X+++.XXX % @@@@@ @@@@@@ @@@ ...+X+++.XXX..++++X",
"X++..XXXXXX...X.+++..XXXX % @@@@@@ @@@@@@ @@ .X.+++..XXXXX.+...+",
"++..XXXXXXXXXXX.++..XXXXX % @@@@@@ @@@@@@ @@@ X.++..XXXXXX...X.+",
"...XXXXXXXXXXXX....XXXXXX % @@@@@@ @@@@@@ @@@ X....XXXXXXXXXXX.+",
"...++XXXXXXXXXXXX.XXXXXXX % @@@@@@ @@@@@@@ @@ XXX.XXXXXXXXXXXX..",
".X..+XXXXXXXXXXX...+XXXX    @@@@@@ @@@@@@@ @@@ X...+XXXXXXXXX...",
"XXX.+++XXXXX+....X..+XXX oo @@@@@@@ @@@@@@@ @@ ..X..+XXXXXXX..XX",
"XXXX..+XXXX+..XXXXX..+XX oo @@@@@@@ @@@@@@@ @@ XXXX..+XXXXX+.XXX",
"XXXXX.++XXX+.XXXXXXX..+X    @@@@@@@ @@@@@@@ @@ XXXXX..+XX+++.XXX",
"XXXXXX.+++++.XXXXXXXX.++X % @@@@@@@ @@@@@@@ @@@ XXXXX.++X+..XXXX",
"XXXXXX...+..XXXXXXXXXX.++ % @@@@@@@ @@@@@@@@ @@ XXXXXX.+++.XXXXX",
"XXXXXXX....XXXXXXXXXXX...   @@@@@@@ @@@@@@@@@@@ XXXXXX....+XXXXX",
"XXXXXXX.X.+XXXXXXXXXXXX.. % @@@@@@@ @@@@@@@@@@@ XXXXXXX...++XXXX",
"XXXXXX..X.+XXXXXXXXXXXX.X % @@@@@@@@@@@@@@@@@@@ XXXXXXX.X..++XXX",
"XXXXX.XXX..++XXXXXXX++..X   @@@@@@@@@@@@@@@@ @@ XXXX++..XX..++++",
"XXXXX.XXXX..+++++XXX+.XXX o @@@@@@@@@@@@@@@@ @@ +XXX+.XXXXX.+...",
"XX+..XXXXXX.+...+X+++.XXX o @@@@@@@@@@@@@@@@ @@ +X+++.XXXXX...X.",
"++..+XXXXXX...X.+++..XX   o @@@@@@@@@@@@@@@@@ @ +++..XXXXXXXXXX.",
".....+XXXXXXXXX.++..X   ooo @@@@@@@@@@@@@@@@@ @ ++..XXXXXXXXXXX.",
"...X..+XXXXXXXX....XX oooo  @@@@@@@@@@@@@@@@@ @ ...XXXXXXXXXXXX.",
"XXXXX..+XXXXXXXXX.XXX oo   @@@@@@@@@@@@@@@@@    X.XXXXXXXXXXXXX.",
"XXXXXX..+XXX++++...XX oo  @@@@@@@@@@@@@@@@  ++++...XXXXXXXXXXX.X",
"XXXXXXX.++X++....X..+                     X++....X..+XXXXXXXXX.X",
"XXXXXXXX.+++..XXXXX..+XXXXXX++.XXXXXXXXX.+++..XXXXX..+XXXXXX++.X",
"XXXXXXXX...+.XXXXXXX..+XXXX+...XXXXXXXXX...+.XXXXXXX..+XXXX+...X",
"XXXXXXXXX..+.XXXXXXXX.++X+++..XXXXXXXXXXX..+.XXXXXXXX.++X+++..XX",
"XXXXXXXXX...XXXXXXXXXX.++....XXXXXXXXXXXX...XXXXXXXXXX.++....XXX"
};
