/* XPM */
static const char *player_up_2[] = {
/* columns rows colors chars-per-pixel */
"64 64 8 1 ",
"  c #000001",
". c #260A0A",
"X c #2E4313",
"o c #77440F",
"O c #44631E",
"+ c #7C422E",
"@ c #463B79",
"# c #E2C0A0",
/* pixels */
"OOOOOOOO..XXXXXXXXXXXXXX.OOOOOOOOOOOOOOO..OOOOOOOOOOOO.....OOOOO",
"OOOOOOO.O.XXXXXXXXXXXXXX.OOOOOOOOOOOOOO.X.OOOOOOOOOOOOO.OOOOOOOO",
"OOOOOOO.O.+XXXXXXXXXXXXX.OOOOOOOOOOOOOO.X.+OOOOOOOOOOOO.OOOOOOOO",
"OOOO++..O..+XXXXXXXXX+...+OOOOOOOOOO++.XXX.+OOOOOOOOO+...+OOOOOO",
"OOOO+.OOOO..++++XXXX+.OOO.+OOO OOOOO+.XXXXX.++++OOOO+.OOO.+OOOOO",
"OO+++.OOOOO.+..++X+++.OOO             XXXXX.+..++O+++.OOOO.++++O",
"O++..OOOOOOO.OO.+++..OOO ooooooooooooo XXXXX.XX.++++.OOOOO.+...+",
"++.OOOOOOOOOOOO.++.OOO  ooooooooooooooo XXXXXXX.+++.OOOOOOO.OO.+",
"...OOOOOOOOOOOOO..OOO ooooo oooooooooooo XXXXXXX...OOOOOOOOOOO.+",
"XX.++OOOOOOOOOOOO.OO oooo  ooooooooo oooo XXXXXXX.OOOOOOOOOOOO..",
"XXX.+OOOOOOOOOOO...+ oooooo  ooooooo ooooo XXXXXX.++OOOOOOOOOO..",
"XXX.+++OOOOO+...OOO. oooooooooooo ooo ooooo +....O.++OOOOOOOO.XX",
"XXXX.++OOOO+.OOOOOOO ooooooooooooo ooo oooo .OOOOOO.++OOOOO+.XXX",
"XXXXX.++OOO+.OOOOOOO oooooooooooooo   ooooo .OOOOOOO.++OO+++.XXX",
"XXXXXX.+++++.OOOOOO ooooooo ooooooooooooooo .OOOOOOOO.++O++.XXXX",
"XXXXXXX.++..OOOOOOOO oooo  ooooooooooooooo .OOOOOOOOOO.+++.XXXXX",
"XXXXXXXX..+OOOOOOOOOO oo oooooooooooooooo .OOOOOOOOOOO....+XXXXX",
"XXXXXXX.O.+OOOOOOOOOO  oo ooooooo  oooooo  OOOOOOOOOOOO.O.++XXXX",
"XXXXXX.OO.+OOOOOOOOO # ooo ooooo oo ooooo # OOOOOOOOOOO.OO.++XXX",
"XXXXX.OOO.+++OOOOOOO # oooooooo oooo oooo # +OOOOOOO++.OOOO.++++",
"XXXXX.OOOO.++++++OOO # ooooooo oooooo ooo # +++++OOO+.OOOOO.+...",
"XX++.OOOOOO.++.++O+++  ooooooo oooooo ooo  .+..++O+++.OOOOOO.OO.",
"+++.+OOOOOOO..O.+++..X oooooooo ooooo oo  OO.OO.+++..OOOOOOOOOO.",
"....++OOOOOOOOO.++.XXXX      oo ooooo     OOOOO.++.OOOOOOOOOOOO.",
"++++.++OOOOOOOO...XXXXX @@@@    ooooo @@@@ OOOOO..OOOOOOOOOOOOO.",
"+++++.++OOOOOOOOO.XXXX @@@@@@@@ oooo @@@@@@ OOOOO.OOOOOOOOOOOOO.",
"++++++.++OOO++++..XXX @@@@@@@@@ ooo @@@@@@@ ++++...OOOOOOOOOOO.+",
"+++++++.++O++...OO..+   @@@@@@ ooo @@@@@@@  +...XXX.+OOOOOOOOO.+",
"++++++++.+++.OOOOOO  @@@  @@@  oo @@@@@@@ @@ XXXXXXX.+OOOOOO++.+",
"+++++++++..+.OOOOO @@@@@@@   @@  @@@     @@@@ XXXXXXX.+OOOO++.++",
"++++++++++.+.OOOOO @@@@@@@@@@       @@@@@@@@@@ XXXXXX.++O+++.+++",
"++++++++++..OOOOO @@@@@@@@@@@@@@@@@@@@@@@@@@@@@ XXXXXX.++...++++",
"+++++++++.OOOOOOO @@@@@@@@@@@@@@@@@@@@@@@@@@@@@ XXXXXXX...++++++",
"++++++++..OOOOOO @@@@@@@@@@@@@@@@@@@@@@ @@@@@@@@ XXXXXX.++++++++",
"+++++++.O.+OOOOO @@@@@@@@@@@@@@@@@@@@@@  @@@@@@@ XXXXXX.++++++++",
"++++++.OO.++OOO @@@@@ @@@@@@@@@@@@@@@@@@  @@@@@@ XXXX+..++++++++",
"+++++.OOOO.++++ @@@@ @@@@@@@@@@@@@@@@@@@@ @@@@@@@ XX+.OO.+++++++",
"+++++.OOOOO.++. @@@  @@@@@@@@@@@@@@@@@@@@@ @@@@@@ +++.OOO.++++++",
"++++.OOOOOOO.. @@@@ @@@@@@@@@@@@@@@@@@@@@@ @@@@@@ +..OOOOO.++.++",
"+++.OOOOOOOOOO @@@@ @@@@@@@@@@@@@@@@@@@@@@@ @@@@@ ..OOOOOO...O.+",
"++.OOOOOOOOOOO @@@ @@@@@@@@@@@@@@@@@@@@@@@@ @@@@@ .OOOOOOOOOOO.+",
"...++OOOOOOOOO @@@ @@@@@@@@@@@@@@@@@@@@@@@@@ @@@@ OOOOOOOOOOOO..",
"OO..+OOOOOOOO @@@@ @@@@@@@@@@@@@@@@@@@@@@@@@ @@@@ .+OOOOOOOOOO..",
"OOO.+++OOOOO+ @@@ @@@@@@@@@@@@@@@@@@@@@@@@@@ @@@@ O.+OOOOOOOO.OO",
"OOOO..+OOOO+. @@@ @@@@@@@@@@@@@@@@@@@@@@@@@@ @@@@ OO.+OOOOO+.OOO",
"OOOOO.++OOO+. @@@ @@@@@@@@@@@@@@@@@@@@@@@@@@ @@@@ OOO.+OO+++.OOO",
"OOOOOO.+++++. @@@ @@@@@@@@@@@@@@@@@@@@@@@@@@ @@@@@ OO.++O+..OOOO",
"OOOOOOO.+++. @@@@@@@@@@@@@@@@@@@@@@@@@@@@@@@ @@@@@ OOO.+++.OOOOO",
"OOOOOOO....O @@@@@@@@@@@@@@@@@@@@@@@@@@@@@@@@@@@@@ OOO....+OOOOO",
"OOOOOOO.X.+O @@@@@@@@@@@@@@@@@@@@@@@@@@@@@@@@@@@@@ OOOO.X.++OOOO",
"OOOOOO.XX.+O @@@@@@@@@@@@@@@@@@@@@@@@@@@@@@@@@@@@@@ OOO.XX.++OOO",
"OOOOO.XXXX. @@@@@@@@@@@@@@@@@@@@@@@@@@@@@@@@@@@@@@@ ++.XXXX.++++",
"OOOOO.XXXXX @@@@@@@@@@@@@@@@@ @@@@@@@@@@@@@@@@@@@@@@ .XXXXX.+...",
"OO+..XXXXXX @@@@@@@@@@@@@@@@@ @@@@@@@@@@@@@@@@@@@@@@ .XXXXXX.XX.",
"++..+XXXXX @@@@@@@@@@@@@@@@@@ @@@@@@@@@@@@@@@@@@@@@@ XXXXXXXXXX.",
"..OO.+XXXX @@@@@@@@@@@@@@@@@@ @@@@@@@@@@@@@@@@@@@@@@ XXXXXXXXXX.",
"OOOOO.+XXXX @@@@@@@@@@@@@@@@@ @@@@@@@@@@@@@@@@@@@@@@ XXXXXXXXXX.",
"OOOOOO.+XXXX   @@@@@@@@@@@@@@ @@@@@@@@@@@@@@@@@@@@@@ XXXXXXXXXX.",
"OOOOOOO.+XXX+++     @@@@@@@@@ @@@@@@@@@@@@@@@@@@@@@ XXXXXXXXXX.O",
"OOOOOOO.++X++....X.+          @@@@@@@@@@@@@@@@@@@  .+XXXXXXXXX.O",
"OOOOOOOO.+++.XXXXXX.++OOOOOO++  @@@@@@@@@@@@@@@  OOO.+XXXXXX++.O",
"OOOOOOOOO..+.XXXXXXX.++OOOO++.OO               OOOOOO.+XXXX+++.O",
"OOOOOOOOOO.+.XXXXXXXX.++O+++.OOOOOOOOOOOO..+.OOOOOOOO.++X++++.OO",
"OOOOOOOOOO..XXXXXXXXXX.++...OOOOOOOOOOOO.OOOOOOOOOOOOO.+++...OOO"
};
