/* XPM */
static const char *player_left_1[] = {
/* columns rows colors chars-per-pixel */
"64 64 10 1 ",
"  c #010000",
". c #260A0A",
"X c #362009",
"o c #2E4313",
"O c #76440E",
"+ c #44631E",
"@ c #7C422E",
"# c #473B78",
"$ c #F8DC00",
"% c #E2C1A0",
/* pixels */
"++++++++..oooooooooooooo.+++++++++++++++..++++++++++++.....+++++",
"+++++++.+.oooooooooooooo.++++++++++++++.o.+++++++++++++.++++++++",
"+++++++.+.@ooooooooooooo.++++++++++++++.o.@++++++++++++.++++++++",
"++++@@..+..@ooooooo o@..              .oo  @+++++++++@...@++++++",
"++++@.++++..@@@@oooo    OOOOOOOOOOOOOO  o o.@@@@++++@.+++.@+++++",
"++@@@.+++++.@..@@o@ OOOOOOOOOOOOOOOOOOOO oo.@..@@+@@@.++++.@@@@+",
"+@@..+++++++.++.@@ OOOOOOOOOOOOOOOOOOOOOO oo.oo.@@@@.+++++.@...@",
"@@.++++++++++++.@@ OOOOOOOOOOOOOOOOOOOOOOO oooo.@@@.+++++++.++.@",
"...+++++++++++++..+ OOOOOOOOOOOOOOOOOOOOOO ooooo...+++++++++++.@",
"oo.@@++++++++++++.+  OOOOOOOOOOOOOOOOOOOOOO ooooo.++++++++++++..",
"ooo.@+++++++++++.. OO OOOOOOOOOOOOOOOOOOOOO ooooo.@@++++++++++..",
"ooo.@@@+++++@...++ O % OOOO OOOOOOOOOOOOOOO @....+.@@++++++++.oo",
"oooo.@@++++@.++++++  %% OOO OOOOOOOOOOOOOOO .++++++.@@+++++@.ooo",
"ooooo.@@+++@.+++++++ %%% OO  OOO  OOOOOOOOO .+++++++.@@++@@@.ooo",
"oooooo.@@@@@.+++++++ %%% OO % O %%   OOOOOO .++++++++.@@+@@.oooo",
"ooooooo.@@..++++++++ %%% O %% O %% %% OOOO .++++++++++.@@@.ooooo",
"oooooooo..@+++++++++ %%%   %%%  %% %%% OOO +++++++++++....@ooooo",
"ooooooo.+.@+++++++++ %%%%  %%% %%% %%$ OOO  +++++++++++.+.@@oooo",
"oooooo.++.@+++++++++ %%%%  %%% %%%%%%% OOO O  +++++++++.++.@@ooo",
"ooooo.+++.@@@+++++++ %%%%  %%%%%%%%%%% OO OOOO  ++++@@.++++.@@@@",
"ooooo.++++.@@@@@@+++ %%%%%%%%%%%%%%%% OOO OOOOOO +++@.+++++.@...",
"oo@@.++++++.@@.@@+@@ %%%%%%%%%%%%%%  OOOO OOOOOO +@@@.++++++.++.",
"@@@.@+++++++..+.@@@. %%%%%%%%%%%%%%%% OOO  OOOOO @@..++++++++++.",
"....@@+++++++++.@@.oo %%%%%%%%%%%%%%%    ++   OOO .++++++++++++.",
"@@@@.@@++++++++...oooo %%%%%%%%%%%%  ## ++++++ OO +++++++++++++.",
"@@@@@.@@+++++++++.ooooo %%%%       ##### ++++++    ++++++++++++.",
"@@@@@@.@@+++@@@@..oooooo    ############ +++@@@@...+++++++++++.@",
"@@@@@@@.@@+@@...++..@oooo ############## @+@@...ooo.@+++++++++.@",
"@@@@@@@@.@@@.+++++++.@oo ###########     @@@.ooooooo.@++++++@@.@",
"@@@@@@@@@..@.++++++++.@o #########  ##### @@.oooooooo.@++++@@.@@",
"@@@@@@@@@@.@.++++++++.@@o #####   ####### .@.oooooooo.@@+@@@.@@@",
"@@@@@@@@@@..++++++++++.@@.     ########### .oooooooooo.@@...@@@@",
"@@@@@@@@@.+++++++++++++.. ############ ### oooooooooooo...@@@@@@",
"@@@@@@@@..+++++++++++++.@ ############ #### ooooooooooo.@@@@@@@@",
"@@@@@@@.+.@++++++++++++.@ ############# ### ooooooooooo.@@@@@@@@",
"@@@@@@.++.@@+++++++++@..@ ###### ###### #### oooooooo@..@@@@@@@@",
"@@@@@.++++.@@@@@++++@.oo. ###### ####### ### @@@oooo@.++.@@@@@@@",
"@@@@@.+++++.@@.@@+@@@.ooo ####### ###### #### .@@o@@@.+++.@@@@@@",
"@@@@.+++++++..+.@@@@.oooo ####### ###### #### @.@@@..+++++.@@.@@",
"@@@.+++++++++++.@@..ooooo ####### ####### ### @.@@..++++++...+.@",
"@@.++++++++++++....oooooo ####### ####### #### @...+++++++++++.@",
"...@@++++++++++++.oooooo  ####### ######## ### @@.++++++++++++..",
"++..@+++++++++++...@oooo  ######## ####### ### @@..@++++++++++..",
"+++.@@@+++++@...+++.@oooo ######## ####### ### ..++.@++++++++.++",
"++++..@++++@.+++++++.@ooo ######## ######## ### ++++.@+++++@.+++",
"+++++.@@+++@.++++++++.@oo ######## ############ +++++.@++@@@.+++",
"++++++.@@@@@.++++++++.@@o ######## ############ +++++.@@+@..++++",
"+++++++.@@@.++++++++++.@@ ######## ############ ++++++.@@@.+++++",
"+++++++....++++++++++++.@ ##################### ++++++....@+++++",
"+++++++.o.@+++++++++++++. ################## ## +++++++.o.@@++++",
"++++++.oo.@++++++++++++.+ ################## ## +++++++.oo.@@+++",
"+++++.oooo.@@+++++++@@.++ ################## ## ++++@@.oooo.@@@@",
"+++++.ooooo.@@@@@+++@.+++ ################### # @+++@.ooooo.@...",
"++@..oooooo.@...@+@@@.+++ ################### # @+@@@.oooooo.oo.",
"@@..@ooooooo.oo.@@@..++  #################### # @@@..oooooooooo.",
"..++.@ooooooooo.@@.+++ X ################### + .@@.oooooooooooo.",
"+++++.@ooooooooo..+++ XX #################  ++++..ooooooooooooo.",
"++++++.@ooooooooo.+++ XXX                 +++++++.ooooooooooooo.",
"+++++++.@ooo@@@@@.+++ XXXXXX XXXXXXXXX .@+++@@@@@..ooooooooooo.+",
"+++++++.@@o@@....o.@@+                +.@@+@@@...++.@ooooooooo.+",
"++++++++.@@@.oooooo.@@++++++@@.+++++++++.@@@@.++++++.@oooooo@@.+",
"+++++++++..@.ooooooo.@@++++@@.+++++++++++.@@.++++++++.@oooo@@@.+",
"++++++++++.@.oooooooo.@@+@@@.++++++++++++..@.++++++++.@@o@@@@.++",
"++++++++++..oooooooooo.@@...++++++++++++.+++++++++++++.@@@...+++"
};
