/* XPM */
static const char *player_down_1[] = {
/* columns rows colors chars-per-pixel */
"64 64 10 1 ",
"  c black",
". c #260A0A",
"X c #362009",
"o c #2E4313",
"O c #76440F",
"+ c #44631E",
"@ c #7C422E",
"# c #463B78",
"$ c #E2C1A1",
"% c white",
/* pixels */
"++++++++..oooooooooooooo.+++++++ +++++++..++++++++++++.....+++++",
"+++++++.+.oooooooooooooo.+++  +  ++++++.o.+++++++++++++.++++++++",
"+++++++.+.@ooooooooooooo.++++   +++++++.o.@++++++++++++.++++++++",
"++++@@..+..@ooooooooo@...              ooo.@+++++++++@...@++++++",
"++++@.++++..@@@@oooo@.++ OOOOOOOOOOOOOO  oo.@@@@++++@.+++.@+++++",
"++@@@.+++++.@..@@o@@@.  OOOOOOOOOOOOOOOOO  .@..@@+@@@.++++.@@@@+",
"+@@..+++++++.++.@@@.. OOOOOOOOOOOOOOOOOOOOO .oo.@@@@.+++++.@...@",
"@@.++++++++++++.@@.+ OOOOOO OOOOOOOOOOOOOOOO oo.@@@.+++++++.++.@",
"...+++++++++++++..++ OOOO  O OOOOOOO  OOOOOO ooo...+++++++++++.@",
"oo.@@++++++++++++.++ OOO OOOO  OOOO OO   OOO oooo.++++++++++++..",
"ooo.@+++++++++++...@ OO OOO OOO OOOOOOOOO OO oooo.@@++++++++++..",
"ooo.@@@+++++@...+++. OO OO OOOOOOOOOOO OO OO ....+.@@++++++++.oo",
"oooo.@@++++@.+++++++ OO O OOOOOOOOOOOOO OO O ++++++.@@+++++@.ooo",
"ooooo.@@+++@.+++++++ O OO OOO    O  OOOO O O +++++++.@@++@@@.ooo",
"oooooo.@@@@@.+++++++ O O OOO $$$ O $  OO O O ++++++++.@@+@@.oooo",
"ooooooo.@@..++++++++ O O OO   $ O    $ OOO O +++++++++.@@@.ooooo",
"oooooooo..@++++++++++  OOO $  $  $$  $$ OO O +++++++++....@ooooo",
"ooooooo.+.@+++++++  +  OO $$  $$$$$  $$ OO  +++++++++++.+.@@oooo",
"oooooo.++.@++++++ OO $ O  $$  $$$$$  $$$ O $ ++++++++++.++.@@ooo",
"ooooo.+++.@@@++++ OO $ O $$$  $$$$$  $$$ O $ +++++++@@.++++.@@@@",
"ooooo.++++.@@@@@@ OO $   $$$$$$$$$$$$$$$ O $ @@@@+++@.+++++.@...",
"oo@@.++++++.@@.@ OOOO   $$$$$$$$$$$$$$$$$   @..@@+@@@.++++++.++.",
"@@@.@+++++++..+ OOOOOO  $$$$$$$$$$$$$$$$$$ +.++.@@@..++++++++++.",
"....@@++++ ++  OOOOOO o $$$$$$$$$$$$$$$$$ +++++.@@.++++++++++++.",
"@@@@.@@++++  OOOOOOO oo   $$$$$$$$$$$$$$  ++++++..+++++++++++++.",
"@@@@@.@@+++ OOOOOO  ooo #  $$$$$$$$$$$$  # ++++++.+++++++++++++.",
"@@@@@@.@@+++  OO  oooo ####            ###  @@@@...+++++++++++.@",
"@@@@@@@.@@+@@.  ++..@ #  ################ # @...ooo.@+++++++++.@",
"@@@@@@@@.@@@.+++++++. ###     #########  ## .ooooooo.@++++++@@.@",
"@@@@@@@@@..@.+++++++ #  ######      ######  .oooooooo.@++++@@.@@",
"@@@@@@@@@@.@.++++++ ####   ############## ## oooooooo.@@+@@@.@@@",
"@@@@@@@@@@..+++++++ #######   #########  ### ooooooooo.@@...@@@@",
"@@@@@@@@@.+++++++++ ##########         ###### ooooooooo...@@@@@@",
"@@@@@@@@..+++++++++ ## ########## ########### ooooooooo.@@@@@@@@",
"@@@@@@@.+.@++++++++ ## ########## ############ oooooooo.@@@@@@@@",
"@@@@@@.++.@@++++++ ### ########## ###### ##### oooooo@..@@@@@@@@",
"@@@@@.++++.@@@@@++ ### #########  ####### #### @oooo@.++.@@@@@@@",
"@@@@@.+++++.@@.@@+ ## ######### %% ###### #### @@o@@@.+++.@@@@@@",
"@@@@.+++++++..+.@ ### ######### %% ####### #### @@@..+++++.@@.@@",
"@@@.+++++++++++.@ ### ######### %% ####### #### @@..++++++...+.@",
"@@.++++++++++++. #### #########    ####### #### ...+++++++++++.@",
"...@@+++++++++++ #### ######## XXXX ###### ##### .++++++++++++..",
"++..@++++++++++ #### #########      ####### #### ..@++++++++++..",
"+++.@@@+++++@.. #### ######### %%%% ####### #### ++.@++++++++.++",
"++++..@++++@.++ ### ########## %%%%% ###### ##### ++.@+++++@.+++",
"+++++.@@+++@.+ #### #########        ###### ##### +++.@++@@@.+++",
"++++++.@@@@@.+ ### ########## %% %%% ####### #### +++.@@+@..++++",
"+++++++.@@@.++ ### ######### %%% %%%% ###### #### ++++.@@@.+++++",
"+++++++....++ ### ########## %%% %%%% ####### ### ++++....@+++++",
"+++++++.o.@++ ############# %%%% %%%% ########### +++++.o.@@++++",
"++++++.oo.@+ ############# %%%%% %%%% ########### +++++.oo.@@+++",
"+++++.oooo.@ #############            ########### ++@@.oooo.@@@@",
"+++++.ooooo. ############ XXXXX o XXXX ########## ++@.ooooo.@...",
"++@..oooooo. ###########    XXX @ XX   ########## @@@.oooooo.oo.",
"@@..@ooooooo. ######### XXXXXXX @ XXXXX ######### @..oooooooooo.",
"..++.@oooooooo #######      XXX . XXX   ######## @.oooooooooooo.",
"+++++.@oooooooo       XXXXXX XX + XX XXX   ##   ..ooooooooooooo.",
"++++++.@ooooooooo.++ XXXXXXX XX + XX XXXXXX  ++++.ooooooooooooo.",
"+++++++.@ooo@@@@@.++ XXXXXXX XX + XX XXXXXXX @@@@..ooooooooooo.+",
"+++++++.@@o@@....o.@            +            @...++.@ooooooooo.+",
"++++++++.@@@.oooooo.@@++++++@@.+++++++++.@@@@.++++++.@oooooo@@.+",
"+++++++++..@.ooooooo.@@++++@@.+++++++++++.@@.++++++++.@oooo@@@.+",
"++++++++++.@.oooooooo.@@+@@@.++++++++++++..@.++++++++.@@o@@@@.++",
"++++++++++..oooooooooo.@@...++++++++++++.+++++++++++++.@@@...+++"
};
