/* XPM */
static const char *player_left_2[] = {
/* columns rows colors chars-per-pixel */
"64 64 11 1 ",
"  c #000001",
". c #260A0A",
"X c #372009",
"o c #2E4313",
"O c #76440E",
"+ c #44631E",
"@ c #7C422E",
"# c #463B78",
"$ c #F9DC00",
"% c #E2C1A0",
"& c #FFFEFF",
/* pixels */
"++++++++..oooooooooooooo.+++++++++++++++..++++++++++++.....+++++",
"+++++++.+.oooooooooooooo.++++++++++++++.o.+++++++++++++.++++++++",
"+++++++.+.@ooooooooooooo.++++++++++++++.o.@++++++++++++.++++++++",
"++++@@..+..@ooooooooo@...@++++++++++@@.ooo @+++++++++@...@++++++",
"++++@.++++..@@@@oooo@.+++.@+++++++++@.ooo o.@@@@++++@.+++.@+++++",
"++@@@.+++++.@..@@o@ @.++              ooo o.@..@@+@@@.++++.@@@@+",
"+@@..+++++++.++.@@@.    OOOOOOOOOOOOOO  o o .oo.@@@@.+++++.@...@",
"@@.++++++++++++.@@. OOOOOOOOOOOOOOOOOOOO   oooo.@@@.+++++++.++.@",
"...+++++++++++++.. OOOOOOOOOOOOOOOOOOOOOO  ooooo...+++++++++++.@",
"oo.@@++++++++++++. OOOOOOOOOOOOOOOOOOOOOOO oooooo.++++++++++++..",
"ooo.@+++++++++++. . OOOOOOOOOOOOOOOOOOOOOO oooooo.@@++++++++++..",
"ooo.@@@+++++@... O  OOOOOOOOOOOOOOOOOOOOOOO @....+.@@++++++++.oo",
"oooo.@@++++@.++++ OOO  OOOOOOOOOOOOOOOOOOOO .++++++.@@+++++@.ooo",
"ooooo.@@+++@.+++++   %  OOO OOOOOOOOOOOOOOO .+++++++.@@++@@@.ooo",
"oooooo.@@@@@.+++++++ %%  OO OOOOOOOOOOOOOOO .++++++++.@@+@@.oooo",
"ooooooo.@@..++++++++ %%% O   OO   OOOOOOOOO ++++++++++.@@@.ooooo",
"oooooooo..@+++++++++ %%    %% O %%    OOOO ++++++++ ++....@ooooo",
"ooooooo.+.@+++++++++ %%%%  %% O %% %%  OOO +++++++ ++++.+.@@oooo",
"oooooo.++.@+++++++++ %%%%  %%%  %% %%% OOO +++++++ ++++.++.@@ooo",
"ooooo.+++.@@@+++++++ %%%%  %%% %%% %%$ OOO  @++++  +@@.++++.@@@@",
"ooooo.++++.@@@@@@+++ %%%%  %%% %%%%%%% OOO O     O +@.+++++.@...",
"oo@@.++++++.@@.@@+@@ %%%%  %%%%%%%%%%% OO  OOOOOOO @@.++++++.++.",
"@@@.@+++++++..+.@@@. %%%%%%%%%%%%%%%%  OO OOOOOOO @..++++++++++.",
"....@@+++++++++.@@.o %%%%%%%%%%%%%%   OOO OOOOOO @.++++++++++++.",
"@@@@.@@++++++++...oo %%%%%%%%%%%%%%%  OOO  OOOO ..+++++++++++++.",
"@@@@@.@@+++++++++.ooo %%%%%%        #    ++    ++.+++++++++++++.",
"@@@@@@.@@+++@@@@..oooo %%%  ########### @+++@@@@...+++++++++++.@",
"@@@@@@@.@@+@@...++..@oo   ############## @+@@...ooo.@+++++++++.@",
"@@@@@@@@.@@@.+++++++.@oo ############### @@@.ooooooo.@++++++@@.@",
"@@@@@@@@@..@.++++++++.@o ########        .@@.oooooooo.@++++@@.@@",
"@@@@@@@@@@.@.++++++++.@@o ####   ######## .@.oooooooo.@@+@@@.@@@",
"@@@@@@@@@@..++++++++++.@@     ########### ..oooooooooo.@@...@@@@",
"@@@@@@@@@.+++++++++++++..  ############### oooooooooooo...@@@@@@",
"@@@@@@@@..+++++++++++++.@  ############### oooooooooooo.@@@@@@@@",
"@@@@@@@.+.@++++++++++++.@ & ########### ## oooooooooooo.@@@@@@@@",
"@@@@@@.++.@@+++++++++@..@ & ########### ### ooooooooo@..@@@@@@@@",
"@@@@@.++++.@@@@@++++@.oo. & ##### ###### ## @@@@oooo@.++.@@@@@@@",
"@@@@@.+++++.@@.@@+@@@.ooo & ##### ###### ### ..@@o@@@.+++.@@@@@@",
"@@@@.+++++++..+.@@@@.oooo & ###### ###### ## @@.@@@..+++++.@@.@@",
"@@@.+++++++++++.@@..ooooo & ###### ###### ### @.@@..++++++...+.@",
"@@.++++++++++++....oooooo & ###### ###### ### @@...+++++++++++.@",
"...@@++++++++++++.ooooooo & ###### ####### ## @@@.++++++++++++..",
"++..@+++++++++++...@ooooo   ###### ####### ### @@..@++++++++++..",
"+++.@@@+++++@...+++.@ooo XX ####### ####### ## ..++.@++++++++.++",
"++++..@++++@.+++++++.@oo XX ####### ####### ## +++++.@+++++@.+++",
"+++++.@@+++@.++++++++.@oo   ####### ####### ## ++++++.@++@@@.+++",
"++++++.@@@@@.++++++++.@@o & ####### ####### ### +++++.@@+@..++++",
"+++++++.@@@.++++++++++.@@ & ####### ######## ## ++++++.@@@.+++++",
"+++++++....++++++++++++.@   ####### ########### ++++++....@+++++",
"+++++++.o.@+++++++++++++. & ####### ########### +++++++.o.@@++++",
"++++++.oo.@++++++++++++.+ & ################### +++++++.oo.@@+++",
"+++++.oooo.@@+++++++@@.++   ################ ## ++++@@.oooo.@@@@",
"+++++.ooooo.@@@@@+++@.+++ X ################ ## @+++@.ooooo.@...",
"++@..oooooo.@...@+@@@.+++ X ################ ## @+@@@.oooooo.oo.",
"@@..@ooooooo.oo.@@@..++   X ################# # @@@..oooooooooo.",
"..++.@ooooooooo.@@.+++  XXX ################# # @@.oooooooooooo.",
"+++++.@ooooooooo..+++ XXXX  ################# # ..ooooooooooooo.",
"++++++.@ooooooooo.+++ XXX  #################   ++.ooooooooooooo.",
"+++++++.@ooo@@@@@.+++ XX #################  @@@@@..ooooooooooo.+",
"+++++++.@@o@@....o.@@+                    +@@@...++.@ooooooooo.+",
"++++++++.@@@.oooooo.@@++++++@@.+++++++++.@@@@.++++++.@oooooo@@.+",
"+++++++++..@.ooooooo.@@++++@@.+++++++++++.@@.++++++++.@oooo@@@.+",
"++++++++++.@.oooooooo.@@+@@@.++++++++++++..@.++++++++.@@o@@@@.++",
"++++++++++..oooooooooo.@@...++++++++++++.+++++++++++++.@@@...+++"
};
