/* XPM */
static const char *player_up_1[] = {
/* columns rows colors chars-per-pixel */
"64 64 7 1 ",
"  c #000001",
". c #270B0B",
"X c #3F0707",
"o c #77440F",
"O c #7C422E",
"+ c #463B79",
"@ c #E3C0A0",
/* pixels */
"XXXXXX.....XXXXXXXXXXX.....XXXXXXXXXXX.....XXXXXXXXXXX.....XXXXX",
"XXXXXXX...XXXXXXXXXXXXX...XXXXXXXXXXXXX...XXXXXXXXXXXXX...XXXXXX",
"XXXXXXX.X.OXXXXXXXXXXXX..XXXXX XXXXXXXX.X.OXXXXXXXXXXXX..XXXXXXX",
"XXXXOO..X..OXXXXXXXXXO...             ..X..OXXXXXXXXXO...OXXXXXX",
"XXXXO.XXXX..OOOOXXXXO.XX ooooooooooooo XXX..OOOOXXXXO.XX..OXXXXX",
"XXOOO.XXXXX.O...OXOOO.  ooooooooooooooo XXX.O...OXOOO.XXX..OOOOX",
"XOO..XXXXXX...X.OOO.. oooooooooooooooooo XX...X.OOO..XXXXX.O...O",
"OO..XXXXXXXXXXX.OO.. ooooo ooooooooo oooo XXXXX.OO..XXXXXX...X.O",
"...XXXXXXXXXXXX....X oooo oooooooooo ooooo XXXX....XXXXXXXXXXX.O",
"...OOXXXXXXXXXXXX.XX ooo oo  oooooooo ooooo XXXXX.XXXXXXXXXXXX..",
".X..OXXXXXXXXXXX...O oooo  oooooo oooo oooo XXXX...OXXXXXXXXX...",
"XXX.OOOXXXXXO....X.. ooooooooooooo  oo oooo O....X..OXXXXXXX..XX",
"XXXX..OXXXXO..XXXXX oooooooooooooooo o oooo ..XXXXX..OXXXXXO.XXX",
"XXXXX.OOXXXO.XXXXXXX oooooooooooooooo oooo O.XXXXXXX..OXXOOO.XXX",
"XXXXXX.OOOOO.XXXXXXXX ooooo ooooooooooooo OO.XXXXXXXX.OOXO..XXXX",
"XXXXXX...O..XXXXXXXXX  ooo oooooooooooooo  .XXXXXXXXXX.OOO.XXXXX",
"XXXXXXX....XXXXXXXXX @ oo ooooooo  oooooo @ XXXXXXXXXX....OXXXXX",
"XXXXXXX.X.OXXXXXXXXX @ ooo ooooo oo ooooo @ XXXXXXXXXXX...OOXXXX",
"XXXXXX..X.OXXXXXXXXX @ oooooooo oooo oooo @ XXXXXXXXXXX.X..OOXXX",
"XXXXX.XXX..OOXXXXXXXO  ooooooo oooooo ooo  OOXXXXXXXOO..XX..OOOO",
"XXXXX.XXXX..OOOOOXXXO. oooooooo ooooo ooo ..OOOOOXXXO.XXXXX.O...",
"XXO..XXXXXX.O...OXOOO.X ooooooo ooooo ooo X.O...OXOOO.XXXXX...X.",
"OO..OXXXXXX...X.OOO..XXX ooooooo oooo ooo X...X.OOO..XXXXXXXXXX.",
".....OXXXXXXXXX.OO..XXX + oooooo oooo oo XXXXXX.OO..XXXXXXXXXXX.",
"...X..OXXXXXXXX....XXX +++    o   ooo     XXXXX....XXXXXXXXXXXX.",
"XXXXX..OXXXXXXXXX.XXX ++++++++ ++ ooo ++++ XXXXXX.XXXXXXXXXXXXX.",
"XXXXXX..OXXXOOOO...XX +++++++++++ oo  +++++ OOOO...XXXXXXXXXXX.X",
"XXXXXXX.OOXOO....X..O +++++++++++ oo +++++ OO....X..OXXXXXXXXX.X",
"XXXXXXXX.OOO..XXXXX. +   ++++++++ o ++++    ..XXXXX..OXXXXXXOO.X",
"XXXXXXXX...O.XXXXXXX ++++         o     ++++ XXXXXXX..OXXXXO...X",
"OXXXXXXXX..O.XXXXXX ++++++++++++ o ++++++++++ XXXXXXX.OOXOOO..XX",
".OOOOOOOO...XXXXXXX +++++++++++++ +++++++++++ XXXXXXXX.OO....XXX",
"...........XXXXXXX +++++++++++++++++++++++++++ XXXXXXX.....XXXXX",
"XXXXXXX...XXXXXXXX +++++++++++++++++++++++++++ XXXXXXXX...XXXXXX",
"XXXXXXX.X.OXXXXXX ++++++++++++++++++++++ ++++++ XXXXXXX..XXXXXXX",
"XXXXOO..X..OXXXXX ++++++ +++++++++++++++ ++++++ XXXXXO...OXXXXXX",
"XXXXO.XXXX..OOOO ++++++ +++++++++++++++++ +++++ XXXXO.XX..OXXXXX",
"XXOOO.XXXXX.O... ++++++ +++++++++++++++++ +++++ OXOOO.XXX..OOOOX",
"XOO..XXXXXX...X. +++++ ++++++++++++++++++ +++++ OOO..XXXXX.O...O",
"OO..XXXXXXXXXXX. +++++ ++++++++++++++++++ +++++ OO..XXXXXX...X.O",
"...XXXXXXXXXXXX. ++++ +++++++++++++++++++ ++++++ ..XXXXXXXXXXX.O",
"...OOXXXXXXXXXXX ++++ ++++++++ +++++++++++ +++++ .XXXXXXXXXXXX..",
".X..OXXXXXXXXXX ++++ +++++++++ +++++++++++ +++++ ..OXXXXXXXXX...",
"XXX.OOOXXXXXO.. +++ ++++++++++ ++++++++++++ ++++ X..OXXXXXXX..XX",
"XXXX..OXXXXO..X +++ ++++++++++ ++++++++++++ ++++ XX..OXXXXXO.XXX",
"XXXXX.OOXXXO.X +++++++++++++++ +++++++++++++ ++++ XX..OXXOOO.XXX",
"XXXXXX.OOOOO.X +++++++++++++++ +++++++++++++ ++++ XXX.OOXO..XXXX",
"XXXXXX...O..XX ++++++++++++++ +++++++++++++++ +++ XXXX.OOO.XXXXX",
"XXXXXXX....XXX ++++++++++++++ +++++++++++++++ ++++ XXX....OXXXXX",
"XXXXXXX.X.OXXX ++++++++++++++ ++++++++++++++++ +++ XXXX...OOXXXX",
"XXXXXX..X.OXXX ++++++++++++++ ++++++++++++++++++++ XXXX.X..OOXXX",
"XXXXX.XXX..OO ++++++++++++++ ++++++++++++++++++++++ OO..XX..OOOO",
"XXXXX.XXXX..O ++++++++++++++ ++++++++++++++++++++++ O.XXXXX.O...",
"XXO..XXXXXX.O ++++++++++++++ ++++++++++++++++++++++ O.XXXXX...X.",
"OO..OXXXXXX. +++++++++++++++ +++++++++++++++++++++++ XXXXXXXXXX.",
".....OXXXXXX ++++++++++++++ +++++++++++++++++++++++++ XXXXXXXXX.",
"...X..OXXXX +++++++++++++++ +++++++++++++++++++++++++ XXXXXXXXX.",
"XXXXX..OXXX +++++++++++++++ ++++++++++++++++++++++++ XXXXXXXXXX.",
"XXXXXX..OXXX ++++++++++++++ ++++++++++++++++++++++  XXXXXXXXXX.X",
"XXXXXXX.OOXOO               ++++++++++++++++++++  ..OXXXXXXXXX.X",
"XXXXXXXX.OOO..XXXXX..OXXXXXX       ++++++++     XXX..OXXXXXXOO.X",
"XXXXXXXX...O.XXXXXXX..OXXXXO...XXXX        O.XXXXXXX..OXXXXO...X",
"XXXXXXXXX..O.XXXXXXXX.OOXOOO..XXXXXXXXXXX..O.XXXXXXXX.OOXOOO..XX",
"XXXXXXXXX...XXXXXXXXXX.OO....XXXXXXXXXXXX...XXXXXXXXXX.OO....XXX"
};
