/* XPM */
static const char *player_down_2[] = {
/* columns rows colors chars-per-pixel */
"64 64 10 1 ",
"  c black",
". c #260A0A",
"X c #362009",
"o c #2E4313",
"O c #76440F",
"+ c #44631E",
"@ c #7C422E",
"# c #463B78",
"$ c #E2C0A1",
"% c white",
/* pixels */
"++++++++..oooooooooooooo.+++++++++++++++..++++++++++++.....+++++",
"+++++++.+.oooooooooooooo.++++++++++++++.o.+++++++++++++.++++++++",
"+++++++.+.@ooooooooooooo.++++ ++++ ++++.o.@++++++++++++.++++++++",
"++++@@..+..@ooooooooo@...@+++ +++ ++@@.ooo.@+++++++++@...@++++++",
"++++@.++++..@@@@oooo@.+++.@+++ + +++@.ooooo.@@@@++++@.+++.@+++++",
"++@@@.+++++.@..@@o@@@.+++              oooo. ..@@+@@@.++++.@@@@+",
"+@@..+++++++.++.@@@..+++ OOOOOOOOOOOOOO  oo .oo.@@@@.+++++.@...@",
"@@.++++++++++++.@@.+++  OOOOOOOOOOOOOOOOO  oooo.@@@.+++++++.++.@",
"...+++++++++++++..+++ OOOOOOOOOOOOOOOOOOOOO oooo...+++++++++++.@",
"oo.@@++++++++++++.++ OOOOOO OOOOOOOOOOOOOOOO oooo.++++++++++++..",
"ooo.@+++++++++++.. @ OOOO  O OOOOOOO  OOOOOO oooo.@@++++++++++..",
"ooo.@@@+++++@...+++  OOO OOOO  OOOO OO   OOO ....+.@@++++++++.oo",
"oooo.@@++++@.+++++++ OO OOO OOO OOOOOOOOO OO ++++++.@@+++++@.ooo",
"ooooo.@@+++@.+++++++ O OOO OOOOOOOOOOO OO OO +++++++.@@++@@@.ooo",
"oooooo.@@@@@.+++++++ O OO OOOOOOOOOOOOO OO O ++++++++.@@+@@.oooo",
"ooooooo.@@..++++++++  OOO OOO   OO  OOOO OO  +++++++++.@@@.ooooo",
"oooooooo..@+++++++++ OOO OOO  $ O $   OO OOO +++++++++....@ooooo",
"ooooooo.+.@+         OOO OO    OO $  $ OOOOO ++++++++++.+.@@oooo",
"oooooo.++.@ OOOOO  OOOOOOO    $  $$  $$ OOOO  +++++++++.++.@@ooo",
"ooooo.+++. OOOOOOO  OO     $  $$$$$  $$ OOOOOO +++++@@.++++.@@@@",
"ooooo.+++ OOOOOOOOO    $$$$$  $$$$$  $$$     OO @+++@.+++++.@...",
"oo@@.+++ OOOOOOOOOOO $ $$$$$  $$$$$  $$$$$ $   @@+@@@.++++++.++.",
"@@@.@++ +    OOOOOO  $ $$$$$$$$$$$$$$$$$$$ $ ++.@@@..++++++++++.",
"....@@+++++++  OOO oo   $$$$$$$$$$$$$$$$$$  +++.@@.++++++++++++.",
"@@@@.@@++++++++   ooooo $$$$$$$$$$$$$$$$$$ +++++..+++++++++++++.",
"@@@@@.@@+++++++++.oooooo $$$$$$$$$$$$$$$$ +++++++.+++++++++++++.",
"@@@@@@.@@+++@@@@..oooooo  $$$$$$$$$$$$$$ +++@@@@...+++++++++++.@",
"@@@@@@@.@@+@@...++..@oo ##                 @@...ooo.@+++++++++.@",
"@@@@@@@@.@@@.+++++++.@ ## ############### # .ooooooo.@++++++@@.@",
"@@@@@@@@@..@.++++++++ # ##          ###  ## .oooooooo.@++++@@.@@",
"@@@@@@@@@@.@.+++++++ ## ################### .oooooooo.@@+@@@.@@@",
"@@@@@@@@@@..++++++++ ###  ################  oooooooooo.@@...@@@@",
"@@@@@@@@@.+++++++++ ######                ## oooooooooo...@@@@@@",
"@@@@@@@@..++++++++ ############## ########## oooooooooo.@@@@@@@@",
"@@@@@@@.+.@+++++++ ############## ########### ooooooooo.@@@@@@@@",
"@@@@@@.++.@@++++++ ##### ######## ##### ##### ooooooo@..@@@@@@@@",
"@@@@@.++++.@@@@@+ ##### ######### ##### ##### @@oooo@.++.@@@@@@@",
"@@@@@.+++++.@@.@@ #### ########## ###### ##### @@o@@@.+++.@@@@@@",
"@@@@.+++++++..+.@ #### ########## ###### ##### .@@@..+++++.@@.@@",
"@@@.+++++++++++. ##### ######### % ###### #### .@@..++++++...+.@",
"@@.++++++++++++. #### ######### %% ###### ##### ...+++++++++++.@",
"...@@++++++++++ ##### ######### %% ####### #### @.++++++++++++..",
"++..@++++++++++ #### ##########    ####### #### @..@++++++++++..",
"+++.@@@+++++@.. #### ########## XXX ####### #### ++.@++++++++.++",
"++++..@++++@.++ #### ##########     ####### #### +++.@+++++@.+++",
"+++++.@@+++@.++ #### ########## %%% ####### #### ++++.@++@@@.+++",
"++++++.@@@@@.+ #### ########### %%%% ###### ##### +++.@@+@..++++",
"+++++++.@@@.++ #### ###########      ###### ##### ++++.@@@.+++++",
"+++++++....+++ #### ########## % %%% ####### #### ++++....@+++++",
"+++++++.o.@++ ##### ########## % %%%% ###### #### +++++.o.@@++++",
"++++++.oo.@++ ##### ######### %% %%%% ###### #### +++++.oo.@@+++",
"+++++.oooo.@@ ##### ######### %% %%%% ###### #### ++@@.oooo.@@@@",
"+++++.ooooo.@ #### ######### %%% %%%% ###### #### ++@.ooooo.@...",
"++@..oooooo. ##### #########          ########### @@@.oooooo.oo.",
"@@..@ooooooo ############## XXX @ XXXX ########## @..oooooooooo.",
"..++.@oooooo ############## XXX . XXX  ########## .oooooooooooo.",
"+++++.@ooooo ##############  XX + XX XX ######### ooooooooooooo.",
"++++++.@oooo ############# X XX + XX XX ######## .ooooooooooooo.",
"+++++++.@ooo ############ XX XX + XX XXX ####   @..ooooooooooo.+",
"+++++++.@@o@@                   +            @...++.@ooooooooo.+",
"++++++++.@@@.oooooo.@@++++++@@.+++++++++.@@@@.++++++.@oooooo@@.+",
"+++++++++..@.ooooooo.@@++++@@.+++++++++++.@@.++++++++.@oooo@@@.+",
"++++++++++.@.oooooooo.@@+@@@.++++++++++++..@.++++++++.@@o@@@@.++",
"++++++++++..oooooooooo.@@...++++++++++++.+++++++++++++.@@@...+++"
};
