/* XPM */
static const char *player_up_1[] = {
/* columns rows colors chars-per-pixel */
"64 64 8 1 ",
"  c #000001",
". c #260A0A",
"X c #2E4313",
"o c #77440F",
"O c #44631E",
"+ c #7C422E",
"@ c #463B79",
"# c #E3C0A0",
/* pixels */
"OOOOOOOO..XXXXXXXXXXXXXX.OOOOOOOOOOOOOOO..OOOOOOOOOOOO.....OOOOO",
"OOOOOOO.O.XXXXXXXXXXXXXX.OOOOOOOOOOOOOO.X.OOOOOOOOOOOOO.OOOOOOOO",
"OOOOOOO.O.+XXXXXXXXXXXXX.OOOOO OOOOOOOO.X.+OOOOOOOOOOOO.OOOOOOOO",
"OOOO++..O..+XXXXXXXXX+...       O     .XXX.+OOOOOOOOO+...+OOOOOO",
"OOOO+.OOOO..++++XXXX+.OO ooooooooooooo XXXX.++++OOOO+.OOO.+OOOOO",
"OO+++.OOOOO.+..++X+++.  ooooooooooooooo XXX.+..++O+++.OOOO.++++O",
"O++..OOOOOOO.OO.+++.. oooooooooooooooooo XXX.XX.++++.OOOOO.+...+",
"++.OOOOOOOOOOOO.++.O ooooo ooooooooo oooo XXXXX.+++.OOOOOOO.OO.+",
"...OOOOOOOOOOOOO..OO oooo oooooooooo ooooo XXXXX...OOOOOOOOOOO.+",
"XX.++OOOOOOOOOOOO.OO ooo oo  oooooooo ooooo XXXXX.OOOOOOOOOOOO..",
"XXX.+OOOOOOOOOOO...+ oooo  oooooo oooo oooo XXXXX.++OOOOOOOOOO..",
"XXX.+++OOOOO+...OOO. ooooooooooooo  oo oooo +....O.++OOOOOOOO.XX",
"XXXX.++OOOO+.OOOOOO oooooooooooooooo o oooo .OOOOOO.++OOOOO+.XXX",
"XXXXX.++OOO+.OOOOOOO oooooooooooooooo oooo +.OOOOOOO.++OO+++.XXX",
"XXXXXX.+++++.OOOOOOOO ooooo ooooooooooooo ++.OOOOOOOO.++O++.XXXX",
"XXXXXXX.++..OOOOOOOOO  ooo oooooooooooooo  .OOOOOOOOOO.+++.XXXXX",
"XXXXXXXX..+OOOOOOOOO # oo ooooooo  oooooo # OOOOOOOOOO....+XXXXX",
"XXXXXXX.O.+OOOOOOOOO # ooo ooooo oo ooooo #OOOOOOOOOOOO.O.++XXXX",
"XXXXXX.OO.+OOOOOOOOO # oooooooo oooo oooo # OOOOOOOOOOO.OO.++XXX",
"XXXXX.OOO.+++OOOOOOO+ .ooooooo oooooo ooo  ++OOOOOOO++.OOOO.++++",
"XXXXX.OOOO.++++++OOO+.Xoooooooo ooooo ooo O.+++++OOO+.OOOOO.+...",
"XX++.OOOOOO.++.++O+++.X ooooooo ooooo ooo O.+..++O+++.OOOOOO.OO.",
"+++.+OOOOOOO..O.+++..XXXXooooooo oooo ooo OO.OO.+++..OOOOOOOOOO.",
"....++OOOOOOOOO.++.XXXX @ oooooo oooo oo OOOOOO.++.OOOOOOOOOOOO.",
"++++.++OOOOOOOO...XXXX @@@    o   ooo     OOOOOO..OOOOOOOOOOOOO.",
"+++++.++OOOOOOOOO.XXXX@@@@@@@@ @@ ooo @@@@ OOOOOO.OOOOOOOOOOOOO.",
"++++++.++OOO++++..XXX @@@@@@@@@@@ oo  @@@@@ ++++...OOOOOOOOOOO.+",
"+++++++.++O++...OO..+X@@@@@@@@@@@ oo @@@@@ ++...XXX.+OOOOOOOOO.+",
"++++++++.+++.OOOOOOO @   @@@@@@@@ o @@@@    .XXXXXXX.+OOOOOO++.+",
"+++++++++..+.OOOOOOO @@@@         o     @@@@ XXXXXXXX.+OOOO++.++",
"++++++++++.+.OOOOOO @@@@@@@@@@@@ o @@@@@@@@@@ XXXXXXX.++O+++.+++",
"++++++++++..OOOOOOO @@@@@@@@@@@@@ @@@@@@@@@@@ XXXXXXXX.++...++++",
"+++++++++.OOOOOOOO @@@@@@@@@@@@@@@@@@@@@@@@@@@ XXXXXXXX...++++++",
"++++++++..OOOOOOOO @@@@@@@@@@@@@@@@@@@@@@@@@@@ XXXXXXXX.++++++++",
"+++++++.O.+OOOOOO @@@@@@@@@@@@@@@@@@@@@@ @@@@@@ XXXXXXX.++++++++",
"++++++.OO.++OOOOO @@@@@@ @@@@@@@@@@@@@@@ @@@@@@ XXXXX+..++++++++",
"+++++.OOOO.+++++ @@@@@@ @@@@@@@@@@@@@@@@@ @@@@@ XXXX+.OO.+++++++",
"+++++.OOOOO.++.+ @@@@@@ @@@@@@@@@@@@@@@@@ @@@@@ +X+++.OOO.++++++",
"++++.OOOOOOO..O. @@@@@ @@@@@@@@@@@@@@@@@@ @@@@@ +++..OOOOO.++.++",
"+++.OOOOOOOOOOO. @@@@@ @@@@@@@@@@@@@@@@@@ @@@@@.++..OOOOOO...O.+",
"++.OOOOOOOOOOOO. @@@@ @@@@@@@@@@@@@@@@@@@ @@@@@@ ..OOOOOOOOOOO.+",
"...++OOOOOOOOOOO @@@@ @@@@@@@@ @@@@@@@@@@@ @@@@@ .OOOOOOOOOOOO..",
"OO..+OOOOOOOOOO @@@@ @@@@@@@@@ @@@@@@@@@@@ @@@@@ ..+OOOOOOOOOO..",
"OOO.+++OOOOO+.. @@@ @@@@@@@@@@ @@@@@@@@@@@@ @@@@ OO.+OOOOOOOO.OO",
"OOOO..+OOOO+.OO @@@ @@@@@@@@@@ @@@@@@@@@@@@ @@@@ OOO.+OOOOO+.OOO",
"OOOOO.++OOO+.OO@@@@@@@@@@@@@@@ @@@@@@@@@@@@@ @@@@OOOO.+OO+++.OOO",
"OOOOOO.+++++.O @@@@@@@@@@@@@@@ @@@@@@@@@@@@@ @@@@ OOO.++O+..OOOO",
"OOOOOOO.+++.OO @@@@@@@@@@@@@@ @@@@@@@@@@@@@@@ @@@ OOOO.+++.OOOOO",
"OOOOOOO....OOOO@@@@@@@@@@@@@@ @@@@@@@@@@@@@@@ @@@@ OOO....+OOOOO",
"OOOOOOO.X.+OOO @@@@@@@@@@@@@@ @@@@@@@@@@@@@@@@ @@@ OOOO.X.++OOOO",
"OOOOOO.XX.+OOO @@@@@@@@@@@@@@ @@@@@@@@@@@@@@@@@@@@ OOOO.XX.++OOO",
"OOOOO.XXXX.++ @@@@@@@@@@@@@@ @@@@@@@@@@@@@@@@@@@@@@ ++.XXXX.++++",
"OOOOO.XXXXX.+ @@@@@@@@@@@@@@ @@@@@@@@@@@@@@@@@@@@@@ +.XXXXX.+...",
"OO+..XXXXXX.+ @@@@@@@@@@@@@@ @@@@@@@@@@@@@@@@@@@@@@ +.XXXXXX.XX.",
"++..+XXXXXXX @@@@@@@@@@@@@@@ @@@@@@@@@@@@@@@@@@@@@@@ XXXXXXXXXX.",
"..OO.+XXXXXX @@@@@@@@@@@@@@ @@@@@@@@@@@@@@@@@@@@@@@@@ XXXXXXXXX.",
"OOOOO.+XXXX @@@@@@@@@@@@@@@ @@@@@@@@@@@@@@@@@@@@@@@@@ XXXXXXXXX.",
"OOOOOO.+XXX @@@@@@@@@@@@@@@ @@@@@@@@@@@@@@@@@@@@@@@@ XXXXXXXXXX.",
"OOOOOOO.+XXX @@@@@@@@@@@@@@ @@@@@@@@@@@@@@@@@@@@@@  XXXXXXXXXX.O",
"OOOOOOO.++X++    X       O  @@@@@@@@@@@@@@@@@@@@  O.+XXXXXXXXX.O",
"OOOOOOOO.+++.XXXXXX.++OOOOOO       @@@@@@@@ +   OOOO.+XXXXXX++.O",
"OOOOOOOOO..+.XXXXXXX.++OOOO++.OOOOO     O  +.OOOOOOOO.+XXXX+++.O",
"OOOOOOOOOO.+.XXXXXXXX.++O+++.OOOOOOOOOOOO..+.OOOOOOOO.++X++++.OO",
"OOOOOOOOOO..XXXXXXXXXX.++...OOOOOOOOOOOO.OOOOOOOOOOOOO.+++...OOO"
};
