/* XPM */
static const char *player_up_2[] = {
/* columns rows colors chars-per-pixel */
"64 64 7 1 ",
"  c #000001",
". c #270B0B",
"X c #3F0707",
"o c #77440F",
"O c #7C422E",
"+ c #463B79",
"@ c #E2C0A0",
/* pixels */
"XXXXXX.....XXXXXXXXXXX.....XXXXXXXXXXX.....XXXXXXXXXXX.....XXXXX",
"XXXXXXX...XXXXXXXXXXXXX...XXXXXXXXXXXXX...XXXXXXXXXXXXX...XXXXXX",
"XXXXXXX.X.OXXXXXXXXXXXX..XXXXXXXXXXXXXX.X.OXXXXXXXXXXXX..XXXXXXX",
"XXXXOO..X..OXXXXXXXXXO...OXXXXXXXXXXOO..X..OXXXXXXXXXO...OXXXXXX",
"XXXXO.XXXX..OOOOXXXXO.XX..OXXX XXXXXO.XXXX..OOOOXXXXO.XX..OXXXXX",
"XXOOO.XXXXX.O...OXOOO.XXX             XXXXX.O...OXOOO.XXX..OOOOX",
"XOO..XXXXXX...X.OOO..XXX ooooooooooooo XXXX...X.OOO..XXXXX.O...O",
"OO..XXXXXXXXXXX.OO..XX  ooooooooooooooo XXXXXXX.OO..XXXXXX...X.O",
"...XXXXXXXXXXXX....XX ooooo oooooooooooo XXXXXX....XXXXXXXXXXX.O",
"...OOXXXXXXXXXXXX.XX oooo  ooooooooo oooo XXXXXXX.XXXXXXXXXXXX..",
".X..OXXXXXXXXXXX...O oooooo  ooooooo ooooo XXXXX...OXXXXXXXXX...",
"XXX.OOOXXXXXO....X.. oooooooooooo ooo ooooo O....X..OXXXXXXX..XX",
"XXXX..OXXXXO..XXXXX. ooooooooooooo ooo oooo ..XXXXX..OXXXXXO.XXX",
"XXXXX.OOXXXO.XXXXXXX oooooooooooooo   ooooo .XXXXXXX..OXXOOO.XXX",
"XXXXXX.OOOOO.XXXXXX ooooooo ooooooooooooooo .XXXXXXXX.OOXO..XXXX",
"XXXXXX...O..XXXXXXXX oooo  ooooooooooooooo .XXXXXXXXXX.OOO.XXXXX",
"XXXXXXX....XXXXXXXXXX oo oooooooooooooooo .XXXXXXXXXXX....OXXXXX",
"XXXXXXX.X.OXXXXXXXXXX  oo ooooooo  oooooo  XXXXXXXXXXXX...OOXXXX",
"XXXXXX..X.OXXXXXXXXX @ ooo ooooo oo ooooo @ XXXXXXXXXXX.X..OOXXX",
"XXXXX.XXX..OOXXXXXXX @ oooooooo oooo oooo @ OXXXXXXXOO..XX..OOOO",
"XXXXX.XXXX..OOOOOXXX @ ooooooo oooooo ooo @ OOOOOXXXO.XXXXX.O...",
"XXO..XXXXXX.O...OXOOO  ooooooo oooooo ooo  .O...OXOOO.XXXXX...X.",
"OO..OXXXXXX...X.OOO..X oooooooo ooooo oo  X...X.OOO..XXXXXXXXXX.",
".....OXXXXXXXXX.OO..XXX      oo ooooo     XXXXX.OO..XXXXXXXXXXX.",
"...X..OXXXXXXXX....XXXX ++++    ooooo ++++ XXXX....XXXXXXXXXXXX.",
"XXXXX..OXXXXXXXXX.XXXX ++++++++ oooo ++++++ XXXXX.XXXXXXXXXXXXX.",
"XXXXXX..OXXXOOOO...XX +++++++++ ooo +++++++ OOOO...XXXXXXXXXXX.X",
"XXXXXXX.OOXOO....X..O   ++++++ ooo +++++++  O....X..OXXXXXXXXX.X",
"XXXXXXXX.OOO..XXXXX  +++  +++  oo +++++++ ++ .XXXXX..OXXXXXXOO.X",
"XXXXXXXX...O.XXXXX +++++++   ++  +++     ++++ XXXXXX..OXXXXO...X",
"OXXXXXXXX..O.XXXXX ++++++++++       ++++++++++ XXXXXX.OOXOOO..XX",
".OOOOOOOO...XXXXX +++++++++++++++++++++++++++++ XXXXXX.OO....XXX",
"...........XXXXXX +++++++++++++++++++++++++++++ XXXXXX.....XXXXX",
"XXXXXXX...XXXXXX ++++++++++++++++++++++ ++++++++ XXXXXX...XXXXXX",
"XXXXXXX.X.OXXXXX ++++++++++++++++++++++  +++++++ XXXXXX..XXXXXXX",
"XXXXOO..X..OXXX +++++ ++++++++++++++++++  ++++++ XXXXO...OXXXXXX",
"XXXXO.XXXX..OOO ++++ ++++++++++++++++++++ +++++++ XXO.XX..OXXXXX",
"XXOOO.XXXXX.O.. +++  +++++++++++++++++++++ ++++++ OOO.XXX..OOOOX",
"XOO..XXXXXX... ++++ ++++++++++++++++++++++ ++++++ O..XXXXX.O...O",
"OO..XXXXXXXXXX ++++ +++++++++++++++++++++++ +++++ ..XXXXXX...X.O",
"...XXXXXXXXXXX +++ ++++++++++++++++++++++++ +++++ .XXXXXXXXXXX.O",
"...OOXXXXXXXXX +++ +++++++++++++++++++++++++ ++++ XXXXXXXXXXXX..",
".X..OXXXXXXXX ++++ +++++++++++++++++++++++++ ++++ .OXXXXXXXXX...",
"XXX.OOOXXXXXO +++ ++++++++++++++++++++++++++ ++++ ..OXXXXXXX..XX",
"XXXX..OXXXXO. +++ ++++++++++++++++++++++++++ ++++ X..OXXXXXO.XXX",
"XXXXX.OOXXXO. +++ ++++++++++++++++++++++++++ ++++ XX..OXXOOO.XXX",
"XXXXXX.OOOOO. +++ ++++++++++++++++++++++++++ +++++ XX.OOXO..XXXX",
"XXXXXX...O.. +++++++++++++++++++++++++++++++ +++++ XXX.OOO.XXXXX",
"XXXXXXX....X +++++++++++++++++++++++++++++++++++++ XXX....OXXXXX",
"XXXXXXX.X.OX +++++++++++++++++++++++++++++++++++++ XXXX...OOXXXX",
"XXXXXX..X.OX ++++++++++++++++++++++++++++++++++++++ XXX.X..OOXXX",
"XXXXX.XXX.. +++++++++++++++++++++++++++++++++++++++ OO..XX..OOOO",
"XXXXX.XXXX. +++++++++++++++++ ++++++++++++++++++++++ .XXXXX.O...",
"XXO..XXXXXX +++++++++++++++++ ++++++++++++++++++++++ .XXXXX...X.",
"OO..OXXXXX ++++++++++++++++++ ++++++++++++++++++++++ XXXXXXXXXX.",
".....OXXXX ++++++++++++++++++ ++++++++++++++++++++++ XXXXXXXXXX.",
"...X..OXXXX +++++++++++++++++ ++++++++++++++++++++++ XXXXXXXXXX.",
"XXXXX..OXXXX   ++++++++++++++ ++++++++++++++++++++++ XXXXXXXXXX.",
"XXXXXX..OXXXOOO     +++++++++ +++++++++++++++++++++ XXXXXXXXXX.X",
"XXXXXXX.OOXOO....X..          +++++++++++++++++++  .OXXXXXXXXX.X",
"XXXXXXXX.OOO..XXXXX..OXXXXXXOO  +++++++++++++++  XX..OXXXXXXOO.X",
"XXXXXXXX...O.XXXXXXX..OXXXXO...X               XXXXX..OXXXXO...X",
"XXXXXXXXX..O.XXXXXXXX.OOXOOO..XXXXXXXXXXX..O.XXXXXXXX.OOXOOO..XX",
"XXXXXXXXX...XXXXXXXXXX.OO....XXXXXXXXXXXX...XXXXXXXXXX.OO....XXX"
};
