/* XPM */
static const char *player_right_1[] = {
/* columns rows colors chars-per-pixel */
"64 64 11 1 ",
"  c black",
". c #260A0A",
"X c #270A0B",
"o c #372108",
"O c #2E4313",
"+ c #76450F",
"@ c #44631E",
"# c #7C422E",
"$ c #463B78",
"% c #F8DC00",
"& c #E2C1A0",
/* pixels */
"@@@@@@@@..OOOOOOOOOOOOOO.@@@@@@@@@@@@@@@..@@@@@@@@@@@@.....@@@@@",
"@@@@@@@.@.OOOOOOOOOOOOOO.@@@@@@@@@@@@@@.O.@@@@@@@@@@@@@.@@@@@@@@",
"@@@@@@@.@.#OOOOOOOOOOOOO.@@@@@@@@@@@@@@.O.#@@@@@@@@@@@@.@@@@@@@@",
"@@@@##..@..#OOOOOOOOO  ..#              OO.# @@@@@@@@#...#@@@@@@",
"@@@@#.@@@@..####OOOO#. @  ++++++++++++++    ####@@@@#.@@@.#@@@@@",
"@@###.@@@@@.#..##O###.@ ++++++++++++++++++++ ..##@###.@@@@.####@",
"@##..@@@@@@@.@@.###..@ ++++++++++++++++++++++ O.####.@@@@@.#...#",
"##.@@@@@@@@@@@@.##.@@ +++++++++++++++++++++++ O.###.@@@@@@@.@@.#",
"...@@@@@@@@@@@@@..@@@ ++++++++++++++++++++++ OOO...@@@@@@@@@@@.#",
"OO.##@@@@@@@@@@@@.@@ ++++++++++++++++++++++  OOOO.@@@@@@@@@@@@..",
"OOO.#@@@@@@@@@@@...# +++++++++++++++++++++ ++ OOO.##@@@@@@@@@@..",
"OOO.###@@@@@#...@@@. +++++++++++++++ ++++ & + ...@.##@@@@@@@@.OO",
"OOOO.##@@@@#.@@@@@@@ +++++++++++++++ +++ &&  @@@@@@.##@@@@@#.OOO",
"OOOOO.##@@@#.@@@@@@@ +++++++++  +++  ++ &&& .@@@@@@@.##@@###.OOO",
"OOOOOO.#####.@@@@@@@ ++++++   && + & ++ &&& .@@@@@@@@.##@##.OOOO",
"OOOOOOO.##..@@@@@@@@@ ++++ && && + && + &&& @@@@@@@@@@.###.OOOOO",
"OOOOOOOO..#@@@@@@@@@@ +++ &&& &&  &&&   &&& @@@@@@@@@@....#OOOOO",
"OOOOOOO.@.#@@@@@@@@@  +++ %&& &&& &&&  &&&& @@@@@@@@@@@.@.##OOOO",
"OOOOOO.@@.#@@@@@@@  + +++ &&&&&&& &&&  &&&& @@@@@@@@@@@.@@.##OOO",
"OOOOO.@@@.###@@@  ++++ ++ &&&&&&&&&&&  &&&& #@@@@@@@##.@@@@.####",
"OOOOO.@@@@.#### ++++++ +++ &&&&&&&&&&&&&&&& #####@@@#.@@@@@.#...",
"OO##.@@@@@@.##. ++++++ ++++  &&&&&&&&&&&&&& #..##@###.@@@@@@.@@.",
"###.#@@@@@@@..@ +++++  +++ &&&&&&&&&&&&&&&& .@@.###..@@@@@@@@@@.",
"....##@@@@@@@@ +++   OO    &&&&&&&&&&&&&&& @@@@.##.@@@@@@@@@@@@.",
"####.##@@@@@@@ ++ OOOOOO $$  &&&&&&&&&&&& @@@@@@..@@@@@@@@@@@@@.",
"#####.##@@@@@    .OOOOO $$$$$       &&&& @@@@@@@@.@@@@@@@@@@@@@.",
"######.##@@@####..OOOOO $$$$$$$$$$$$    #@@@####...@@@@@@@@@@@.#",
"#######.##@##...@@..#OO $$$$$$$$$$$$$$ .##@##...OOO.#@@@@@@@@@.#",
"########.###.@@@@@@@.#O     $$$$$$$$$$$ .###.OOOOOOO.#@@@@@@##.#",
"#########..#.@@@@@@@@. $$$$$  $$$$$$$$$ O.##.OOOOOOOO.#@@@@##.##",
"##########.#.@@@@@@@@. $$$$$$$   $$$$$ OOO.#.OOOOOOOO.##@###.###",
"##########..@@@@@@@@@ $$$$$$$$$$$     ####..OOOOOOOOOO.##...####",
"#########.@@@@@@@@@@@ $$$ $$$$$$$$$$$$ #..OOOOOOOOOOOOO...######",
"########..@@@@@@@@@@ $$$$ $$$$$$$$$$$$ .#.OOOOOOOOOOOOO.########",
"#######.@.#@@@@@@@@@ $$$ $$$$$$$$$$$$$ .#.#OOOOOOOOOOOO.########",
"######.@@.##@@@@@@@ $$$$ $$$$$$ $$$$$$ ##.##OOOOOOOOO#..########",
"#####.@@@@.#####@@@ $$$ $$$$$$$ $$$$$$ ###.#####OOOO#.@@.#######",
"#####.@@@@@.##.##@ $$$$ $$$$$$ $$$$$$$ ####.#..##O###.@@@.######",
"####.@@@@@@@..@.## $$$$ $$$$$$ $$$$$$$ #####.##.###..@@@@@.##.##",
"###.@@@@@@@@@@@.## $$$ $$$$$$$ $$$$$$$ ########.##..@@@@@@...@.#",
"##.@@@@@@@@@@@@.. $$$$ $$$$$$$ $$$$$$$ #########...@@@@@@@@@@@.#",
"...##@@@@@@@@@@@@ $$$ $$$$$$$$ $$$$$$$  #########.@@@@@@@@@@@@..",
"@@..#@@@@@@@@@@@. $$$ $$$$$$$ $$$$$$$$  #########..#@@@@@@@@@@..",
"@@@.###@@@@@#...@ $$$ $$$$$$$ $$$$$$$$ #######...@@.#@@@@@@@@.@@",
"@@@@..#@@@@#.@@@ $$$ $$$$$$$$ $$$$$$$$ ######.@@@@@@.#@@@@@#.@@@",
"@@@@@.##@@@#.@@@ $$$$$$$$$$$$ $$$$$$$$ #####.@@@@@@@@.#@@###.@@@",
"@@@@@@.#####.@@@ $$$$$$$$$$$$ $$$$$$$$ #####.@@@@@@@@.##@#..@@@@",
"@@@@@@@.###.@@@@ $$$$$$$$$$$$ $$$$$$$$ ####.@@@@@@@@@@.###.@@@@@",
"@@@@@@@....@@@@@ $$$$$$$$$$$$$$$$$$$$$ ..#.@@@@@@@@@@@....#@@@@@",
"@@@@@@@.O.#@@@@@ $$ $$$$$$$$$$$$$$$$$$ .@.#@@@@@@@@@@@@.O.##@@@@",
"@@@@@@.OO.#@@@@@ $$ $$$$$$$$$$$$$$$$$$ @@.#@@@@@@@@@@@@.OO.##@@@",
"@@@@@.OOOO.##@@@ $$ $$$$$$$$$$$$$$$$$$ @@@.##@@@@@@@##.OOOO.####",
"@@@@@.OOOOO.#### $ $$$$$$$$$$$$$$$$$$$ @@@@.#####@@@#.OOOOO.#...",
"@@#..OOOOOO.#... $ $$$$$$$$$$$$$$$$$$$ @@@@.#...#@###.OOOOOO.OO.",
"##..#OOOOOOO.OO. $ $$$$$$$$$$$$$$$$$$$$  @@@.@@.###..OOOOOOOOOO.",
"..@@.#OOOOOOOOO.# . $$$$$$$$$$$$$$$$$$$ o @@@@@.##.OOOOOOOOOOOO.",
"@@@@@.#OOOOOOOOO..@@  $$$$$$$$$$$$$$$$$ oo @@@@@..OOOOOOOOOOOOO.",
"@@@@@@.#OOOOOOOOO.@@@@                 ooo @@@@@@.OOOOOOOOOOOOO.",
"@@@@@@@.#OOO#####.@@@@@@@ ooooooooo oooooo @#####..OOOOOOOOOOO.@",
"@@@@@@@.##O##....O.##@@@@@                @###...@@.#OOOOOOOOO.@",
"@@@@@@@@.###.OOOOOO.##@@@@@@##.@@@@@@@@@.####.@@@@@@.#OOOOOO##.@",
"@@@@@@@@@..#.OOOOOOO.##@@@@##.@@@@@@@@@@@.##.@@@@@@@@.#OOOO###.@",
"@@@@@@@@@@.#.OOOOOOOO.##@###.@@@@@@@@@@@@..#.@@@@@@@@.##O####.@@",
"@@@@@@@@@@..OOOOOOOOOO.##...@@@@@@@@@@@@.@@@@@@@@@@@@@.###...@@@"
};
