/* XPM */
static const char *player[] = {
/* columns rows colors chars-per-pixel */
"64 64 23 1 ",
"  c #1C5A76",
". c #1D5A76",
"X c #1C5B76",
"o c #1D5B76",
"O c #1C5A77",
"+ c #1D5A77",
"@ c #1C5B77",
"# c #1D5B77",
"$ c #F4CAAA",
"% c #F5CAAA",
"& c #F4CBAA",
"* c #F5CBAA",
"= c #F4CAAB",
"- c #F4CBAB",
"; c #F5CBAB",
": c #FFFEFE",
"> c #FEFFFE",
", c #FFFFFE",
"< c #FEFEFF",
"1 c #FFFEFF",
"2 c #FEFFFF",
"3 c white",
"4 c None",
/* pixels */
"444444444444444444444444OOOOOOOO4444OOOOOOOOOOOO4444444444444444",
"444444444444444444444444OOOOOOOO4444OOOOOOOOOOOO4444444444444444",
"444444444444444444444444OOOOOOOO4444OOOOOOOOOOOO4444444444444444",
"444444444444444444444444OOOOOOOO4444OOOOOOOOOOOO4444444444444444",
"11114444444444444444OOOOOOOO4444OOOOOOOOOOOOO4444444OOOO44444444",
"11114444444444444444OOOOOOOO4444OOOOOOOOOOOOO4444444OOOO44444444",
"11114444444444444444OOOOOOOO4444OOOOOOOOOOOOO4444444OOOO44444444",
"11114444444444444444OOOOOOOO4444OOOOOOOOOOOOO4444444OOOO44444444",
"1111444444444444OOOOOOOOOOOO11111111OOOOOOOOOOOOOOOOOOOO44444444",
"1111444444444444OOOOOOOOOOOO11111111OOOOOOOOOOOOOOOOOOOO44444444",
"1111444444444444OOOOOOOOOOOO11111111OOOOOOOOOOOOOOOOOOOO44444444",
"1111444444444444OOOOOOOOOOOO11111111OOOOOOOOOOOOOOOOOOOO44444444",
"1111444444444444OOOOOOOO1111OOOOOOOO1111OOOOOOOOOOOOOOOO44444444",
"1111444444444444OOOOOOOO1111OOOOOOOO1111OOOOOOOOOOOOOOOO44444444",
"1111444444444444OOOOOOOO1111OOOOOOOO1111OOOOOOOOOOOOOOOO44444444",
"1111444444444444OOOOOOOO1111OOOOOOOO1111OOOOOOOOOOOOOOOO44444444",
"111144444444OOOO111111111111OOOOOOOO111111111111OOOO444444444444",
"111144444444OOOO111111111111OOOOOOOO111111111111OOOO444444444444",
"111144444444OOOO111111111111OOOOOOOO111111111111OOOO444444444444",
"111144444444OOOO111111111111OOOOOOOO111111111111OOOO444444444444",
"1111444444441111OOOO----OOOO--------OOOO----OOOO1111444444444444",
"1111444444441111OOOO----OOOO--------OOOO----OOOO1111444444444444",
"1111444444441111OOOO----OOOO--------OOOO----OOOO1111444444444444",
"1111444444441111OOOO----OOOO--------OOOO----OOOO1111444444444444",
"1111444444444444--------OOOO--------OOOO--------1111111111114444",
"1111444444444444--------OOOO--------OOOO--------1111111111114444",
"1111444444444444--------OOOO--------OOOO--------1111111111114444",
"1111444444444444--------OOOO--------OOOO--------1111111111114444",
"11114444OOOOOOOOOOOO----------------OOOO----1111OOOOOOOOOOOO1111",
"11114444OOOOOOOOOOOO------------------------1111OOOOOOOOOOOO1111",
"11114444OOOOOOOOOOOO------------------------1111OOOOOOOOOOOO1111",
"11114444OOOOOOOOOOOO------------------------1111OOOOOOOOOOOO1111",
"1111OOOOOOOOOOOOOOOO11111111OOOOOOOOOOOOOOOO1111----OOOO----1111",
"1111OOOOOOOOOOOOOOOO11111111OOOOOOOOOOOOOOOO1111----OOOO----1111",
"1111OOOOOOOOOOOOOOOO11111111OOOOOOOOOOOOOOOO1111----OOOO----1111",
"1111OOOOOOOOOOOOOOOO11111111OOOOOOOOOOOOOOOO1111----OOOO----1111",
"OOOOOOOO----1111OOOOOOOOOOOO11111111OOOOOOOO1111OOOO----OOOO1111",
"OOOOOOOO----1111OOOOOOOOOOOO11111111OOOOOOOO1111OOOO----OOOO1111",
"OOOOOOOO----1111OOOOOOOOOOOO11111111OOOOOOOO1111OOOO----OOOO1111",
"OOOOOOOO----1111OOOOOOOOOOOO11111111OOOOOOOO1111OOOO----OOOO1111",
"--------OOOO1111OOOOOOOOOOOOOOOOOOOO111111111111OOOO--------1111",
"--------OOOO1111OOOOOOOOOOOOOOOOOOOO111111111111OOOO--------1111",
"--------OOOO1111OOOOOOOOOOOOOOOOOOOO111111111111OOOO--------1111",
"--------OOOO1111OOOOOOOOOOOOOOOOOOOO111111111111OOOO--------1111",
"44444444OOOO111111111111----11111111--------1111OOOOOOOOOOOO1111",
"44444444OOOO111111111111----11111111--------1111OOOOOOOOOOOO1111",
"44444444OOOO111111111111----11111111--------1111OOOOOOOOOOOO1111",
"44444444OOOO111111111111----11111111--------1111OOOOOOOOOOOO1111",
"4444OOOO1111OOOO11111111OOOOOOOOOOOOOOOOOOOOOOOO1111111111114444",
"4444OOOO1111OOOO11111111OOOOOOOOOOOOOOOOOOOOOOOO1111111111114444",
"4444OOOO1111OOOO11111111OOOOOOOOOOOOOOOOOOOOOOOO1111111111114444",
"4444OOOO1111OOOO11111111OOOOOOOOOOOOOOOOOOOOOOOO1111111111114444",
"4444OOOO1111----------------OOOOOOOOOOOOOOOOOOOOOOOO1111OOOO4444",
"4444OOOO1111----------------OOOOOOOOOOOOOOOOOOOOOOOO1111OOOO4444",
"4444OOOO1111----------------OOOOOOOOOOOOOOOOOOOOOOOO1111OOOO4444",
"4444OOOO1111----------------OOOOOOOOOOOOOOOOOOOOOOOO1111OOOO4444",
"OOOO11111111--------------------1111------------111111111111OOOO",
"OOOO11111111--------------------1111------------111111111111OOOO",
"OOOO11111111--------------------1111------------111111111111OOOO",
"OOOO11111111--------------------1111------------111111111111OOOO",
"4444444444444444----------------44444444444444444444444444444444",
"4444444444444444----------------44444444444444444444444444444444",
"4444444444444444----------------44444444444444444444444444444444",
"4444444444444444----------------44444444444444444444444444444444"
};
