/* XPM */
static const char *player_right_2[] = {
/* columns rows colors chars-per-pixel */
"64 64 9 1 ",
"  c #010100",
". c #270B0A",
"X c #3F0707",
"o c #372109",
"O c #76440E",
"+ c #7C422E",
"@ c #463A78",
"# c #E3C1A0",
"$ c white",
/* pixels */
"XXXXXX.....XXXXXXXXXXX.....XXXXXXXXXXX.....XXXXXXXXXXX.....XXXXX",
"XXXXXXX...XXXXXXXXXXXXX...XXXXXXXXXXXXX...XXXXXXXXXXXXX...XXXXXX",
"XXXXXXX.X.+XXXXXXXXXXXX..XXXXXXXXXXXXXX.X.+XXXXXXXXXXXX..XXXXXXX",
"XXXX++..X..+XXXXXXXXX ...+XXXXXXXXXX++..X..+XXXXXXXXX+...+XXXXXX",
"XXXX+.XXXX..++++XXXX+. X..+XXXXXXXXX+.XXXX..++++XXXX+.XX..+XXXXX",
"XX+++.XXXXX.+...+X+++. XX.              XXX. ...+X+++.XXX..++++X",
"X++..XXXXXX...X.+++. X    OOOOOOOOOOOOOO    ..X.+++..XXXXX.+...+",
"++..XXXXXXXXXXX.++..X   OOOOOOOOOOOOOOOOOOOO XX.++..XXXXXX...X.+",
"...XXXXXXXXXXXX....XX  OOOOOOOOOOOOOOOOOOOOOO X....XXXXXXXXXXX.+",
"...++XXXXXXXXXXXX.XXX OOOOOOOOOOOOOOOOOOOOOOO XXX.XXXXXXXXXXXX..",
".X..+XXXXXXXXXXX...+  OOOOOOOOOOOOOOOOOOOOOO X X...+XXXXXXXXX...",
"XXX.+++XXXXX+....X.. OOOOOOOOOOOOOOOOOOOOOOO  O .X..+XXXXXXX..XX",
"XXXX..+XXXX+..XXXXX. OOOOOOOOOOOOOOOOOOOO  OOO XXXX..+XXXXX+.XXX",
"XXXXX.++XXX+.XXXXXXX OOOOOOOOOOOOOOO OOO  #   XXXXXX..+XX+++.XXX",
"XXXXXX.+++++.XXXXXXX OOOOOOOOOOOOOOO OO  ## .XXXXXXXX.++X+..XXXX",
"XXXXXX...+..XXXXXXXX OOOOOOOOO   OO   O ### XXXXXXXXXX.+++.XXXXX",
"XXXXXXX....X XXXXXXX  OOOO    ## O ##    ## XXXXXXXXXX....+XXXXX",
"XXXXXXX.X.+XX XXXXXXX OOO  ## ## O ##  #### XXXXXXXXXXX...++XXXX",
"XXXXXX..X.+XX XXXXXXX OOO ### ##  ###  #### XXXXXXXXXXX.X..++XXX",
"XXXXX.XXX..++  XXXXX  OOO ### ### ###  #### +XXXXXXX++..XX..++++",
"XXXXX.XXXX..+ O     O OOO ####### ###  #### +++++XXX+.XXXXX.+...",
"XX+..XXXXXX.+ OOOOOOO  OO ###########  #### +...+X+++.XXXXX...X.",
"++..+XXXXXX... OOOOOOO OO  ################ ..X.+++..XXXXXXXXXX.",
".....+XXXXXXXXX OOOOOO OOO   ############## XXX.++..XXXXXXXXXXX.",
"...X..+XXXXXXXX. OOOO  OOO  ############### XXX....XXXXXXXXXXXX.",
"XXXXX..+XXXXXXXXX    XX    @        ###### XXXXXX.XXXXXXXXXXXXX.",
"XXXXXX..+XXX++++...XXXX  @@@@@@@@@@@  ### XX++++...XXXXXXXXXXX.X",
"XXXXXXX.++X++....X..+XX @@@@@@@@@@@@@@   +X++....X..+XXXXXXXXX.X",
"XXXXXXXX.+++..XXXXX..+X @@@@@@@@@@@@@@@ .+++..XXXXX..+XXXXXX++.X",
"XXXXXXXX...+.XXXXXXX..+        @@@@@@@@ ...+.XXXXXXX..+XXXX+...X",
"+XXXXXXXX..+.XXXXXXXX.  @@@@@@@   @@@@  X..+.XXXXXXXX.++X+++..XX",
".++++++++...XXXXXXXXXX @@@@@@@@@@@     ++...XXXXXXXXXX.++....XXX",
"...........XXXXXXXXXX  @@@@@@@@@@@@@@  ....XXXXXXXXXXX.....XXXXX",
"XXXXXXX...XXXXXXXXXXX @@@@@@@@@@@@@@@  ...XXXXXXXXXXXXX...XXXXXX",
"XXXXXXX.X.+XXXXXXXXXX @@ @@@@@@@@@@@@  .X.+XXXXXXXXXXXX..XXXXXXX",
"XXXX++..X..+XXXXXXXX @@@ @@@@@@@@@@@@  .X..+XXXXXXXXX+...+XXXXXX",
"XXXX+.XXXX..++++XXXX @@ @@@@@@ @@@@@@  XXX..++++XXXX+.XX..+XXXXX",
"XX+++.XXXXX.+...+X+ @@@ @@@@@@ @@@@@ $ XXXX.+...+X+++.XXX..++++X",
"X++..XXXXXX...X.+++ @@ @@@@@@ @@@@@@ $ XXXX...X.+++..XXXXX.+...+",
"++..XXXXXXXXXXX.++ @@@ @@@@@@ @@@@@@ $ XXXXXXXX.++..XXXXXX...X.+",
"...XXXXXXXXXXXX... @@@ @@@@@@ @@@@@@ $ XXXXXXXX....XXXXXXXXXXX.+",
"...++XXXXXXXXXXXX. @@ @@@@@@@ @@@@@@ $ XXXXXXXXXX.XXXXXXXXXXXX..",
".X..+XXXXXXXXXXX. @@@ @@@@@@@ @@@@@@    XXXXXXXX...+XXXXXXXXX...",
"XXX.+++XXXXX+.... @@ @@@@@@@ @@@@@@@ oo XXXX+....X..+XXXXXXX..XX",
"XXXX..+XXXX+..XXX @@ @@@@@@@ @@@@@@@ oo XXX+..XXXXX..+XXXXX+.XXX",
"XXXXX.++XXX+.XXXX @@ @@@@@@@ @@@@@@@    XXX+.XXXXXXX..+XX+++.XXX",
"XXXXXX.+++++.XXX @@@ @@@@@@@ @@@@@@@ $ +++++.XXXXXXXX.++X+..XXXX",
"XXXXXX...+..XXXX @@ @@@@@@@@ @@@@@@@ $ ..+..XXXXXXXXXX.+++.XXXXX",
"XXXXXXX....XXXXX @@@@@@@@@@@ @@@@@@@   ....XXXXXXXXXXX....+XXXXX",
"XXXXXXX.X.+XXXXX @@@@@@@@@@@ @@@@@@@ $ .X.+XXXXXXXXXXXX...++XXXX",
"XXXXXX..X.+XXXXX @@@@@@@@@@@@@@@@@@@ $ .X.+XXXXXXXXXXXX.X..++XXX",
"XXXXX.XXX..++XXX @@ @@@@@@@@@@@@@@@@   XX..++XXXXXXX++..XX..++++",
"XXXXX.XXXX..++++ @@ @@@@@@@@@@@@@@@@ o XXX..+++++XXX+.XXXXX.+...",
"XX+..XXXXXX.+... @@ @@@@@@@@@@@@@@@@ o XXXX.+...+X+++.XXXXX...X.",
"++..+XXXXXX...X. @ @@@@@@@@@@@@@@@@@ o   XX...X.+++..XXXXXXXXXX.",
".....+XXXXXXXXX. @ @@@@@@@@@@@@@@@@@ ooo   XXXX.++..XXXXXXXXXXX.",
"...X..+XXXXXXXX. @ @@@@@@@@@@@@@@@@@  oooo XXXX....XXXXXXXXXXXX.",
"XXXXX..+XXXXXXXX    @@@@@@@@@@@@@@@@@   oo XXXXXX.XXXXXXXXXXXXX.",
"XXXXXX..+XXX++++...X  @@@@@@@@@@@@@@@@  oo X++++...XXXXXXXXXXX.X",
"XXXXXXX.++X++....X..+X                     ++....X..+XXXXXXXXX.X",
"XXXXXXXX.+++..XXXXX..+XXXXXX++.XXXXXXXXX.+++..XXXXX..+XXXXXX++.X",
"XXXXXXXX...+.XXXXXXX..+XXXX+...XXXXXXXXX...+.XXXXXXX..+XXXX+...X",
"XXXXXXXXX..+.XXXXXXXX.++X+++..XXXXXXXXXXX..+.XXXXXXXX.++X+++..XX",
"XXXXXXXXX...XXXXXXXXXX.++....XXXXXXXXXXXX...XXXXXXXXXX.++....XXX"
};
