/* XPM */
static const char *player_left_1[] = {
/* columns rows colors chars-per-pixel */
"64 64 9 1 ",
"  c #010000",
". c #260B0A",
"X c #3E0707",
"o c #362009",
"O c #76440E",
"+ c #7C432E",
"@ c #473B78",
"# c #F9DC00",
"$ c #E2C1A0",
/* pixels */
"XXXXXX.....XXXXXXXXXXX.....XXXXXXXXXXX.....XXXXXXXXXXX.....XXXXX",
"XXXXXXX...XXXXXXXXXXXXX...XXXXXXXXXXXXX...XXXXXXXXXXXXX...XXXXXX",
"XXXXXXX.X.+XXXXXXXXXXXX..XXXXXXXXXXXXXX.X.+XXXXXXXXXXXX..XXXXXXX",
"XXXX++..X..+XXXXXXX X+..              ..X  +XXXXXXXXX+...+XXXXXX",
"XXXX+.XXXX..++++XXXX    OOOOOOOOOOOOOO    ..++++XXXX+.XX..+XXXXX",
"XX+++.XXXXX.+...+X  OOOOOOOOOOOOOOOOOOO   X.+...+X+++.XXX..++++X",
"X++..XXXXXX...X.++ OOOOOOOOOOOOOOOOOOOOOO  ...X.+++..XXXXX.+...+",
"++..XXXXXXXXXXX.++ OOOOOOOOOOOOOOOOOOOOOOO XXXX.++..XXXXXX...X.+",
"...XXXXXXXXXXXX...  OOOOOOOOOOOOOOOOOOOOOO  XXX....XXXXXXXXXXX.+",
"...++XXXXXXXXXXXX.   OOOOOOOOOOOOOOOOOOOOOO XXXXX.XXXXXXXXXXXX..",
".X..+XXXXXXXXXXX.. OO  OOOOOOOOOOOOOOOOOOOO XXXX...+XXXXXXXXX...",
"XXX.+++XXXXX+....X O $  OOO OOOOOOOOOOOOOOO +....X..+XXXXXXX..XX",
"XXXX..+XXXX+..XXXX   $$  OO OOOOOOOOOOOOOOO ..XXXXX..+XXXXX+.XXX",
"XXXXX.++XXX+.XXXXXXX $$$ OO  OO   OOOOOOOOO .XXXXXXX..+XX+++.XXX",
"XXXXXX.+++++.XXXXXXX $$$ OO $ O $$    OOOO  .XXXXXXXX.++X+..XXXX",
"XXXXXX...+..XXXXXXXX $$$ O $$ O $$ $$  OOO .XXXXXXXXXX.+++.XXXXX",
"XXXXXXX....XXXXXXXXX $$$   $$$  $$ $$$ OOO XXXXXXXXXXX....+XXXXX",
"XXXXXXX.X.+XXXXXXXXX $$$$  $$$ $$$ $$# OOO  XXXXXXXXXXX...++XXXX",
"XXXXXX..X.+XXXXXXXXX $$$$  $$$ $$$$$$$ OOO O  XXXXXXXXX.X..++XXX",
"XXXXX.XXX..++XXXXXXX $$$$  $$$$$$$$$$$ OO  OOO  XXXX++..XX..++++",
"XXXXX.XXXX..+++++XXX $$$$$$$$$$$$$$$$  OO OOOOOO XXX+.XXXXX.+...",
"XX+..XXXXXX.+...+X++ $$$$$$$$$$$$$$   OOO OOOOOO X+++.XXXXX...X.",
"++..+XXXXXX...X.+++. $$$$$$$$$$$$$$$$ OOO  OOOOO ++..XXXXXXXXXX.",
".....+XXXXXXXXX.++..X $$$$$$$$$$$$$$$         OOO ..XXXXXXXXXXX.",
"...X..+XXXXXXXX....XXX $$$$$$$$$$$$   @  XXXX  OO .XXXXXXXXXXXX.",
"XXXXX..+XXXXXXXXX.XXXXX $$$$       @@@@@ XXXXX     XXXXXXXXXXXX.",
"XXXXXX..+XXX++++...XXXXX    @@@@@@@@@@@@ XXX++++...XXXXXXXXXXX.X",
"XXXXXXX.++X++....X..+XXXX @@@@@@@@@@@@@@ +X++....X..+XXXXXXXXX.X",
"XXXXXXXX.+++..XXXXX..+XX @@@@@@@@@@@      ++..XXXXX..+XXXXXX++.X",
"XXXXXXXX...+.XXXXXXX..+X @@@@@@@@@   @@@@ .+.XXXXXXX..+XXXX+...X",
"+XXXXXXXX..+.XXXXXXXX.++X @@@@@   @@@@@@@  +.XXXXXXXX.++X+++..XX",
".++++++++...XXXXXXXXXX.++      @@@@@@@@@@@ .XXXXXXXXXX.++....XXX",
"...........XXXXXXXXXXX... @@@@@@@@@@@@ @@@ XXXXXXXXXXX.....XXXXX",
"XXXXXXX...XXXXXXXXXXXXX.. @@@@@@@@@@@@ @@@@ XXXXXXXXXXX...XXXXXX",
"XXXXXXX.X.+XXXXXXXXXXXX.. @@@@@@@@@@@@@ @@@ XXXXXXXXXXX..XXXXXXX",
"XXXX++..X..+XXXXXXXXX+... @@@@@@ @@@@@@ @@@@ XXXXXXXX+...+XXXXXX",
"XXXX+.XXXX..++++XXXX+.XX. @@@@@@ @@@@@@@ @@@ +++XXXX+.XX..+XXXXX",
"XX+++.XXXXX.+...+X+++.XXX @@@@@@@ @@@@@@ @@@@ ..+X+++.XXX..++++X",
"X++..XXXXXX...X.+++..XXXX @@@@@@@ @@@@@@ @@@@ X.+++..XXXXX.+...+",
"++..XXXXXXXXXXX.++..XXXXX @@@@@@@ @@@@@@@ @@@ X.++..XXXXXX...X.+",
"...XXXXXXXXXXXX....XXXXX  @@@@@@@ @@@@@@@ @@@@ ....XXXXXXXXXXX.+",
"...++XXXXXXXXXXXX.XXXXXX  @@@@@@@ @@@@@@@@ @@@ XX.XXXXXXXXXXXX..",
".X..+XXXXXXXXXXX...+XXXX  @@@@@@@@ @@@@@@@ @@@ X...+XXXXXXXXX...",
"XXX.+++XXXXX+....X..+XXXX @@@@@@@@ @@@@@@@ @@@ ..X..+XXXXXXX..XX",
"XXXX..+XXXX+..XXXXX..+XXX @@@@@@@@ @@@@@@@@ @@@ XXX..+XXXXX+.XXX",
"XXXXX.++XXX+.XXXXXXX..+XX @@@@@@@@ @@@@@@@@@@@@ XXXX..+XX+++.XXX",
"XXXXXX.+++++.XXXXXXXX.++X @@@@@@@@ @@@@@@@@@@@@ XXXXX.++X+..XXXX",
"XXXXXX...+..XXXXXXXXXX.++ @@@@@@@@ @@@@@@@@@@@@ XXXXXX.+++.XXXXX",
"XXXXXXX....XXXXXXXXXXX... @@@@@@@@@@@@@@@@@@@@@ XXXXXX....+XXXXX",
"XXXXXXX.X.+XXXXXXXXXXXX.. @@@@@@@@@@@@@@@@@@ @@ XXXXXXX...++XXXX",
"XXXXXX..X.+XXXXXXXXXXXX.X @@@@@@@@@@@@@@@@@@ @@ XXXXXXX.X..++XXX",
"XXXXX.XXX..++XXXXXXX++..X @@@@@@@@@@@@@@@@@@ @@ XXXX++..XX..++++",
"XXXXX.XXXX..+++++XXX+.XXX @@@@@@@@@@@@@@@@@@@ @ +XXX+.XXXXX.+...",
"XX+..XXXXXX.+...+X+++.XX  @@@@@@@@@@@@@@@@@@@ @ +X+++.XXXXX...X.",
"++..+XXXXXX...X.+++..XX  @@@@@@@@@@@@@@@@@@@@ @ +++..XXXXXXXXXX.",
".....+XXXXXXXXX.++..X    @@@@@@@@@@@@@@@@@@@    ++..XXXXXXXXXXX.",
"...X..+XXXXXXXX....XX oo @@@@@@@@@@@@@@@@@  XXX....XXXXXXXXXXXX.",
"XXXXX..+XXXXXXXXX.XX  oo                  XXXXXXX.XXXXXXXXXXXXX.",
"XXXXXX..+XXX++++...X ooooooo ooooooooo .+XXX++++...XXXXXXXXXXX.X",
"XXXXXXX.++X++....X..+                  .++X++....X..+XXXXXXXXX.X",
"XXXXXXXX.+++..XXXXX..+XXXXXX++.XXXXXXXXX.+++..XXXXX..+XXXXXX++.X",
"XXXXXXXX...+.XXXXXXX..+XXXX+...XXXXXXXXX...+.XXXXXXX..+XXXX+...X",
"XXXXXXXXX..+.XXXXXXXX.++X+++..XXXXXXXXXXX..+.XXXXXXXX.++X+++..XX",
"XXXXXXXXX...XXXXXXXXXX.++....XXXXXXXXXXXX...XXXXXXXXXX.++....XXX"
};
