/* XPM */
static const char *player_right_2[] = {
/* columns rows colors chars-per-pixel */
"64 64 12 1 ",
"  c #010100",
". c #260A0A",
"X c #270A0B",
"o c #372109",
"O c #2E4313",
"+ c #76440E",
"@ c #44631E",
"# c #7C422E",
"$ c #463A78",
"% c #F9DC00",
"& c #E3C1A0",
"* c white",
/* pixels */
"@@@@@@@@..OOOOOOOOOOOOOO.@@@@@@@@@@@@@@@..@@@@@@@@@@@@.....@@@@@",
"@@@@@@@.@.OOOOOOOOOOOOOO.@@@@@@@@@@@@@@.O.@@@@@@@@@@@@@.@@@@@@@@",
"@@@@@@@.@.#OOOOOOOOOOOOO.@@@@@@@@@@@@@@.O.#@@@@@@@@@@@@.@@@@@@@@",
"@@@@##..@..#OOOOOOOOO ...#@@@@@@@@@@##.OOO.#@@@@@@@@@#...#@@@@@@",
"@@@@#.@@@@..####OOOO#. @@.#@@@@@@@@@#.OOOOO.####@@@@#.@@@.#@@@@@",
"@@###.@@@@@.#..##O###. @@@              OOO. ..##@###.@@@@.####@",
"@##..@@@@@@@.@@.###. @ @  ++++++++++++++    .OO.####.@@@@@.#...#",
"##.@@@@@@@@@@@@.##.@@   ++++++++++++++++++++ OO.###.@@@@@@@.@@.#",
"...@@@@@@@@@@@@@..@@@  ++++++++++++++++++++++ OO...@@@@@@@@@@@.#",
"OO.##@@@@@@@@@@@@.@@@ +++++++++++++++++++++++ OOO.@@@@@@@@@@@@..",
"OOO.#@@@@@@@@@@@...#@ ++++++++++++++++++++++ O OO.##@@@@@@@@@@..",
"OOO.###@@@@@#...@@@. +++++++++++++++++++++++  + .@.##@@@@@@@@.OO",
"OOOO.##@@@@#.@@@@@@@ ++++++++++++++++++++  +++ @@@@.##@@@@@#.OOO",
"OOOOO.##@@@#.@@@@@@@ +++++++++++++++ +++  &   @@@@@@.##@@###.OOO",
"OOOOOO.#####.@@@@@@@ +++++++++++++++ ++  && .@@@@@@@@.##@##.OOOO",
"OOOOOOO.##..@@@@@@@@ +++++++++   ++   + &&& @@@@@@@@@@.###.OOOOO",
"OOOOOOOO..#@ @@@@@@@@ ++++    && + &&    && @@@@@@@@@@....#OOOOO",
"OOOOOOO.@.#@@ @@@@@@@ +++  && && + &&  &&&& @@@@@@@@@@@.@.##OOOO",
"OOOOOO.@@.#@@ @@@@@@@ +++ &&& &&  &&&  &&&& @@@@@@@@@@@.@@.##OOO",
"OOOOO.@@@.###  @@@@@  +++ %&& &&& &&&  &&&& #@@@@@@@##.@@@@.####",
"OOOOO.@@@@.## +     + +++ &&&&&&& &&&  &&&& #####@@@#.@@@@@.#...",
"OO##.@@@@@@.# +++++++  ++ &&&&&&&&&&&  &&&& #..##@###.@@@@@@.@@.",
"###.#@@@@@@@.. +++++++ ++  &&&&&&&&&&&&&&&& .@@.###..@@@@@@@@@@.",
"....##@@@@@@@@@ ++++++ +++   &&&&&&&&&&&&&& @@@.##.@@@@@@@@@@@@.",
"####.##@@@@@@@@. ++++  +++  &&&&&&&&&&&&&&& @@@@..@@@@@@@@@@@@@.",
"#####.##@@@@@@@@@    OO    $        &&&&&& @@@@@@.@@@@@@@@@@@@@.",
"######.##@@@####..OOOOOO $$$$$$$$$$$  &&& @@####...@@@@@@@@@@@.#",
"#######.##@##...@@..#OO $$$$$$$$$$$$$$   #@##...OOO.#@@@@@@@@@.#",
"########.###.@@@@@@@.#O $$$$$$$$$$$$$$$ .###.OOOOOOO.#@@@@@@##.#",
"#########..#.@@@@@@@@.#        $$$$$$$$ O.##.OOOOOOOO.#@@@@##.##",
"##########.#.@@@@@@@@. $$$$$$$$   $$$$ OOO.#.OOOOOOOO.##@###.###",
"##########..@@@@@@@@@@ $$$$$$$$$$$     ###..OOOOOOOOOO.##...####",
"#########.@@@@@@@@@@@ $$$$$$$$$$$$$$$  #..OOOOOOOOOOOOO...######",
"########..@@@@@@@@@@@ $$$$$$$$$$$$$$$  .#.OOOOOOOOOOOOO.########",
"#######.@.#@@@@@@@@@@ $$ $$$$$$$$$$$ * .#.#OOOOOOOOOOOO.########",
"######.@@.##@@@@@@@@ $$$ $$$$$$$$$$$ * ##.##OOOOOOOOO#..########",
"#####.@@@@.#####@@@@ $$ $$$$$$ $$$$$ * ###.#####OOOO#.@@.#######",
"#####.@@@@@.##.##@# $$$ $$$$$$ $$$$$ * ####.#..##O###.@@@.######",
"####.@@@@@@@..@.### $$ $$$$$$ $$$$$$ * #####.##.###..@@@@@.##.##",
"###.@@@@@@@@@@@.## $$$ $$$$$$ $$$$$$ * ########.##..@@@@@@...@.#",
"##.@@@@@@@@@@@@... $$$ $$$$$$ $$$$$$ * #########...@@@@@@@@@@@.#",
"...##@@@@@@@@@@@@. $$ $$$$$$$ $$$$$$ * ##########.@@@@@@@@@@@@..",
"@@..#@@@@@@@@@@@. $$$ $$$$$$$ $$$$$$   ##########..#@@@@@@@@@@..",
"@@@.###@@@@@#...@ $$ $$$$$$$ $$$$$$$ oo ######...@@.#@@@@@@@@.@@",
"@@@@..#@@@@#.@@@@ $$ $$$$$$$ $$$$$$$ oo #####.@@@@@@.#@@@@@#.@@@",
"@@@@@.##@@@#.@@@@ $$ $$$$$$$ $$$$$$$   #####.@@@@@@@@.#@@###.@@@",
"@@@@@@.#####.@@@ $$$ $$$$$$$ $$$$$$$ * #####.@@@@@@@@.##@#..@@@@",
"@@@@@@@.###.@@@@ $$ $$$$$$$$ $$$$$$$ * ####.@@@@@@@@@@.###.@@@@@",
"@@@@@@@....@@@@@ $$$$$$$$$$$ $$$$$$$   ..#.@@@@@@@@@@@....#@@@@@",
"@@@@@@@.O.#@@@@@ $$$$$$$$$$$ $$$$$$$ * .@.#@@@@@@@@@@@@.O.##@@@@",
"@@@@@@.OO.#@@@@@ $$$$$$$$$$$$$$$$$$$ * @@.#@@@@@@@@@@@@.OO.##@@@",
"@@@@@.OOOO.##@@@ $$ $$$$$$$$$$$$$$$$   @@@.##@@@@@@@##.OOOO.####",
"@@@@@.OOOOO.#### $$ $$$$$$$$$$$$$$$$ o @@@@.#####@@@#.OOOOO.#...",
"@@#..OOOOOO.#... $$ $$$$$$$$$$$$$$$$ o @@@@.#...#@###.OOOOOO.OO.",
"##..#OOOOOOO.OO. $ $$$$$$$$$$$$$$$$$ o   @@@.@@.###..OOOOOOOOOO.",
"..@@.#OOOOOOOOO. $ $$$$$$$$$$$$$$$$$ ooo  @@@@@.##.OOOOOOOOOOOO.",
"@@@@@.#OOOOOOOOO $ $$$$$$$$$$$$$$$$$  oooo @@@@@..OOOOOOOOOOOOO.",
"@@@@@@.#OOOOOOOOO   $$$$$$$$$$$$$$$$$  ooo @@@@@@.OOOOOOOOOOOOO.",
"@@@@@@@.#OOO#####.@@  $$$$$$$$$$$$$$$$$ oo @#####..OOOOOOOOOOO.@",
"@@@@@@@.##O##....O.##@                    @###...@@.#OOOOOOOOO.@",
"@@@@@@@@.###.OOOOOO.##@@@@@@##.@@@@@@@@@.####.@@@@@@.#OOOOOO##.@",
"@@@@@@@@@..#.OOOOOOO.##@@@@##.@@@@@@@@@@@.##.@@@@@@@@.#OOOO###.@",
"@@@@@@@@@@.#.OOOOOOOO.##@###.@@@@@@@@@@@@..#.@@@@@@@@.##O####.@@",
"@@@@@@@@@@..OOOOOOOOOO.##...@@@@@@@@@@@@.@@@@@@@@@@@@@.###...@@@"
};
