/* XPM */
static const char *player_right_1[] = {
/* columns rows colors chars-per-pixel */
"64 64 8 1 ",
"  c black",
". c #260B0A",
"X c #3F0606",
"o c #372109",
"O c #76440E",
"+ c #7C432E",
"@ c #463B78",
"# c #E3C1A0",
/* pixels */
"XXXXXX.....XXXXXXXXXXX.....XXXXXXXXXXX.....XXXXXXXXXXX.....XXXXX",
"XXXXXXX...XXXXXXXXXXXXX...XXXXXXXXXXXXX...XXXXXXXXXXXXX...XXXXXX",
"XXXXXXX.X.+XXXXXXXXXXXX..XXXXXXXXXXXXXX.X.+XXXXXXXXXXXX..XXXXXXX",
"XXXX++..X..+XXXXXXXXX  ..+              X..+ XXXXXXXX+...+XXXXXX",
"XXXX+.XXXX..++++XXXX+.    OOOOOOOOOOOOOO    ++++XXXX+.XX..+XXXXX",
"XX+++.XXXXX.+...+X+++.   OOOOOOOOOOOOOOOOOOO  ..+X+++.XXX..++++X",
"X++..XXXXXX...X.+++..  OOOOOOOOOOOOOOOOOOOOOO X.+++..XXXXX.+...+",
"++..XXXXXXXXXXX.++..X OOOOOOOOOOOOOOOOOOOOOOO X.++..XXXXXX...X.+",
"...XXXXXXXXXXXX....X  OOOOOOOOOOOOOOOOOOOOOO  X....XXXXXXXXXXX.+",
"...++XXXXXXXXXXXX.XX OOOOOOOOOOOOOOOOOOOOOO   XXX.XXXXXXXXXXXX..",
".X..+XXXXXXXXXXX...+ OOOOOOOOOOOOOOOOOOOO  OO XX...+XXXXXXXXX...",
"XXX.+++XXXXX+....X.. OOOOOOOOOOOOOOO OOO  # O ...X..+XXXXXXX..XX",
"XXXX..+XXXX+..XXXXX. OOOOOOOOOOOOOOO OO  ##   XXXXX..+XXXXX+.XXX",
"XXXXX.++XXX+.XXXXXXX OOOOOOOOO   OO  OO ### .XXXXXXX..+XX+++.XXX",
"XXXXXX.+++++.XXXXXXX  OOOO    ## O # OO ### .XXXXXXXX.++X+..XXXX",
"XXXXXX...+..XXXXXXXXX OOO  ## ## O ## O ### XXXXXXXXXX.+++.XXXXX",
"XXXXXXX....XXXXXXXXXX OOO ### ##  ###   ### XXXXXXXXXX....+XXXXX",
"XXXXXXX.X.+XXXXXXXXX  OOO ### ### ###  #### XXXXXXXXXXX...++XXXX",
"XXXXXX..X.+XXXXXXX  O OOO ####### ###  #### XXXXXXXXXXX.X..++XXX",
"XXXXX.XXX..++XXX  OOO  OO ###########  #### +XXXXXXX++..XX..++++",
"XXXXX.XXXX..+++ OOOOOO OO  ################ +++++XXX+.XXXXX.+...",
"XX+..XXXXXX.+.. OOOOOO OOO   ############## +...+X+++.XXXXX...X.",
"++..+XXXXXX...X OOOOO  OOO ################ ..X.+++..XXXXXXXXXX.",
".....+XXXXXXXX OOO         ############### XXXX.++..XXXXXXXXXXX.",
"...X..+XXXXXXX OO  XXXX  @   ############ XXXXX....XXXXXXXXXXXX.",
"XXXXX..+XXXXX     XXXXX @@@@@       #### XXXXXXXX.XXXXXXXXXXXXX.",
"XXXXXX..+XXX++++...XXXX @@@@@@@@@@@@    +XXX++++...XXXXXXXXXXX.X",
"XXXXXXX.++X++....X..+XX @@@@@@@@@@@@@@ .++X++....X..+XXXXXXXXX.X",
"XXXXXXXX.+++..XXXXX..+      @@@@@@@@@@@ .+++..XXXXX..+XXXXXX++.X",
"XXXXXXXX...+.XXXXXXX.. @@@@   @@@@@@@@@ ...+.XXXXXXX..+XXXX+...X",
"+XXXXXXXX..+.XXXXXXXX  @@@@@@@   @@@@@ XX..+.XXXXXXXX.++X+++..XX",
".++++++++...XXXXXXXXX @@@@@@@@@@@      ++...XXXXXXXXXX.++....XXX",
"...........XXXXXXXXXX @@@ @@@@@@@@@@@@ ....XXXXXXXXXXX.....XXXXX",
"XXXXXXX...XXXXXXXXXX @@@@ @@@@@@@@@@@@ ...XXXXXXXXXXXXX...XXXXXX",
"XXXXXXX.X.+XXXXXXXXX @@@ @@@@@@@@@@@@@ .X.+XXXXXXXXXXXX..XXXXXXX",
"XXXX++..X..+XXXXXXX @@@@ @@@@@@ @@@@@@ .X..+XXXXXXXXX+...+XXXXXX",
"XXXX+.XXXX..++++XXX @@@ @@@@@@@ @@@@@@ XXX..++++XXXX+.XX..+XXXXX",
"XX+++.XXXXX.+...+X @@@@ @@@@@@ @@@@@@@ XXXX.+...+X+++.XXX..++++X",
"X++..XXXXXX...X.++ @@@@ @@@@@@ @@@@@@@ XXXX...X.+++..XXXXX.+...+",
"++..XXXXXXXXXXX.++ @@@ @@@@@@@ @@@@@@@ XXXXXXXX.++..XXXXXX...X.+",
"...XXXXXXXXXXXX.. @@@@ @@@@@@@ @@@@@@@  XXXXXXX....XXXXXXXXXXX.+",
"...++XXXXXXXXXXXX @@@ @@@@@@@@ @@@@@@@  XXXXXXXXX.XXXXXXXXXXXX..",
".X..+XXXXXXXXXXX. @@@ @@@@@@@ @@@@@@@@  XXXXXXXX...+XXXXXXXXX...",
"XXX.+++XXXXX+.... @@@ @@@@@@@ @@@@@@@@ XXXXX+....X..+XXXXXXX..XX",
"XXXX..+XXXX+..XX @@@ @@@@@@@@ @@@@@@@@ XXXX+..XXXXX..+XXXXX+.XXX",
"XXXXX.++XXX+.XXX @@@@@@@@@@@@ @@@@@@@@ +XXX+.XXXXXXX..+XX+++.XXX",
"XXXXXX.+++++.XXX @@@@@@@@@@@@ @@@@@@@@ +++++.XXXXXXXX.++X+..XXXX",
"XXXXXX...+..XXXX @@@@@@@@@@@@ @@@@@@@@ ..+..XXXXXXXXXX.+++.XXXXX",
"XXXXXXX....XXXXX @@@@@@@@@@@@@@@@@@@@@ ....XXXXXXXXXXX....+XXXXX",
"XXXXXXX.X.+XXXXX @@ @@@@@@@@@@@@@@@@@@ .X.+XXXXXXXXXXXX...++XXXX",
"XXXXXX..X.+XXXXX @@ @@@@@@@@@@@@@@@@@@ .X.+XXXXXXXXXXXX.X..++XXX",
"XXXXX.XXX..++XXX @@ @@@@@@@@@@@@@@@@@@ XX..++XXXXXXX++..XX..++++",
"XXXXX.XXXX..++++ @ @@@@@@@@@@@@@@@@@@@ XXX..+++++XXX+.XXXXX.+...",
"XX+..XXXXXX.+... @ @@@@@@@@@@@@@@@@@@@  XXX.+...+X+++.XXXXX...X.",
"++..+XXXXXX...X. @ @@@@@@@@@@@@@@@@@@@@  XX...X.+++..XXXXXXXXXX.",
".....+XXXXXXXXX.    @@@@@@@@@@@@@@@@@@@    XXXX.++..XXXXXXXXXXX.",
"...X..+XXXXXXXX....X  @@@@@@@@@@@@@@@@@ oo XXXX....XXXXXXXXXXXX.",
"XXXXX..+XXXXXXXXX.XXXX                  oo  XXXXX.XXXXXXXXXXXXX.",
"XXXXXX..+XXX++++...XXXXXX ooooooooo ooooooo ++++...XXXXXXXXXXX.X",
"XXXXXXX.++X++....X..+XXXX                  ++....X..+XXXXXXXXX.X",
"XXXXXXXX.+++..XXXXX..+XXXXXX++.XXXXXXXXX.+++..XXXXX..+XXXXXX++.X",
"XXXXXXXX...+.XXXXXXX..+XXXX+...XXXXXXXXX...+.XXXXXXX..+XXXX+...X",
"XXXXXXXXX..+.XXXXXXXX.++X+++..XXXXXXXXXXX..+.XXXXXXXX.++X+++..XX",
"XXXXXXXXX...XXXXXXXXXX.++....XXXXXXXXXXXX...XXXXXXXXXX.++....XXX"
};
